G04 #@! TF.GenerationSoftware,KiCad,Pcbnew,(5.99.0-221-ga18d3cc)*
G04 #@! TF.CreationDate,2019-11-20T11:38:58-07:00*
G04 #@! TF.ProjectId,av3-top,6176332d-746f-4702-9e6b-696361645f70,rev?*
G04 #@! TF.SameCoordinates,Original*
G04 #@! TF.FileFunction,Copper,L4,Bot*
G04 #@! TF.FilePolarity,Positive*
%FSLAX46Y46*%
G04 Gerber Fmt 4.6, Leading zero omitted, Abs format (unit mm)*
G04 Created by KiCad (PCBNEW (5.99.0-221-ga18d3cc)) date 2019-11-20 11:38:58*
%MOMM*%
%LPD*%
G04 APERTURE LIST*
%ADD10O,1.700000X1.700000*%
%ADD11R,1.700000X1.700000*%
%ADD12C,0.800000*%
%ADD13C,7.400000*%
%ADD14R,1.500000X5.080000*%
%ADD15C,0.250000*%
%ADD16C,0.254000*%
G04 APERTURE END LIST*
D10*
X137380000Y-150540000D03*
X137380000Y-148000000D03*
X139920000Y-150540000D03*
X139920000Y-148000000D03*
X142460000Y-150540000D03*
X142460000Y-148000000D03*
X145000000Y-150540000D03*
D11*
X145000000Y-148000000D03*
D12*
X116962221Y-148037779D03*
X115000000Y-147225000D03*
X113037779Y-148037779D03*
X112225000Y-150000000D03*
X113037779Y-151962221D03*
X115000000Y-152775000D03*
X116962221Y-151962221D03*
X117775000Y-150000000D03*
D13*
X115000000Y-150000000D03*
D12*
X167962221Y-148037779D03*
X166000000Y-147225000D03*
X164037779Y-148037779D03*
X163225000Y-150000000D03*
X164037779Y-151962221D03*
X166000000Y-152775000D03*
X167962221Y-151962221D03*
X168775000Y-150000000D03*
D13*
X166000000Y-150000000D03*
D12*
X164037779Y-113962221D03*
X166000000Y-114775000D03*
X167962221Y-113962221D03*
X168775000Y-112000000D03*
X167962221Y-110037779D03*
X166000000Y-109225000D03*
X164037779Y-110037779D03*
X163225000Y-112000000D03*
D13*
X166000000Y-112000000D03*
D12*
X113037779Y-113962221D03*
X115000000Y-114775000D03*
X116962221Y-113962221D03*
X117775000Y-112000000D03*
X116962221Y-110037779D03*
X115000000Y-109225000D03*
X113037779Y-110037779D03*
X112225000Y-112000000D03*
D13*
X115000000Y-112000000D03*
D14*
X159000000Y-152500000D03*
X150500000Y-152500000D03*
X129250000Y-152500000D03*
X120750000Y-152500000D03*
D12*
X149525000Y-145725000D03*
X141500000Y-136250000D03*
X140500000Y-136250000D03*
X141000000Y-135500000D03*
X140000000Y-135500000D03*
X140500000Y-134750000D03*
X141500000Y-134750000D03*
X142000000Y-134000000D03*
X141000000Y-134000000D03*
X140000000Y-134000000D03*
X140500000Y-133250000D03*
X141500000Y-133250000D03*
X133500000Y-109250000D03*
X134500000Y-110000000D03*
X132500000Y-110000000D03*
X132000000Y-112000000D03*
X135000000Y-112000000D03*
X134000000Y-147000000D03*
X133000000Y-147000000D03*
X132000000Y-148000000D03*
X131000000Y-153000000D03*
X131000000Y-151000000D03*
X131000000Y-149000000D03*
X149000000Y-154000000D03*
X149000000Y-153000000D03*
X149000000Y-151000000D03*
X148975000Y-148975000D03*
X161000000Y-154000000D03*
X161000000Y-152000000D03*
X161000000Y-150000000D03*
X119000000Y-153000000D03*
X119000000Y-151000000D03*
X120000000Y-149000000D03*
X120000000Y-147000000D03*
X120000000Y-145000000D03*
X120000000Y-143000000D03*
X120000000Y-141000000D03*
X120750000Y-138250000D03*
X121750000Y-138250000D03*
X122750000Y-138250000D03*
X121000000Y-136000000D03*
X122000000Y-135000000D03*
X122000000Y-133000000D03*
X122000000Y-131000000D03*
X122000000Y-129000000D03*
X122000000Y-127000000D03*
X122000000Y-125000000D03*
X122000000Y-123000000D03*
X122000000Y-119000000D03*
X122000000Y-117000000D03*
X122000000Y-115000000D03*
X122000000Y-113000000D03*
X122000000Y-111000000D03*
X124000000Y-111000000D03*
X126000000Y-111000000D03*
X128000000Y-111000000D03*
X130000000Y-111000000D03*
X132000000Y-111000000D03*
X135000000Y-111000000D03*
X137000000Y-111000000D03*
X139000000Y-111000000D03*
X141000000Y-111000000D03*
X143000000Y-111000000D03*
X145000000Y-111000000D03*
X147000000Y-111000000D03*
X149000000Y-111000000D03*
X151000000Y-111000000D03*
X153000000Y-113000000D03*
X155000000Y-115000000D03*
X157000000Y-117000000D03*
X159000000Y-119000000D03*
X159000000Y-121000000D03*
X159000000Y-123000000D03*
X159000000Y-125000000D03*
X159000000Y-127000000D03*
X159000000Y-129000000D03*
X160000000Y-135000000D03*
X160000000Y-137000000D03*
X160000000Y-139000000D03*
X160000000Y-141000000D03*
X160000000Y-143000000D03*
X160000000Y-145000000D03*
X160000000Y-147000000D03*
X159000000Y-149000000D03*
X147000000Y-117250000D03*
X145000000Y-117250000D03*
X146000000Y-117250000D03*
X147500000Y-118000000D03*
X146500000Y-118000000D03*
X145500000Y-118000000D03*
X144500000Y-118000000D03*
X134750000Y-118750000D03*
X133500000Y-115750000D03*
X133750000Y-118750000D03*
X132750000Y-118750000D03*
X132750000Y-117750000D03*
X132750000Y-116750000D03*
X147000000Y-142250000D03*
X146000000Y-142250000D03*
X140000000Y-142250000D03*
X141000000Y-142250000D03*
X142000000Y-142250000D03*
X143000000Y-142250000D03*
X144000000Y-142250000D03*
X145000000Y-142250000D03*
X158500000Y-133000000D03*
X159500000Y-133000000D03*
X160500000Y-133000000D03*
X161500000Y-133000000D03*
X162500000Y-133000000D03*
X163500000Y-133000000D03*
X164500000Y-133000000D03*
X165500000Y-133000000D03*
X165000000Y-132250000D03*
X164000000Y-132250000D03*
X163000000Y-132250000D03*
X162000000Y-132250000D03*
X161000000Y-132250000D03*
X160000000Y-132250000D03*
X159000000Y-132250000D03*
X158000000Y-132250000D03*
X157500000Y-131500000D03*
X158500000Y-131500000D03*
X159500000Y-131500000D03*
X160500000Y-131500000D03*
X161500000Y-131500000D03*
X162500000Y-131500000D03*
X163500000Y-131500000D03*
X164500000Y-131500000D03*
X165500000Y-131500000D03*
X165000000Y-130750000D03*
X164000000Y-130750000D03*
X163000000Y-130750000D03*
X162000000Y-130750000D03*
X161000000Y-130750000D03*
X160000000Y-130750000D03*
X158000000Y-130750000D03*
X159000000Y-130750000D03*
X158500000Y-130000000D03*
X159500000Y-130000000D03*
X160500000Y-130000000D03*
X161500000Y-130000000D03*
X162500000Y-130000000D03*
X163500000Y-130000000D03*
X164500000Y-130000000D03*
X165500000Y-130000000D03*
X143750000Y-133000000D03*
X144750000Y-133000000D03*
X145750000Y-133000000D03*
X146750000Y-133000000D03*
X147750000Y-133000000D03*
X148750000Y-133000000D03*
X149750000Y-133000000D03*
X150750000Y-133000000D03*
X151750000Y-133000000D03*
X152750000Y-131500000D03*
X152250000Y-132250000D03*
X152250000Y-130750000D03*
X151750000Y-131500000D03*
X151250000Y-132250000D03*
X150250000Y-132250000D03*
X149250000Y-132250000D03*
X148250000Y-132250000D03*
X147250000Y-132250000D03*
X146250000Y-132250000D03*
X145250000Y-132250000D03*
X144250000Y-132250000D03*
X143750000Y-131500000D03*
X144750000Y-131500000D03*
X145750000Y-131500000D03*
X146750000Y-131500000D03*
X147750000Y-131500000D03*
X148750000Y-131500000D03*
X149750000Y-131500000D03*
X150750000Y-131500000D03*
X151250000Y-130750000D03*
X150750000Y-130000000D03*
X150250000Y-130750000D03*
X149250000Y-130750000D03*
X148250000Y-130750000D03*
X147250000Y-130750000D03*
X146250000Y-130750000D03*
X145250000Y-130750000D03*
X144250000Y-130750000D03*
X149750000Y-130000000D03*
X148750000Y-130000000D03*
X147750000Y-130000000D03*
X146750000Y-130000000D03*
X145750000Y-130000000D03*
X144750000Y-130000000D03*
X143750000Y-130000000D03*
X154600000Y-131100000D03*
X154600000Y-132000000D03*
X155500000Y-132000000D03*
X155500000Y-131100000D03*
X133000000Y-112250000D03*
X133000000Y-111250000D03*
X133500000Y-110250000D03*
X134000000Y-111250000D03*
X134000000Y-112250000D03*
X133500000Y-113250000D03*
X122000000Y-121000000D03*
X121000000Y-121000000D03*
X120000000Y-121000000D03*
D15*
X142700000Y-151875000D02*
X142592919Y-151875000D01*
X142592919Y-151875000D02*
X142460000Y-151742081D01*
X142460000Y-151742081D02*
X142460000Y-150540000D01*
X143750000Y-152925000D02*
X142700000Y-151875000D01*
X146750000Y-152925000D02*
X143750000Y-152925000D01*
X148025000Y-151650000D02*
X146750000Y-152925000D01*
X148025000Y-147225000D02*
X148025000Y-151650000D01*
X149525000Y-145725000D02*
X148025000Y-147225000D01*
D16*
G36*
X170666001Y-154666000D02*
G01*
X160391837Y-154666000D01*
X160391837Y-153157763D01*
X163023257Y-153157763D01*
X163352443Y-153437923D01*
X163700561Y-153679871D01*
X164070628Y-153886695D01*
X164459111Y-154056419D01*
X164862303Y-154187423D01*
X165276353Y-154278458D01*
X165697311Y-154328654D01*
X166121158Y-154337532D01*
X166543849Y-154305009D01*
X166961348Y-154231392D01*
X167369672Y-154117386D01*
X167764922Y-153964079D01*
X168143325Y-153772933D01*
X168501269Y-153545775D01*
X168835338Y-153284772D01*
X168972825Y-153153845D01*
X166000000Y-150181019D01*
X163023257Y-153157763D01*
X160391837Y-153157763D01*
X160391837Y-152628000D01*
X159128000Y-152628000D01*
X159128000Y-154666000D01*
X158872000Y-154666000D01*
X158872000Y-152628000D01*
X157608163Y-152628000D01*
X157608163Y-154666000D01*
X151891837Y-154666000D01*
X151891837Y-152628000D01*
X150628000Y-152628000D01*
X150628000Y-154666000D01*
X150372000Y-154666000D01*
X150372000Y-152628000D01*
X149108163Y-152628000D01*
X149108163Y-154666000D01*
X130641837Y-154666000D01*
X130641837Y-152628000D01*
X129378000Y-152628000D01*
X129378000Y-154666000D01*
X129122000Y-154666000D01*
X129122000Y-152628000D01*
X127858163Y-152628000D01*
X127858163Y-154666000D01*
X122141837Y-154666000D01*
X122141837Y-152628000D01*
X120878000Y-152628000D01*
X120878000Y-154666000D01*
X120622000Y-154666000D01*
X120622000Y-152628000D01*
X119358163Y-152628000D01*
X119358163Y-154666000D01*
X110334000Y-154666000D01*
X110334000Y-153157763D01*
X112023257Y-153157763D01*
X112352443Y-153437923D01*
X112700561Y-153679871D01*
X113070628Y-153886695D01*
X113459111Y-154056419D01*
X113862303Y-154187423D01*
X114276353Y-154278458D01*
X114697311Y-154328654D01*
X115121158Y-154337532D01*
X115543849Y-154305009D01*
X115961348Y-154231392D01*
X116369672Y-154117386D01*
X116764922Y-153964079D01*
X117143325Y-153772933D01*
X117501269Y-153545775D01*
X117835338Y-153284772D01*
X117972825Y-153153845D01*
X115000000Y-150181019D01*
X112023257Y-153157763D01*
X110334000Y-153157763D01*
X110334000Y-150151437D01*
X110663418Y-150151437D01*
X110698894Y-150573890D01*
X110775422Y-150990866D01*
X110892277Y-151398383D01*
X111048339Y-151792553D01*
X111242121Y-152169612D01*
X111471773Y-152525962D01*
X111735103Y-152858202D01*
X111845972Y-152973007D01*
X114818981Y-150000000D01*
X115181019Y-150000000D01*
X118156748Y-152975728D01*
X118419356Y-152671493D01*
X118663729Y-152325073D01*
X118873130Y-151956458D01*
X119045562Y-151569170D01*
X119179379Y-151166903D01*
X119273302Y-150753499D01*
X119326546Y-150332026D01*
X119331894Y-149948976D01*
X119358163Y-149948976D01*
X119358163Y-152372000D01*
X120622000Y-152372000D01*
X120622000Y-149318163D01*
X120878000Y-149318163D01*
X120878000Y-152372000D01*
X122141837Y-152372000D01*
X122141837Y-149948976D01*
X127858163Y-149948976D01*
X127858163Y-152372000D01*
X129122000Y-152372000D01*
X129122000Y-149318163D01*
X129378000Y-149318163D01*
X129378000Y-152372000D01*
X130641837Y-152372000D01*
X130641837Y-150531694D01*
X136190306Y-150531694D01*
X136211350Y-150762932D01*
X136276908Y-150985678D01*
X136384482Y-151191449D01*
X136529976Y-151372405D01*
X136707846Y-151521657D01*
X136911318Y-151633516D01*
X137133066Y-151703859D01*
X137324694Y-151724000D01*
X137438369Y-151724000D01*
X137611085Y-151707065D01*
X137833368Y-151639953D01*
X138038383Y-151530945D01*
X138218319Y-151384193D01*
X138366326Y-151205285D01*
X138476762Y-151001036D01*
X138545423Y-150779227D01*
X138569694Y-150548306D01*
X138568183Y-150531694D01*
X138730306Y-150531694D01*
X138751350Y-150762932D01*
X138816908Y-150985678D01*
X138924482Y-151191449D01*
X139069976Y-151372405D01*
X139247846Y-151521657D01*
X139451318Y-151633516D01*
X139673066Y-151703859D01*
X139864694Y-151724000D01*
X139978369Y-151724000D01*
X140151085Y-151707065D01*
X140373368Y-151639953D01*
X140578383Y-151530945D01*
X140758319Y-151384193D01*
X140906326Y-151205285D01*
X141016762Y-151001036D01*
X141085423Y-150779227D01*
X141109694Y-150548306D01*
X141088650Y-150317068D01*
X141023092Y-150094322D01*
X140915518Y-149888551D01*
X140770024Y-149707595D01*
X140592154Y-149558343D01*
X140388682Y-149446484D01*
X140166934Y-149376141D01*
X139975306Y-149356000D01*
X139861631Y-149356000D01*
X139688915Y-149372935D01*
X139466632Y-149440047D01*
X139261617Y-149549055D01*
X139081681Y-149695807D01*
X138933674Y-149874715D01*
X138823238Y-150078964D01*
X138754577Y-150300773D01*
X138730306Y-150531694D01*
X138568183Y-150531694D01*
X138548650Y-150317068D01*
X138483092Y-150094322D01*
X138375518Y-149888551D01*
X138230024Y-149707595D01*
X138052154Y-149558343D01*
X137848682Y-149446484D01*
X137626934Y-149376141D01*
X137435306Y-149356000D01*
X137321631Y-149356000D01*
X137148915Y-149372935D01*
X136926632Y-149440047D01*
X136721617Y-149549055D01*
X136541681Y-149695807D01*
X136393674Y-149874715D01*
X136283238Y-150078964D01*
X136214577Y-150300773D01*
X136190306Y-150531694D01*
X130641837Y-150531694D01*
X130641837Y-149943412D01*
X130561205Y-149642489D01*
X130413815Y-149466835D01*
X130220186Y-149355044D01*
X130011024Y-149318163D01*
X129378000Y-149318163D01*
X129122000Y-149318163D01*
X128483412Y-149318163D01*
X128182489Y-149398795D01*
X128006835Y-149546185D01*
X127895044Y-149739814D01*
X127858163Y-149948976D01*
X122141837Y-149948976D01*
X122141837Y-149943412D01*
X122061205Y-149642489D01*
X121913815Y-149466835D01*
X121720186Y-149355044D01*
X121511024Y-149318163D01*
X120878000Y-149318163D01*
X120622000Y-149318163D01*
X119983412Y-149318163D01*
X119682489Y-149398795D01*
X119506835Y-149546185D01*
X119395044Y-149739814D01*
X119358163Y-149948976D01*
X119331894Y-149948976D01*
X119334130Y-149788908D01*
X119292675Y-149366113D01*
X119210331Y-148950246D01*
X119087799Y-148544401D01*
X118926247Y-148152448D01*
X118840773Y-147991694D01*
X136190306Y-147991694D01*
X136211350Y-148222932D01*
X136276908Y-148445678D01*
X136384482Y-148651449D01*
X136529976Y-148832405D01*
X136707846Y-148981657D01*
X136911318Y-149093516D01*
X137133066Y-149163859D01*
X137324694Y-149184000D01*
X137438369Y-149184000D01*
X137611085Y-149167065D01*
X137833368Y-149099953D01*
X138038383Y-148990945D01*
X138218319Y-148844193D01*
X138366326Y-148665285D01*
X138476762Y-148461036D01*
X138545423Y-148239227D01*
X138569694Y-148008306D01*
X138568183Y-147991694D01*
X138730306Y-147991694D01*
X138751350Y-148222932D01*
X138816908Y-148445678D01*
X138924482Y-148651449D01*
X139069976Y-148832405D01*
X139247846Y-148981657D01*
X139451318Y-149093516D01*
X139673066Y-149163859D01*
X139864694Y-149184000D01*
X139978369Y-149184000D01*
X140151085Y-149167065D01*
X140373368Y-149099953D01*
X140578383Y-148990945D01*
X140758319Y-148844193D01*
X140906326Y-148665285D01*
X141016762Y-148461036D01*
X141085423Y-148239227D01*
X141109694Y-148008306D01*
X141108183Y-147991694D01*
X141270306Y-147991694D01*
X141291350Y-148222932D01*
X141356908Y-148445678D01*
X141464482Y-148651449D01*
X141609976Y-148832405D01*
X141787846Y-148981657D01*
X141991318Y-149093516D01*
X142213066Y-149163859D01*
X142404694Y-149184000D01*
X142518369Y-149184000D01*
X142691085Y-149167065D01*
X142913368Y-149099953D01*
X143118383Y-148990945D01*
X143298319Y-148844193D01*
X143446326Y-148665285D01*
X143508163Y-148550919D01*
X143508163Y-148866588D01*
X143588795Y-149167512D01*
X143736185Y-149343165D01*
X143929814Y-149454956D01*
X143978446Y-149463531D01*
X143884534Y-149553119D01*
X143734203Y-149755172D01*
X143620064Y-149979666D01*
X143573491Y-150129655D01*
X143563092Y-150094322D01*
X143455518Y-149888551D01*
X143310024Y-149707595D01*
X143132154Y-149558343D01*
X142928682Y-149446484D01*
X142706934Y-149376141D01*
X142515306Y-149356000D01*
X142401631Y-149356000D01*
X142228915Y-149372935D01*
X142006632Y-149440047D01*
X141801617Y-149549055D01*
X141621681Y-149695807D01*
X141473674Y-149874715D01*
X141363238Y-150078964D01*
X141294577Y-150300773D01*
X141270306Y-150531694D01*
X141291350Y-150762932D01*
X141356908Y-150985678D01*
X141464482Y-151191449D01*
X141609976Y-151372405D01*
X141787846Y-151521657D01*
X141991318Y-151633516D01*
X142001000Y-151636587D01*
X142001000Y-151730089D01*
X141996159Y-151822459D01*
X142016185Y-151861760D01*
X142031314Y-151932942D01*
X142146008Y-152090804D01*
X142178171Y-152109374D01*
X142259852Y-152191055D01*
X142321768Y-152259821D01*
X142363726Y-152273454D01*
X142424753Y-152313086D01*
X142501047Y-152325170D01*
X143416952Y-153241076D01*
X143478850Y-153309822D01*
X143520805Y-153323453D01*
X143581834Y-153363086D01*
X143774558Y-153393609D01*
X143810421Y-153384000D01*
X146738008Y-153384000D01*
X146830377Y-153388841D01*
X146869678Y-153368816D01*
X146940863Y-153353685D01*
X147098723Y-153238992D01*
X147117293Y-153206829D01*
X148341065Y-151983058D01*
X148409822Y-151921150D01*
X148423453Y-151879195D01*
X148463086Y-151818166D01*
X148493609Y-151625442D01*
X148484000Y-151589579D01*
X148484000Y-149948976D01*
X149108163Y-149948976D01*
X149108163Y-152372000D01*
X150372000Y-152372000D01*
X150372000Y-149318163D01*
X150628000Y-149318163D01*
X150628000Y-152372000D01*
X151891837Y-152372000D01*
X151891837Y-149948976D01*
X157608163Y-149948976D01*
X157608163Y-152372000D01*
X158872000Y-152372000D01*
X158872000Y-149318163D01*
X159128000Y-149318163D01*
X159128000Y-152372000D01*
X160391837Y-152372000D01*
X160391837Y-150151437D01*
X161663418Y-150151437D01*
X161698894Y-150573890D01*
X161775422Y-150990866D01*
X161892277Y-151398383D01*
X162048339Y-151792553D01*
X162242121Y-152169612D01*
X162471773Y-152525962D01*
X162735103Y-152858202D01*
X162845972Y-152973007D01*
X165818981Y-150000000D01*
X166181019Y-150000000D01*
X169156748Y-152975728D01*
X169419356Y-152671493D01*
X169663729Y-152325073D01*
X169873130Y-151956458D01*
X170045562Y-151569170D01*
X170179379Y-151166903D01*
X170273302Y-150753499D01*
X170326546Y-150332026D01*
X170334130Y-149788908D01*
X170292675Y-149366113D01*
X170210331Y-148950246D01*
X170087799Y-148544401D01*
X169926247Y-148152448D01*
X169727220Y-147778132D01*
X169492615Y-147425022D01*
X169161717Y-147019303D01*
X166181019Y-150000000D01*
X165818981Y-150000000D01*
X162841071Y-147022091D01*
X162543678Y-147376508D01*
X162304165Y-147726308D01*
X162099931Y-148097809D01*
X161932923Y-148487468D01*
X161804737Y-148891563D01*
X161716594Y-149306240D01*
X161669338Y-149727538D01*
X161663418Y-150151437D01*
X160391837Y-150151437D01*
X160391837Y-149943412D01*
X160311205Y-149642489D01*
X160163815Y-149466835D01*
X159970186Y-149355044D01*
X159761024Y-149318163D01*
X159128000Y-149318163D01*
X158872000Y-149318163D01*
X158233412Y-149318163D01*
X157932489Y-149398795D01*
X157756835Y-149546185D01*
X157645044Y-149739814D01*
X157608163Y-149948976D01*
X151891837Y-149948976D01*
X151891837Y-149943412D01*
X151811205Y-149642489D01*
X151663815Y-149466835D01*
X151470186Y-149355044D01*
X151261024Y-149318163D01*
X150628000Y-149318163D01*
X150372000Y-149318163D01*
X149733412Y-149318163D01*
X149432489Y-149398795D01*
X149256835Y-149546185D01*
X149145044Y-149739814D01*
X149108163Y-149948976D01*
X148484000Y-149948976D01*
X148484000Y-147415122D01*
X149062462Y-146836660D01*
X163017680Y-146836660D01*
X166000000Y-149818981D01*
X168979228Y-146839752D01*
X168599298Y-146525446D01*
X168247835Y-146288382D01*
X167874917Y-146086746D01*
X167484102Y-145922462D01*
X167079121Y-145797100D01*
X166663840Y-145711855D01*
X166242222Y-145667541D01*
X165818292Y-145664582D01*
X165396096Y-145703004D01*
X164979666Y-145782443D01*
X164572973Y-145902138D01*
X164179903Y-146060949D01*
X163804205Y-146257359D01*
X163449467Y-146489494D01*
X163017680Y-146836660D01*
X149062462Y-146836660D01*
X149440124Y-146458999D01*
X149641254Y-146458999D01*
X149862383Y-146387150D01*
X150050485Y-146250485D01*
X150187150Y-146062383D01*
X150258999Y-145841254D01*
X150258999Y-145608746D01*
X150187150Y-145387617D01*
X150050485Y-145199515D01*
X149862383Y-145062850D01*
X149641254Y-144991001D01*
X149408746Y-144991001D01*
X149187617Y-145062850D01*
X148999515Y-145199515D01*
X148862850Y-145387617D01*
X148791001Y-145608746D01*
X148791001Y-145809876D01*
X147708947Y-146891931D01*
X147640178Y-146953852D01*
X147626547Y-146995806D01*
X147586914Y-147056835D01*
X147556391Y-147249558D01*
X147566000Y-147285421D01*
X147566001Y-151459876D01*
X146559878Y-152466000D01*
X143940124Y-152466000D01*
X143044404Y-151570281D01*
X143118383Y-151530945D01*
X143298319Y-151384193D01*
X143446326Y-151205285D01*
X143556762Y-151001036D01*
X143570845Y-150955540D01*
X143573456Y-150967983D01*
X143665961Y-151202222D01*
X143796610Y-151417526D01*
X143961669Y-151607739D01*
X144156416Y-151767422D01*
X144375284Y-151892009D01*
X144614831Y-151978960D01*
X144872000Y-152013047D01*
X144872000Y-150668000D01*
X145128000Y-150668000D01*
X145128000Y-152039978D01*
X145494708Y-151944800D01*
X145724329Y-151841363D01*
X145933240Y-151700716D01*
X146115466Y-151526881D01*
X146265797Y-151324828D01*
X146379936Y-151100334D01*
X146454618Y-150859819D01*
X146480043Y-150668000D01*
X145128000Y-150668000D01*
X144872000Y-150668000D01*
X144872000Y-150412000D01*
X146489487Y-150412000D01*
X146426544Y-150112017D01*
X146334039Y-149877778D01*
X146203390Y-149662474D01*
X146038331Y-149472261D01*
X146014025Y-149452331D01*
X146167512Y-149411205D01*
X146343165Y-149263815D01*
X146454956Y-149070186D01*
X146491837Y-148861024D01*
X146491837Y-148128000D01*
X144872000Y-148128000D01*
X144872000Y-146508163D01*
X145128000Y-146508163D01*
X145128000Y-147872000D01*
X146491837Y-147872000D01*
X146491837Y-147133412D01*
X146411205Y-146832489D01*
X146263815Y-146656835D01*
X146070186Y-146545044D01*
X145861024Y-146508163D01*
X145128000Y-146508163D01*
X144872000Y-146508163D01*
X144133412Y-146508163D01*
X143832489Y-146588795D01*
X143656835Y-146736185D01*
X143545044Y-146929814D01*
X143508163Y-147138976D01*
X143508163Y-147449252D01*
X143455518Y-147348551D01*
X143310024Y-147167595D01*
X143132154Y-147018343D01*
X142928682Y-146906484D01*
X142706934Y-146836141D01*
X142515306Y-146816000D01*
X142401631Y-146816000D01*
X142228915Y-146832935D01*
X142006632Y-146900047D01*
X141801617Y-147009055D01*
X141621681Y-147155807D01*
X141473674Y-147334715D01*
X141363238Y-147538964D01*
X141294577Y-147760773D01*
X141270306Y-147991694D01*
X141108183Y-147991694D01*
X141088650Y-147777068D01*
X141023092Y-147554322D01*
X140915518Y-147348551D01*
X140770024Y-147167595D01*
X140592154Y-147018343D01*
X140388682Y-146906484D01*
X140166934Y-146836141D01*
X139975306Y-146816000D01*
X139861631Y-146816000D01*
X139688915Y-146832935D01*
X139466632Y-146900047D01*
X139261617Y-147009055D01*
X139081681Y-147155807D01*
X138933674Y-147334715D01*
X138823238Y-147538964D01*
X138754577Y-147760773D01*
X138730306Y-147991694D01*
X138568183Y-147991694D01*
X138548650Y-147777068D01*
X138483092Y-147554322D01*
X138375518Y-147348551D01*
X138230024Y-147167595D01*
X138052154Y-147018343D01*
X137848682Y-146906484D01*
X137626934Y-146836141D01*
X137435306Y-146816000D01*
X137321631Y-146816000D01*
X137148915Y-146832935D01*
X136926632Y-146900047D01*
X136721617Y-147009055D01*
X136541681Y-147155807D01*
X136393674Y-147334715D01*
X136283238Y-147538964D01*
X136214577Y-147760773D01*
X136190306Y-147991694D01*
X118840773Y-147991694D01*
X118727220Y-147778132D01*
X118492615Y-147425022D01*
X118161717Y-147019303D01*
X115181019Y-150000000D01*
X114818981Y-150000000D01*
X111841071Y-147022091D01*
X111543678Y-147376508D01*
X111304165Y-147726308D01*
X111099931Y-148097809D01*
X110932923Y-148487468D01*
X110804737Y-148891563D01*
X110716594Y-149306240D01*
X110669338Y-149727538D01*
X110663418Y-150151437D01*
X110334000Y-150151437D01*
X110334000Y-146836660D01*
X112017680Y-146836660D01*
X115000000Y-149818981D01*
X117979228Y-146839752D01*
X117599298Y-146525446D01*
X117247835Y-146288382D01*
X116874917Y-146086746D01*
X116484102Y-145922462D01*
X116079121Y-145797100D01*
X115663840Y-145711855D01*
X115242222Y-145667541D01*
X114818292Y-145664582D01*
X114396096Y-145703004D01*
X113979666Y-145782443D01*
X113572973Y-145902138D01*
X113179903Y-146060949D01*
X112804205Y-146257359D01*
X112449467Y-146489494D01*
X112017680Y-146836660D01*
X110334000Y-146836660D01*
X110334000Y-133883746D01*
X139266001Y-133883746D01*
X139266001Y-134116254D01*
X139337850Y-134337383D01*
X139474515Y-134525485D01*
X139662617Y-134662150D01*
X139766001Y-134695741D01*
X139766001Y-134804259D01*
X139662617Y-134837850D01*
X139474515Y-134974515D01*
X139337850Y-135162617D01*
X139266001Y-135383746D01*
X139266001Y-135616254D01*
X139337850Y-135837383D01*
X139474515Y-136025485D01*
X139662617Y-136162150D01*
X139766001Y-136195741D01*
X139766001Y-136366254D01*
X139837850Y-136587383D01*
X139974515Y-136775485D01*
X140162617Y-136912150D01*
X140383746Y-136983999D01*
X140616254Y-136983999D01*
X140837383Y-136912150D01*
X141000000Y-136794001D01*
X141162617Y-136912150D01*
X141383746Y-136983999D01*
X141616254Y-136983999D01*
X141837383Y-136912150D01*
X142025485Y-136775485D01*
X142162150Y-136587383D01*
X142233999Y-136366254D01*
X142233999Y-136133746D01*
X142162150Y-135912617D01*
X142025485Y-135724515D01*
X141837383Y-135587850D01*
X141733999Y-135554259D01*
X141733999Y-135445741D01*
X141837383Y-135412150D01*
X142025485Y-135275485D01*
X142162150Y-135087383D01*
X142233999Y-134866254D01*
X142233999Y-134695741D01*
X142337383Y-134662150D01*
X142525485Y-134525485D01*
X142662150Y-134337383D01*
X142733999Y-134116254D01*
X142733999Y-133883746D01*
X142662150Y-133662617D01*
X142525485Y-133474515D01*
X142337383Y-133337850D01*
X142233999Y-133304259D01*
X142233999Y-133133746D01*
X142162150Y-132912617D01*
X142025485Y-132724515D01*
X141837383Y-132587850D01*
X141616254Y-132516001D01*
X141383746Y-132516001D01*
X141162617Y-132587850D01*
X141000000Y-132705999D01*
X140837383Y-132587850D01*
X140616254Y-132516001D01*
X140383746Y-132516001D01*
X140162617Y-132587850D01*
X139974515Y-132724515D01*
X139837850Y-132912617D01*
X139766001Y-133133746D01*
X139766001Y-133304259D01*
X139662617Y-133337850D01*
X139474515Y-133474515D01*
X139337850Y-133662617D01*
X139266001Y-133883746D01*
X110334000Y-133883746D01*
X110334000Y-115157763D01*
X112023257Y-115157763D01*
X112352443Y-115437923D01*
X112700561Y-115679871D01*
X113070628Y-115886695D01*
X113459111Y-116056419D01*
X113862303Y-116187423D01*
X114276353Y-116278458D01*
X114697311Y-116328654D01*
X115121158Y-116337532D01*
X115543849Y-116305009D01*
X115961348Y-116231392D01*
X116369672Y-116117386D01*
X116764922Y-115964079D01*
X117143325Y-115772933D01*
X117501269Y-115545775D01*
X117835338Y-115284772D01*
X117968710Y-115157763D01*
X163023257Y-115157763D01*
X163352443Y-115437923D01*
X163700561Y-115679871D01*
X164070628Y-115886695D01*
X164459111Y-116056419D01*
X164862303Y-116187423D01*
X165276353Y-116278458D01*
X165697311Y-116328654D01*
X166121158Y-116337532D01*
X166543849Y-116305009D01*
X166961348Y-116231392D01*
X167369672Y-116117386D01*
X167764922Y-115964079D01*
X168143325Y-115772933D01*
X168501269Y-115545775D01*
X168835338Y-115284772D01*
X168972825Y-115153845D01*
X166000000Y-112181019D01*
X163023257Y-115157763D01*
X117968710Y-115157763D01*
X117972825Y-115153845D01*
X115000000Y-112181019D01*
X112023257Y-115157763D01*
X110334000Y-115157763D01*
X110334000Y-112151437D01*
X110663418Y-112151437D01*
X110698894Y-112573890D01*
X110775422Y-112990866D01*
X110892277Y-113398383D01*
X111048339Y-113792553D01*
X111242121Y-114169612D01*
X111471773Y-114525962D01*
X111735103Y-114858202D01*
X111845972Y-114973007D01*
X114818981Y-112000000D01*
X115181019Y-112000000D01*
X118156748Y-114975728D01*
X118419356Y-114671493D01*
X118663729Y-114325073D01*
X118873130Y-113956458D01*
X119045562Y-113569170D01*
X119179379Y-113166903D01*
X119273302Y-112753499D01*
X119326546Y-112332026D01*
X119329067Y-112151437D01*
X161663418Y-112151437D01*
X161698894Y-112573890D01*
X161775422Y-112990866D01*
X161892277Y-113398383D01*
X162048339Y-113792553D01*
X162242121Y-114169612D01*
X162471773Y-114525962D01*
X162735103Y-114858202D01*
X162845972Y-114973007D01*
X165818981Y-112000000D01*
X166181019Y-112000000D01*
X169156748Y-114975728D01*
X169419356Y-114671493D01*
X169663729Y-114325073D01*
X169873130Y-113956458D01*
X170045562Y-113569170D01*
X170179379Y-113166903D01*
X170273302Y-112753499D01*
X170326546Y-112332026D01*
X170334130Y-111788908D01*
X170292675Y-111366113D01*
X170210331Y-110950246D01*
X170087799Y-110544401D01*
X169926247Y-110152448D01*
X169727220Y-109778132D01*
X169492615Y-109425022D01*
X169161717Y-109019303D01*
X166181019Y-112000000D01*
X165818981Y-112000000D01*
X162841071Y-109022091D01*
X162543678Y-109376508D01*
X162304165Y-109726308D01*
X162099931Y-110097809D01*
X161932923Y-110487468D01*
X161804737Y-110891563D01*
X161716594Y-111306240D01*
X161669338Y-111727538D01*
X161663418Y-112151437D01*
X119329067Y-112151437D01*
X119334130Y-111788908D01*
X119292675Y-111366113D01*
X119210331Y-110950246D01*
X119087799Y-110544401D01*
X118926247Y-110152448D01*
X118727220Y-109778132D01*
X118492615Y-109425022D01*
X118161717Y-109019303D01*
X115181019Y-112000000D01*
X114818981Y-112000000D01*
X111841071Y-109022091D01*
X111543678Y-109376508D01*
X111304165Y-109726308D01*
X111099931Y-110097809D01*
X110932923Y-110487468D01*
X110804737Y-110891563D01*
X110716594Y-111306240D01*
X110669338Y-111727538D01*
X110663418Y-112151437D01*
X110334000Y-112151437D01*
X110334000Y-108836660D01*
X112017680Y-108836660D01*
X115000000Y-111818981D01*
X117979228Y-108839752D01*
X117975491Y-108836660D01*
X163017680Y-108836660D01*
X166000000Y-111818981D01*
X168979228Y-108839752D01*
X168599298Y-108525446D01*
X168247835Y-108288382D01*
X167874917Y-108086746D01*
X167484102Y-107922462D01*
X167079121Y-107797100D01*
X166663840Y-107711855D01*
X166242222Y-107667541D01*
X165818292Y-107664582D01*
X165396096Y-107703004D01*
X164979666Y-107782443D01*
X164572973Y-107902138D01*
X164179903Y-108060949D01*
X163804205Y-108257359D01*
X163449467Y-108489494D01*
X163017680Y-108836660D01*
X117975491Y-108836660D01*
X117599298Y-108525446D01*
X117247835Y-108288382D01*
X116874917Y-108086746D01*
X116484102Y-107922462D01*
X116079121Y-107797100D01*
X115663840Y-107711855D01*
X115242222Y-107667541D01*
X114818292Y-107664582D01*
X114396096Y-107703004D01*
X113979666Y-107782443D01*
X113572973Y-107902138D01*
X113179903Y-108060949D01*
X112804205Y-108257359D01*
X112449467Y-108489494D01*
X112017680Y-108836660D01*
X110334000Y-108836660D01*
X110334000Y-107334000D01*
X170666000Y-107334000D01*
X170666001Y-154666000D01*
G37*
X170666001Y-154666000D02*
X160391837Y-154666000D01*
X160391837Y-153157763D01*
X163023257Y-153157763D01*
X163352443Y-153437923D01*
X163700561Y-153679871D01*
X164070628Y-153886695D01*
X164459111Y-154056419D01*
X164862303Y-154187423D01*
X165276353Y-154278458D01*
X165697311Y-154328654D01*
X166121158Y-154337532D01*
X166543849Y-154305009D01*
X166961348Y-154231392D01*
X167369672Y-154117386D01*
X167764922Y-153964079D01*
X168143325Y-153772933D01*
X168501269Y-153545775D01*
X168835338Y-153284772D01*
X168972825Y-153153845D01*
X166000000Y-150181019D01*
X163023257Y-153157763D01*
X160391837Y-153157763D01*
X160391837Y-152628000D01*
X159128000Y-152628000D01*
X159128000Y-154666000D01*
X158872000Y-154666000D01*
X158872000Y-152628000D01*
X157608163Y-152628000D01*
X157608163Y-154666000D01*
X151891837Y-154666000D01*
X151891837Y-152628000D01*
X150628000Y-152628000D01*
X150628000Y-154666000D01*
X150372000Y-154666000D01*
X150372000Y-152628000D01*
X149108163Y-152628000D01*
X149108163Y-154666000D01*
X130641837Y-154666000D01*
X130641837Y-152628000D01*
X129378000Y-152628000D01*
X129378000Y-154666000D01*
X129122000Y-154666000D01*
X129122000Y-152628000D01*
X127858163Y-152628000D01*
X127858163Y-154666000D01*
X122141837Y-154666000D01*
X122141837Y-152628000D01*
X120878000Y-152628000D01*
X120878000Y-154666000D01*
X120622000Y-154666000D01*
X120622000Y-152628000D01*
X119358163Y-152628000D01*
X119358163Y-154666000D01*
X110334000Y-154666000D01*
X110334000Y-153157763D01*
X112023257Y-153157763D01*
X112352443Y-153437923D01*
X112700561Y-153679871D01*
X113070628Y-153886695D01*
X113459111Y-154056419D01*
X113862303Y-154187423D01*
X114276353Y-154278458D01*
X114697311Y-154328654D01*
X115121158Y-154337532D01*
X115543849Y-154305009D01*
X115961348Y-154231392D01*
X116369672Y-154117386D01*
X116764922Y-153964079D01*
X117143325Y-153772933D01*
X117501269Y-153545775D01*
X117835338Y-153284772D01*
X117972825Y-153153845D01*
X115000000Y-150181019D01*
X112023257Y-153157763D01*
X110334000Y-153157763D01*
X110334000Y-150151437D01*
X110663418Y-150151437D01*
X110698894Y-150573890D01*
X110775422Y-150990866D01*
X110892277Y-151398383D01*
X111048339Y-151792553D01*
X111242121Y-152169612D01*
X111471773Y-152525962D01*
X111735103Y-152858202D01*
X111845972Y-152973007D01*
X114818981Y-150000000D01*
X115181019Y-150000000D01*
X118156748Y-152975728D01*
X118419356Y-152671493D01*
X118663729Y-152325073D01*
X118873130Y-151956458D01*
X119045562Y-151569170D01*
X119179379Y-151166903D01*
X119273302Y-150753499D01*
X119326546Y-150332026D01*
X119331894Y-149948976D01*
X119358163Y-149948976D01*
X119358163Y-152372000D01*
X120622000Y-152372000D01*
X120622000Y-149318163D01*
X120878000Y-149318163D01*
X120878000Y-152372000D01*
X122141837Y-152372000D01*
X122141837Y-149948976D01*
X127858163Y-149948976D01*
X127858163Y-152372000D01*
X129122000Y-152372000D01*
X129122000Y-149318163D01*
X129378000Y-149318163D01*
X129378000Y-152372000D01*
X130641837Y-152372000D01*
X130641837Y-150531694D01*
X136190306Y-150531694D01*
X136211350Y-150762932D01*
X136276908Y-150985678D01*
X136384482Y-151191449D01*
X136529976Y-151372405D01*
X136707846Y-151521657D01*
X136911318Y-151633516D01*
X137133066Y-151703859D01*
X137324694Y-151724000D01*
X137438369Y-151724000D01*
X137611085Y-151707065D01*
X137833368Y-151639953D01*
X138038383Y-151530945D01*
X138218319Y-151384193D01*
X138366326Y-151205285D01*
X138476762Y-151001036D01*
X138545423Y-150779227D01*
X138569694Y-150548306D01*
X138568183Y-150531694D01*
X138730306Y-150531694D01*
X138751350Y-150762932D01*
X138816908Y-150985678D01*
X138924482Y-151191449D01*
X139069976Y-151372405D01*
X139247846Y-151521657D01*
X139451318Y-151633516D01*
X139673066Y-151703859D01*
X139864694Y-151724000D01*
X139978369Y-151724000D01*
X140151085Y-151707065D01*
X140373368Y-151639953D01*
X140578383Y-151530945D01*
X140758319Y-151384193D01*
X140906326Y-151205285D01*
X141016762Y-151001036D01*
X141085423Y-150779227D01*
X141109694Y-150548306D01*
X141088650Y-150317068D01*
X141023092Y-150094322D01*
X140915518Y-149888551D01*
X140770024Y-149707595D01*
X140592154Y-149558343D01*
X140388682Y-149446484D01*
X140166934Y-149376141D01*
X139975306Y-149356000D01*
X139861631Y-149356000D01*
X139688915Y-149372935D01*
X139466632Y-149440047D01*
X139261617Y-149549055D01*
X139081681Y-149695807D01*
X138933674Y-149874715D01*
X138823238Y-150078964D01*
X138754577Y-150300773D01*
X138730306Y-150531694D01*
X138568183Y-150531694D01*
X138548650Y-150317068D01*
X138483092Y-150094322D01*
X138375518Y-149888551D01*
X138230024Y-149707595D01*
X138052154Y-149558343D01*
X137848682Y-149446484D01*
X137626934Y-149376141D01*
X137435306Y-149356000D01*
X137321631Y-149356000D01*
X137148915Y-149372935D01*
X136926632Y-149440047D01*
X136721617Y-149549055D01*
X136541681Y-149695807D01*
X136393674Y-149874715D01*
X136283238Y-150078964D01*
X136214577Y-150300773D01*
X136190306Y-150531694D01*
X130641837Y-150531694D01*
X130641837Y-149943412D01*
X130561205Y-149642489D01*
X130413815Y-149466835D01*
X130220186Y-149355044D01*
X130011024Y-149318163D01*
X129378000Y-149318163D01*
X129122000Y-149318163D01*
X128483412Y-149318163D01*
X128182489Y-149398795D01*
X128006835Y-149546185D01*
X127895044Y-149739814D01*
X127858163Y-149948976D01*
X122141837Y-149948976D01*
X122141837Y-149943412D01*
X122061205Y-149642489D01*
X121913815Y-149466835D01*
X121720186Y-149355044D01*
X121511024Y-149318163D01*
X120878000Y-149318163D01*
X120622000Y-149318163D01*
X119983412Y-149318163D01*
X119682489Y-149398795D01*
X119506835Y-149546185D01*
X119395044Y-149739814D01*
X119358163Y-149948976D01*
X119331894Y-149948976D01*
X119334130Y-149788908D01*
X119292675Y-149366113D01*
X119210331Y-148950246D01*
X119087799Y-148544401D01*
X118926247Y-148152448D01*
X118840773Y-147991694D01*
X136190306Y-147991694D01*
X136211350Y-148222932D01*
X136276908Y-148445678D01*
X136384482Y-148651449D01*
X136529976Y-148832405D01*
X136707846Y-148981657D01*
X136911318Y-149093516D01*
X137133066Y-149163859D01*
X137324694Y-149184000D01*
X137438369Y-149184000D01*
X137611085Y-149167065D01*
X137833368Y-149099953D01*
X138038383Y-148990945D01*
X138218319Y-148844193D01*
X138366326Y-148665285D01*
X138476762Y-148461036D01*
X138545423Y-148239227D01*
X138569694Y-148008306D01*
X138568183Y-147991694D01*
X138730306Y-147991694D01*
X138751350Y-148222932D01*
X138816908Y-148445678D01*
X138924482Y-148651449D01*
X139069976Y-148832405D01*
X139247846Y-148981657D01*
X139451318Y-149093516D01*
X139673066Y-149163859D01*
X139864694Y-149184000D01*
X139978369Y-149184000D01*
X140151085Y-149167065D01*
X140373368Y-149099953D01*
X140578383Y-148990945D01*
X140758319Y-148844193D01*
X140906326Y-148665285D01*
X141016762Y-148461036D01*
X141085423Y-148239227D01*
X141109694Y-148008306D01*
X141108183Y-147991694D01*
X141270306Y-147991694D01*
X141291350Y-148222932D01*
X141356908Y-148445678D01*
X141464482Y-148651449D01*
X141609976Y-148832405D01*
X141787846Y-148981657D01*
X141991318Y-149093516D01*
X142213066Y-149163859D01*
X142404694Y-149184000D01*
X142518369Y-149184000D01*
X142691085Y-149167065D01*
X142913368Y-149099953D01*
X143118383Y-148990945D01*
X143298319Y-148844193D01*
X143446326Y-148665285D01*
X143508163Y-148550919D01*
X143508163Y-148866588D01*
X143588795Y-149167512D01*
X143736185Y-149343165D01*
X143929814Y-149454956D01*
X143978446Y-149463531D01*
X143884534Y-149553119D01*
X143734203Y-149755172D01*
X143620064Y-149979666D01*
X143573491Y-150129655D01*
X143563092Y-150094322D01*
X143455518Y-149888551D01*
X143310024Y-149707595D01*
X143132154Y-149558343D01*
X142928682Y-149446484D01*
X142706934Y-149376141D01*
X142515306Y-149356000D01*
X142401631Y-149356000D01*
X142228915Y-149372935D01*
X142006632Y-149440047D01*
X141801617Y-149549055D01*
X141621681Y-149695807D01*
X141473674Y-149874715D01*
X141363238Y-150078964D01*
X141294577Y-150300773D01*
X141270306Y-150531694D01*
X141291350Y-150762932D01*
X141356908Y-150985678D01*
X141464482Y-151191449D01*
X141609976Y-151372405D01*
X141787846Y-151521657D01*
X141991318Y-151633516D01*
X142001000Y-151636587D01*
X142001000Y-151730089D01*
X141996159Y-151822459D01*
X142016185Y-151861760D01*
X142031314Y-151932942D01*
X142146008Y-152090804D01*
X142178171Y-152109374D01*
X142259852Y-152191055D01*
X142321768Y-152259821D01*
X142363726Y-152273454D01*
X142424753Y-152313086D01*
X142501047Y-152325170D01*
X143416952Y-153241076D01*
X143478850Y-153309822D01*
X143520805Y-153323453D01*
X143581834Y-153363086D01*
X143774558Y-153393609D01*
X143810421Y-153384000D01*
X146738008Y-153384000D01*
X146830377Y-153388841D01*
X146869678Y-153368816D01*
X146940863Y-153353685D01*
X147098723Y-153238992D01*
X147117293Y-153206829D01*
X148341065Y-151983058D01*
X148409822Y-151921150D01*
X148423453Y-151879195D01*
X148463086Y-151818166D01*
X148493609Y-151625442D01*
X148484000Y-151589579D01*
X148484000Y-149948976D01*
X149108163Y-149948976D01*
X149108163Y-152372000D01*
X150372000Y-152372000D01*
X150372000Y-149318163D01*
X150628000Y-149318163D01*
X150628000Y-152372000D01*
X151891837Y-152372000D01*
X151891837Y-149948976D01*
X157608163Y-149948976D01*
X157608163Y-152372000D01*
X158872000Y-152372000D01*
X158872000Y-149318163D01*
X159128000Y-149318163D01*
X159128000Y-152372000D01*
X160391837Y-152372000D01*
X160391837Y-150151437D01*
X161663418Y-150151437D01*
X161698894Y-150573890D01*
X161775422Y-150990866D01*
X161892277Y-151398383D01*
X162048339Y-151792553D01*
X162242121Y-152169612D01*
X162471773Y-152525962D01*
X162735103Y-152858202D01*
X162845972Y-152973007D01*
X165818981Y-150000000D01*
X166181019Y-150000000D01*
X169156748Y-152975728D01*
X169419356Y-152671493D01*
X169663729Y-152325073D01*
X169873130Y-151956458D01*
X170045562Y-151569170D01*
X170179379Y-151166903D01*
X170273302Y-150753499D01*
X170326546Y-150332026D01*
X170334130Y-149788908D01*
X170292675Y-149366113D01*
X170210331Y-148950246D01*
X170087799Y-148544401D01*
X169926247Y-148152448D01*
X169727220Y-147778132D01*
X169492615Y-147425022D01*
X169161717Y-147019303D01*
X166181019Y-150000000D01*
X165818981Y-150000000D01*
X162841071Y-147022091D01*
X162543678Y-147376508D01*
X162304165Y-147726308D01*
X162099931Y-148097809D01*
X161932923Y-148487468D01*
X161804737Y-148891563D01*
X161716594Y-149306240D01*
X161669338Y-149727538D01*
X161663418Y-150151437D01*
X160391837Y-150151437D01*
X160391837Y-149943412D01*
X160311205Y-149642489D01*
X160163815Y-149466835D01*
X159970186Y-149355044D01*
X159761024Y-149318163D01*
X159128000Y-149318163D01*
X158872000Y-149318163D01*
X158233412Y-149318163D01*
X157932489Y-149398795D01*
X157756835Y-149546185D01*
X157645044Y-149739814D01*
X157608163Y-149948976D01*
X151891837Y-149948976D01*
X151891837Y-149943412D01*
X151811205Y-149642489D01*
X151663815Y-149466835D01*
X151470186Y-149355044D01*
X151261024Y-149318163D01*
X150628000Y-149318163D01*
X150372000Y-149318163D01*
X149733412Y-149318163D01*
X149432489Y-149398795D01*
X149256835Y-149546185D01*
X149145044Y-149739814D01*
X149108163Y-149948976D01*
X148484000Y-149948976D01*
X148484000Y-147415122D01*
X149062462Y-146836660D01*
X163017680Y-146836660D01*
X166000000Y-149818981D01*
X168979228Y-146839752D01*
X168599298Y-146525446D01*
X168247835Y-146288382D01*
X167874917Y-146086746D01*
X167484102Y-145922462D01*
X167079121Y-145797100D01*
X166663840Y-145711855D01*
X166242222Y-145667541D01*
X165818292Y-145664582D01*
X165396096Y-145703004D01*
X164979666Y-145782443D01*
X164572973Y-145902138D01*
X164179903Y-146060949D01*
X163804205Y-146257359D01*
X163449467Y-146489494D01*
X163017680Y-146836660D01*
X149062462Y-146836660D01*
X149440124Y-146458999D01*
X149641254Y-146458999D01*
X149862383Y-146387150D01*
X150050485Y-146250485D01*
X150187150Y-146062383D01*
X150258999Y-145841254D01*
X150258999Y-145608746D01*
X150187150Y-145387617D01*
X150050485Y-145199515D01*
X149862383Y-145062850D01*
X149641254Y-144991001D01*
X149408746Y-144991001D01*
X149187617Y-145062850D01*
X148999515Y-145199515D01*
X148862850Y-145387617D01*
X148791001Y-145608746D01*
X148791001Y-145809876D01*
X147708947Y-146891931D01*
X147640178Y-146953852D01*
X147626547Y-146995806D01*
X147586914Y-147056835D01*
X147556391Y-147249558D01*
X147566000Y-147285421D01*
X147566001Y-151459876D01*
X146559878Y-152466000D01*
X143940124Y-152466000D01*
X143044404Y-151570281D01*
X143118383Y-151530945D01*
X143298319Y-151384193D01*
X143446326Y-151205285D01*
X143556762Y-151001036D01*
X143570845Y-150955540D01*
X143573456Y-150967983D01*
X143665961Y-151202222D01*
X143796610Y-151417526D01*
X143961669Y-151607739D01*
X144156416Y-151767422D01*
X144375284Y-151892009D01*
X144614831Y-151978960D01*
X144872000Y-152013047D01*
X144872000Y-150668000D01*
X145128000Y-150668000D01*
X145128000Y-152039978D01*
X145494708Y-151944800D01*
X145724329Y-151841363D01*
X145933240Y-151700716D01*
X146115466Y-151526881D01*
X146265797Y-151324828D01*
X146379936Y-151100334D01*
X146454618Y-150859819D01*
X146480043Y-150668000D01*
X145128000Y-150668000D01*
X144872000Y-150668000D01*
X144872000Y-150412000D01*
X146489487Y-150412000D01*
X146426544Y-150112017D01*
X146334039Y-149877778D01*
X146203390Y-149662474D01*
X146038331Y-149472261D01*
X146014025Y-149452331D01*
X146167512Y-149411205D01*
X146343165Y-149263815D01*
X146454956Y-149070186D01*
X146491837Y-148861024D01*
X146491837Y-148128000D01*
X144872000Y-148128000D01*
X144872000Y-146508163D01*
X145128000Y-146508163D01*
X145128000Y-147872000D01*
X146491837Y-147872000D01*
X146491837Y-147133412D01*
X146411205Y-146832489D01*
X146263815Y-146656835D01*
X146070186Y-146545044D01*
X145861024Y-146508163D01*
X145128000Y-146508163D01*
X144872000Y-146508163D01*
X144133412Y-146508163D01*
X143832489Y-146588795D01*
X143656835Y-146736185D01*
X143545044Y-146929814D01*
X143508163Y-147138976D01*
X143508163Y-147449252D01*
X143455518Y-147348551D01*
X143310024Y-147167595D01*
X143132154Y-147018343D01*
X142928682Y-146906484D01*
X142706934Y-146836141D01*
X142515306Y-146816000D01*
X142401631Y-146816000D01*
X142228915Y-146832935D01*
X142006632Y-146900047D01*
X141801617Y-147009055D01*
X141621681Y-147155807D01*
X141473674Y-147334715D01*
X141363238Y-147538964D01*
X141294577Y-147760773D01*
X141270306Y-147991694D01*
X141108183Y-147991694D01*
X141088650Y-147777068D01*
X141023092Y-147554322D01*
X140915518Y-147348551D01*
X140770024Y-147167595D01*
X140592154Y-147018343D01*
X140388682Y-146906484D01*
X140166934Y-146836141D01*
X139975306Y-146816000D01*
X139861631Y-146816000D01*
X139688915Y-146832935D01*
X139466632Y-146900047D01*
X139261617Y-147009055D01*
X139081681Y-147155807D01*
X138933674Y-147334715D01*
X138823238Y-147538964D01*
X138754577Y-147760773D01*
X138730306Y-147991694D01*
X138568183Y-147991694D01*
X138548650Y-147777068D01*
X138483092Y-147554322D01*
X138375518Y-147348551D01*
X138230024Y-147167595D01*
X138052154Y-147018343D01*
X137848682Y-146906484D01*
X137626934Y-146836141D01*
X137435306Y-146816000D01*
X137321631Y-146816000D01*
X137148915Y-146832935D01*
X136926632Y-146900047D01*
X136721617Y-147009055D01*
X136541681Y-147155807D01*
X136393674Y-147334715D01*
X136283238Y-147538964D01*
X136214577Y-147760773D01*
X136190306Y-147991694D01*
X118840773Y-147991694D01*
X118727220Y-147778132D01*
X118492615Y-147425022D01*
X118161717Y-147019303D01*
X115181019Y-150000000D01*
X114818981Y-150000000D01*
X111841071Y-147022091D01*
X111543678Y-147376508D01*
X111304165Y-147726308D01*
X111099931Y-148097809D01*
X110932923Y-148487468D01*
X110804737Y-148891563D01*
X110716594Y-149306240D01*
X110669338Y-149727538D01*
X110663418Y-150151437D01*
X110334000Y-150151437D01*
X110334000Y-146836660D01*
X112017680Y-146836660D01*
X115000000Y-149818981D01*
X117979228Y-146839752D01*
X117599298Y-146525446D01*
X117247835Y-146288382D01*
X116874917Y-146086746D01*
X116484102Y-145922462D01*
X116079121Y-145797100D01*
X115663840Y-145711855D01*
X115242222Y-145667541D01*
X114818292Y-145664582D01*
X114396096Y-145703004D01*
X113979666Y-145782443D01*
X113572973Y-145902138D01*
X113179903Y-146060949D01*
X112804205Y-146257359D01*
X112449467Y-146489494D01*
X112017680Y-146836660D01*
X110334000Y-146836660D01*
X110334000Y-133883746D01*
X139266001Y-133883746D01*
X139266001Y-134116254D01*
X139337850Y-134337383D01*
X139474515Y-134525485D01*
X139662617Y-134662150D01*
X139766001Y-134695741D01*
X139766001Y-134804259D01*
X139662617Y-134837850D01*
X139474515Y-134974515D01*
X139337850Y-135162617D01*
X139266001Y-135383746D01*
X139266001Y-135616254D01*
X139337850Y-135837383D01*
X139474515Y-136025485D01*
X139662617Y-136162150D01*
X139766001Y-136195741D01*
X139766001Y-136366254D01*
X139837850Y-136587383D01*
X139974515Y-136775485D01*
X140162617Y-136912150D01*
X140383746Y-136983999D01*
X140616254Y-136983999D01*
X140837383Y-136912150D01*
X141000000Y-136794001D01*
X141162617Y-136912150D01*
X141383746Y-136983999D01*
X141616254Y-136983999D01*
X141837383Y-136912150D01*
X142025485Y-136775485D01*
X142162150Y-136587383D01*
X142233999Y-136366254D01*
X142233999Y-136133746D01*
X142162150Y-135912617D01*
X142025485Y-135724515D01*
X141837383Y-135587850D01*
X141733999Y-135554259D01*
X141733999Y-135445741D01*
X141837383Y-135412150D01*
X142025485Y-135275485D01*
X142162150Y-135087383D01*
X142233999Y-134866254D01*
X142233999Y-134695741D01*
X142337383Y-134662150D01*
X142525485Y-134525485D01*
X142662150Y-134337383D01*
X142733999Y-134116254D01*
X142733999Y-133883746D01*
X142662150Y-133662617D01*
X142525485Y-133474515D01*
X142337383Y-133337850D01*
X142233999Y-133304259D01*
X142233999Y-133133746D01*
X142162150Y-132912617D01*
X142025485Y-132724515D01*
X141837383Y-132587850D01*
X141616254Y-132516001D01*
X141383746Y-132516001D01*
X141162617Y-132587850D01*
X141000000Y-132705999D01*
X140837383Y-132587850D01*
X140616254Y-132516001D01*
X140383746Y-132516001D01*
X140162617Y-132587850D01*
X139974515Y-132724515D01*
X139837850Y-132912617D01*
X139766001Y-133133746D01*
X139766001Y-133304259D01*
X139662617Y-133337850D01*
X139474515Y-133474515D01*
X139337850Y-133662617D01*
X139266001Y-133883746D01*
X110334000Y-133883746D01*
X110334000Y-115157763D01*
X112023257Y-115157763D01*
X112352443Y-115437923D01*
X112700561Y-115679871D01*
X113070628Y-115886695D01*
X113459111Y-116056419D01*
X113862303Y-116187423D01*
X114276353Y-116278458D01*
X114697311Y-116328654D01*
X115121158Y-116337532D01*
X115543849Y-116305009D01*
X115961348Y-116231392D01*
X116369672Y-116117386D01*
X116764922Y-115964079D01*
X117143325Y-115772933D01*
X117501269Y-115545775D01*
X117835338Y-115284772D01*
X117968710Y-115157763D01*
X163023257Y-115157763D01*
X163352443Y-115437923D01*
X163700561Y-115679871D01*
X164070628Y-115886695D01*
X164459111Y-116056419D01*
X164862303Y-116187423D01*
X165276353Y-116278458D01*
X165697311Y-116328654D01*
X166121158Y-116337532D01*
X166543849Y-116305009D01*
X166961348Y-116231392D01*
X167369672Y-116117386D01*
X167764922Y-115964079D01*
X168143325Y-115772933D01*
X168501269Y-115545775D01*
X168835338Y-115284772D01*
X168972825Y-115153845D01*
X166000000Y-112181019D01*
X163023257Y-115157763D01*
X117968710Y-115157763D01*
X117972825Y-115153845D01*
X115000000Y-112181019D01*
X112023257Y-115157763D01*
X110334000Y-115157763D01*
X110334000Y-112151437D01*
X110663418Y-112151437D01*
X110698894Y-112573890D01*
X110775422Y-112990866D01*
X110892277Y-113398383D01*
X111048339Y-113792553D01*
X111242121Y-114169612D01*
X111471773Y-114525962D01*
X111735103Y-114858202D01*
X111845972Y-114973007D01*
X114818981Y-112000000D01*
X115181019Y-112000000D01*
X118156748Y-114975728D01*
X118419356Y-114671493D01*
X118663729Y-114325073D01*
X118873130Y-113956458D01*
X119045562Y-113569170D01*
X119179379Y-113166903D01*
X119273302Y-112753499D01*
X119326546Y-112332026D01*
X119329067Y-112151437D01*
X161663418Y-112151437D01*
X161698894Y-112573890D01*
X161775422Y-112990866D01*
X161892277Y-113398383D01*
X162048339Y-113792553D01*
X162242121Y-114169612D01*
X162471773Y-114525962D01*
X162735103Y-114858202D01*
X162845972Y-114973007D01*
X165818981Y-112000000D01*
X166181019Y-112000000D01*
X169156748Y-114975728D01*
X169419356Y-114671493D01*
X169663729Y-114325073D01*
X169873130Y-113956458D01*
X170045562Y-113569170D01*
X170179379Y-113166903D01*
X170273302Y-112753499D01*
X170326546Y-112332026D01*
X170334130Y-111788908D01*
X170292675Y-111366113D01*
X170210331Y-110950246D01*
X170087799Y-110544401D01*
X169926247Y-110152448D01*
X169727220Y-109778132D01*
X169492615Y-109425022D01*
X169161717Y-109019303D01*
X166181019Y-112000000D01*
X165818981Y-112000000D01*
X162841071Y-109022091D01*
X162543678Y-109376508D01*
X162304165Y-109726308D01*
X162099931Y-110097809D01*
X161932923Y-110487468D01*
X161804737Y-110891563D01*
X161716594Y-111306240D01*
X161669338Y-111727538D01*
X161663418Y-112151437D01*
X119329067Y-112151437D01*
X119334130Y-111788908D01*
X119292675Y-111366113D01*
X119210331Y-110950246D01*
X119087799Y-110544401D01*
X118926247Y-110152448D01*
X118727220Y-109778132D01*
X118492615Y-109425022D01*
X118161717Y-109019303D01*
X115181019Y-112000000D01*
X114818981Y-112000000D01*
X111841071Y-109022091D01*
X111543678Y-109376508D01*
X111304165Y-109726308D01*
X111099931Y-110097809D01*
X110932923Y-110487468D01*
X110804737Y-110891563D01*
X110716594Y-111306240D01*
X110669338Y-111727538D01*
X110663418Y-112151437D01*
X110334000Y-112151437D01*
X110334000Y-108836660D01*
X112017680Y-108836660D01*
X115000000Y-111818981D01*
X117979228Y-108839752D01*
X117975491Y-108836660D01*
X163017680Y-108836660D01*
X166000000Y-111818981D01*
X168979228Y-108839752D01*
X168599298Y-108525446D01*
X168247835Y-108288382D01*
X167874917Y-108086746D01*
X167484102Y-107922462D01*
X167079121Y-107797100D01*
X166663840Y-107711855D01*
X166242222Y-107667541D01*
X165818292Y-107664582D01*
X165396096Y-107703004D01*
X164979666Y-107782443D01*
X164572973Y-107902138D01*
X164179903Y-108060949D01*
X163804205Y-108257359D01*
X163449467Y-108489494D01*
X163017680Y-108836660D01*
X117975491Y-108836660D01*
X117599298Y-108525446D01*
X117247835Y-108288382D01*
X116874917Y-108086746D01*
X116484102Y-107922462D01*
X116079121Y-107797100D01*
X115663840Y-107711855D01*
X115242222Y-107667541D01*
X114818292Y-107664582D01*
X114396096Y-107703004D01*
X113979666Y-107782443D01*
X113572973Y-107902138D01*
X113179903Y-108060949D01*
X112804205Y-108257359D01*
X112449467Y-108489494D01*
X112017680Y-108836660D01*
X110334000Y-108836660D01*
X110334000Y-107334000D01*
X170666000Y-107334000D01*
X170666001Y-154666000D01*
M02*
