M48
; DRILL file {KiCad (5.99.0-221-ga18d3cc)} date Wed 20 Nov 2019 11:39:01 AM MST
; FORMAT={-:-/ absolute / inch / decimal}
; #@! TF.CreationDate,2019-11-20T11:39:01-07:00
; #@! TF.GenerationSoftware,Kicad,Pcbnew,(5.99.0-221-ga18d3cc)
; #@! TF.FileFunction,Plated,1,4,PTH
FMAT,2
INCH
T1C0.0157
T2C0.0197
T3C0.0394
T4C0.1457
%
G90
G05
T1
X4.685Y-5.9449
X4.685Y-6.0236
X4.7244Y-4.7638
X4.7244Y-5.5512
X4.7244Y-5.6299
X4.7244Y-5.7087
X4.7244Y-5.7874
X4.7244Y-5.8661
X4.7539Y-5.4429
X4.7638Y-4.7638
X4.7638Y-5.3543
X4.7933Y-5.4429
X4.8031Y-4.3701
X4.8031Y-4.4488
X4.8031Y-4.5276
X4.8031Y-4.6063
X4.8031Y-4.685
X4.8031Y-4.7638
X4.8031Y-4.8425
X4.8031Y-4.9213
X4.8031Y-5.0
X4.8031Y-5.0787
X4.8031Y-5.1575
X4.8031Y-5.2362
X4.8031Y-5.315
X4.8327Y-5.4429
X4.8819Y-4.3701
X4.9606Y-4.3701
X5.0394Y-4.3701
X5.1181Y-4.3701
X5.1575Y-5.8661
X5.1575Y-5.9449
X5.1575Y-6.0236
X5.1969Y-4.3701
X5.1969Y-4.4094
X5.1969Y-5.8268
X5.2165Y-4.3307
X5.2264Y-4.5965
X5.2264Y-4.6358
X5.2264Y-4.6752
X5.2362Y-4.3799
X5.2362Y-4.4193
X5.2362Y-5.7874
X5.2559Y-4.3012
X5.2559Y-4.3406
X5.2559Y-4.4587
X5.2559Y-4.5571
X5.2657Y-4.6752
X5.2756Y-4.3799
X5.2756Y-4.4193
X5.2756Y-5.7874
X5.2953Y-4.3307
X5.3051Y-4.6752
X5.315Y-4.3701
X5.315Y-4.4094
X5.3937Y-4.3701
X5.4724Y-4.3701
X5.5118Y-5.2756
X5.5118Y-5.3346
X5.5118Y-5.6004
X5.5315Y-5.2461
X5.5315Y-5.3051
X5.5315Y-5.3642
X5.5512Y-4.3701
X5.5512Y-5.2756
X5.5512Y-5.3346
X5.5512Y-5.6004
X5.5709Y-5.2461
X5.5709Y-5.3051
X5.5709Y-5.3642
X5.5906Y-5.2756
X5.5906Y-5.6004
X5.6299Y-4.3701
X5.6299Y-5.6004
X5.6594Y-5.1181
X5.6594Y-5.1772
X5.6594Y-5.2362
X5.6693Y-5.6004
X5.6791Y-5.1476
X5.6791Y-5.2067
X5.689Y-4.6457
X5.6988Y-5.1181
X5.6988Y-5.1772
X5.6988Y-5.2362
X5.7087Y-4.3701
X5.7087Y-4.6161
X5.7087Y-5.6004
X5.7185Y-5.1476
X5.7185Y-5.2067
X5.7283Y-4.6457
X5.7382Y-5.1181
X5.7382Y-5.1772
X5.7382Y-5.2362
X5.748Y-4.6161
X5.748Y-5.6004
X5.7579Y-5.1476
X5.7579Y-5.2067
X5.7677Y-4.6457
X5.7776Y-5.1181
X5.7776Y-5.1772
X5.7776Y-5.2362
X5.7874Y-4.3701
X5.7874Y-4.6161
X5.7874Y-5.6004
X5.7972Y-5.1476
X5.7972Y-5.2067
X5.8071Y-4.6457
X5.8169Y-5.1181
X5.8169Y-5.1772
X5.8169Y-5.2362
X5.8366Y-5.1476
X5.8366Y-5.2067
X5.8563Y-5.1181
X5.8563Y-5.1772
X5.8563Y-5.2362
X5.8652Y-5.8652
X5.8661Y-4.3701
X5.8661Y-5.9449
X5.8661Y-6.0236
X5.8661Y-6.063
X5.876Y-5.1476
X5.876Y-5.2067
X5.8868Y-5.7372
X5.8957Y-5.1181
X5.8957Y-5.1772
X5.8957Y-5.2362
X5.9154Y-5.1476
X5.9154Y-5.2067
X5.935Y-5.1181
X5.935Y-5.1772
X5.935Y-5.2362
X5.9449Y-4.3701
X5.9547Y-5.1476
X5.9547Y-5.2067
X5.9744Y-5.1772
X5.9744Y-5.2362
X5.9941Y-5.1476
X5.9941Y-5.2067
X6.0138Y-5.1772
X6.0236Y-4.4488
X6.0866Y-5.1614
X6.0866Y-5.1969
X6.1024Y-4.5276
X6.122Y-5.1614
X6.122Y-5.1969
X6.1811Y-4.6063
X6.2008Y-5.1772
X6.2205Y-5.1476
X6.2205Y-5.2067
X6.2402Y-5.1181
X6.2402Y-5.1772
X6.2402Y-5.2362
X6.2598Y-4.685
X6.2598Y-4.7638
X6.2598Y-4.8425
X6.2598Y-4.9213
X6.2598Y-5.0
X6.2598Y-5.0787
X6.2598Y-5.1476
X6.2598Y-5.2067
X6.2598Y-5.8661
X6.2795Y-5.1181
X6.2795Y-5.1772
X6.2795Y-5.2362
X6.2992Y-5.1476
X6.2992Y-5.2067
X6.2992Y-5.315
X6.2992Y-5.3937
X6.2992Y-5.4724
X6.2992Y-5.5512
X6.2992Y-5.6299
X6.2992Y-5.7087
X6.2992Y-5.7874
X6.3189Y-5.1181
X6.3189Y-5.1772
X6.3189Y-5.2362
X6.3386Y-5.1476
X6.3386Y-5.2067
X6.3386Y-5.9055
X6.3386Y-5.9843
X6.3386Y-6.063
X6.3583Y-5.1181
X6.3583Y-5.1772
X6.3583Y-5.2362
X6.378Y-5.1476
X6.378Y-5.2067
X6.3976Y-5.1181
X6.3976Y-5.1772
X6.3976Y-5.2362
X6.4173Y-5.1476
X6.4173Y-5.2067
X6.437Y-5.1181
X6.437Y-5.1772
X6.437Y-5.2362
X6.4567Y-5.1476
X6.4567Y-5.2067
X6.4764Y-5.1181
X6.4764Y-5.1772
X6.4764Y-5.2362
X6.4961Y-5.1476
X6.4961Y-5.2067
X6.5157Y-5.1181
X6.5157Y-5.1772
X6.5157Y-5.2362
T2
X6.4262Y-4.4094
X6.4582Y-4.3322
X6.4582Y-4.4867
X6.5354Y-4.3002
X6.5354Y-4.5187
X6.6127Y-4.3322
X6.6127Y-4.4867
X6.6447Y-4.4094
X4.4183Y-5.9055
X4.4503Y-5.8283
X4.4503Y-5.9828
X4.5276Y-5.7963
X4.5276Y-6.0148
X4.6048Y-5.8283
X4.6048Y-5.9828
X4.6368Y-5.9055
X4.4183Y-4.4094
X4.4503Y-4.3322
X4.4503Y-4.4867
X4.5276Y-4.3002
X4.5276Y-4.5187
X4.6048Y-4.3322
X4.6048Y-4.4867
X4.6368Y-4.4094
X6.4262Y-5.9055
X6.4582Y-5.8283
X6.4582Y-5.9828
X6.5354Y-5.7963
X6.5354Y-6.0148
X6.6127Y-5.8283
X6.6127Y-5.9828
X6.6447Y-5.9055
T3
X5.4087Y-5.8268
X5.4087Y-5.9268
X5.5087Y-5.8268
X5.5087Y-5.9268
X5.6087Y-5.8268
X5.6087Y-5.9268
X5.7087Y-5.8268
X5.7087Y-5.9268
T4
X6.5354Y-5.9055
X6.5354Y-4.4094
X4.5276Y-5.9055
X4.5276Y-4.4094
T0
M30
