G04 #@! TF.GenerationSoftware,KiCad,Pcbnew,(5.99.0-221-ga18d3cc)*
G04 #@! TF.CreationDate,2019-11-20T11:38:58-07:00*
G04 #@! TF.ProjectId,av3-top,6176332d-746f-4702-9e6b-696361645f70,rev?*
G04 #@! TF.SameCoordinates,Original*
G04 #@! TF.FileFunction,Copper,L1,Top*
G04 #@! TF.FilePolarity,Positive*
%FSLAX46Y46*%
G04 Gerber Fmt 4.6, Leading zero omitted, Abs format (unit mm)*
G04 Created by KiCad (PCBNEW (5.99.0-221-ga18d3cc)) date 2019-11-20 11:38:58*
%MOMM*%
%LPD*%
G04 APERTURE LIST*
%ADD10C,0.150000*%
%ADD11O,1.700000X1.700000*%
%ADD12R,1.700000X1.700000*%
%ADD13C,0.800000*%
%ADD14C,7.400000*%
%ADD15C,0.100000*%
%ADD16C,0.950000*%
%ADD17C,0.875000*%
%ADD18C,1.150000*%
%ADD19C,1.250000*%
%ADD20C,0.975000*%
%ADD21R,1.500000X5.080000*%
%ADD22O,0.750000X0.300000*%
%ADD23O,0.300000X0.750000*%
%ADD24C,1.000000*%
%ADD25R,2.200000X1.840000*%
%ADD26R,1.000000X1.500000*%
%ADD27R,1.000000X1.800000*%
%ADD28C,0.850000*%
%ADD29R,1.840000X2.200000*%
%ADD30R,1.500000X1.000000*%
%ADD31R,1.800000X1.000000*%
%ADD32C,0.250000*%
%ADD33C,0.380600*%
%ADD34C,0.800000*%
%ADD35C,1.000000*%
%ADD36C,0.254000*%
G04 APERTURE END LIST*
D10*
X114592380Y-138773809D02*
X114592380Y-138583333D01*
X114544761Y-138488095D01*
X114497142Y-138440476D01*
X114354285Y-138345238D01*
X114163809Y-138297619D01*
X113782857Y-138297619D01*
X113687619Y-138345238D01*
X113640000Y-138392857D01*
X113592380Y-138488095D01*
X113592380Y-138678571D01*
X113640000Y-138773809D01*
X113687619Y-138821428D01*
X113782857Y-138869047D01*
X114020952Y-138869047D01*
X114116190Y-138821428D01*
X114163809Y-138773809D01*
X114211428Y-138678571D01*
X114211428Y-138488095D01*
X114163809Y-138392857D01*
X114116190Y-138345238D01*
X114020952Y-138297619D01*
X114544761Y-137440476D02*
X114592380Y-137535714D01*
X114592380Y-137726190D01*
X114544761Y-137821428D01*
X114497142Y-137869047D01*
X114401904Y-137916666D01*
X114116190Y-137916666D01*
X114020952Y-137869047D01*
X113973333Y-137821428D01*
X113925714Y-137726190D01*
X113925714Y-137535714D01*
X113973333Y-137440476D01*
X114592380Y-137011904D02*
X113925714Y-137011904D01*
X114020952Y-137011904D02*
X113973333Y-136964285D01*
X113925714Y-136869047D01*
X113925714Y-136726190D01*
X113973333Y-136630952D01*
X114068571Y-136583333D01*
X114592380Y-136583333D01*
X114068571Y-136583333D02*
X113973333Y-136535714D01*
X113925714Y-136440476D01*
X113925714Y-136297619D01*
X113973333Y-136202380D01*
X114068571Y-136154761D01*
X114592380Y-136154761D01*
X114592380Y-134916666D02*
X113592380Y-134916666D01*
X113592380Y-134678571D01*
X113640000Y-134535714D01*
X113735238Y-134440476D01*
X113830476Y-134392857D01*
X114020952Y-134345238D01*
X114163809Y-134345238D01*
X114354285Y-134392857D01*
X114449523Y-134440476D01*
X114544761Y-134535714D01*
X114592380Y-134678571D01*
X114592380Y-134916666D01*
X113592380Y-134059523D02*
X114592380Y-133726190D01*
X113592380Y-133392857D01*
X114068571Y-132726190D02*
X114116190Y-132583333D01*
X114163809Y-132535714D01*
X114259047Y-132488095D01*
X114401904Y-132488095D01*
X114497142Y-132535714D01*
X114544761Y-132583333D01*
X114592380Y-132678571D01*
X114592380Y-133059523D01*
X113592380Y-133059523D01*
X113592380Y-132726190D01*
X113640000Y-132630952D01*
X113687619Y-132583333D01*
X113782857Y-132535714D01*
X113878095Y-132535714D01*
X113973333Y-132583333D01*
X114020952Y-132630952D01*
X114068571Y-132726190D01*
X114068571Y-133059523D01*
X114306666Y-131345238D02*
X114306666Y-130869047D01*
X114592380Y-131440476D02*
X113592380Y-131107142D01*
X114592380Y-130773809D01*
X114592380Y-130440476D02*
X113925714Y-130440476D01*
X114020952Y-130440476D02*
X113973333Y-130392857D01*
X113925714Y-130297619D01*
X113925714Y-130154761D01*
X113973333Y-130059523D01*
X114068571Y-130011904D01*
X114592380Y-130011904D01*
X114068571Y-130011904D02*
X113973333Y-129964285D01*
X113925714Y-129869047D01*
X113925714Y-129726190D01*
X113973333Y-129630952D01*
X114068571Y-129583333D01*
X114592380Y-129583333D01*
X113925714Y-129107142D02*
X114925714Y-129107142D01*
X113973333Y-129107142D02*
X113925714Y-129011904D01*
X113925714Y-128821428D01*
X113973333Y-128726190D01*
X114020952Y-128678571D01*
X114116190Y-128630952D01*
X114401904Y-128630952D01*
X114497142Y-128678571D01*
X114544761Y-128726190D01*
X114592380Y-128821428D01*
X114592380Y-129011904D01*
X114544761Y-129107142D01*
X114592380Y-128059523D02*
X114544761Y-128154761D01*
X114449523Y-128202380D01*
X113592380Y-128202380D01*
X114592380Y-127678571D02*
X113925714Y-127678571D01*
X113592380Y-127678571D02*
X113640000Y-127726190D01*
X113687619Y-127678571D01*
X113640000Y-127630952D01*
X113592380Y-127678571D01*
X113687619Y-127678571D01*
X113925714Y-127345238D02*
X113925714Y-126964285D01*
X114592380Y-127202380D02*
X113735238Y-127202380D01*
X113640000Y-127154761D01*
X113592380Y-127059523D01*
X113592380Y-126964285D01*
X114592380Y-126630952D02*
X113925714Y-126630952D01*
X113592380Y-126630952D02*
X113640000Y-126678571D01*
X113687619Y-126630952D01*
X113640000Y-126583333D01*
X113592380Y-126630952D01*
X113687619Y-126630952D01*
X114544761Y-125773809D02*
X114592380Y-125869047D01*
X114592380Y-126059523D01*
X114544761Y-126154761D01*
X114449523Y-126202380D01*
X114068571Y-126202380D01*
X113973333Y-126154761D01*
X113925714Y-126059523D01*
X113925714Y-125869047D01*
X113973333Y-125773809D01*
X114068571Y-125726190D01*
X114163809Y-125726190D01*
X114259047Y-126202380D01*
X114592380Y-125297619D02*
X113925714Y-125297619D01*
X114116190Y-125297619D02*
X114020952Y-125250000D01*
X113973333Y-125202380D01*
X113925714Y-125107142D01*
X113925714Y-125011904D01*
X113925714Y-124011904D02*
X114592380Y-123773809D01*
X113925714Y-123535714D01*
X114592380Y-122630952D02*
X114592380Y-123202380D01*
X114592380Y-122916666D02*
X113592380Y-122916666D01*
X113735238Y-123011904D01*
X113830476Y-123107142D01*
X113878095Y-123202380D01*
X116107142Y-138940476D02*
X116154761Y-138988095D01*
X116202380Y-139130952D01*
X116202380Y-139226190D01*
X116154761Y-139369047D01*
X116059523Y-139464285D01*
X115964285Y-139511904D01*
X115773809Y-139559523D01*
X115630952Y-139559523D01*
X115440476Y-139511904D01*
X115345238Y-139464285D01*
X115250000Y-139369047D01*
X115202380Y-139226190D01*
X115202380Y-139130952D01*
X115250000Y-138988095D01*
X115297619Y-138940476D01*
X115202380Y-138511904D02*
X116011904Y-138511904D01*
X116107142Y-138464285D01*
X116154761Y-138416666D01*
X116202380Y-138321428D01*
X116202380Y-138130952D01*
X116154761Y-138035714D01*
X116107142Y-137988095D01*
X116011904Y-137940476D01*
X115202380Y-137940476D01*
X115678571Y-136369047D02*
X115726190Y-136226190D01*
X115773809Y-136178571D01*
X115869047Y-136130952D01*
X116011904Y-136130952D01*
X116107142Y-136178571D01*
X116154761Y-136226190D01*
X116202380Y-136321428D01*
X116202380Y-136702380D01*
X115202380Y-136702380D01*
X115202380Y-136369047D01*
X115250000Y-136273809D01*
X115297619Y-136226190D01*
X115392857Y-136178571D01*
X115488095Y-136178571D01*
X115583333Y-136226190D01*
X115630952Y-136273809D01*
X115678571Y-136369047D01*
X115678571Y-136702380D01*
X116202380Y-135559523D02*
X116154761Y-135654761D01*
X116107142Y-135702380D01*
X116011904Y-135750000D01*
X115726190Y-135750000D01*
X115630952Y-135702380D01*
X115583333Y-135654761D01*
X115535714Y-135559523D01*
X115535714Y-135416666D01*
X115583333Y-135321428D01*
X115630952Y-135273809D01*
X115726190Y-135226190D01*
X116011904Y-135226190D01*
X116107142Y-135273809D01*
X116154761Y-135321428D01*
X116202380Y-135416666D01*
X116202380Y-135559523D01*
X115535714Y-134369047D02*
X116202380Y-134369047D01*
X115535714Y-134797619D02*
X116059523Y-134797619D01*
X116154761Y-134750000D01*
X116202380Y-134654761D01*
X116202380Y-134511904D01*
X116154761Y-134416666D01*
X116107142Y-134369047D01*
X116202380Y-133750000D02*
X116154761Y-133845238D01*
X116059523Y-133892857D01*
X115202380Y-133892857D01*
X116202380Y-132940476D02*
X115202380Y-132940476D01*
X116154761Y-132940476D02*
X116202380Y-133035714D01*
X116202380Y-133226190D01*
X116154761Y-133321428D01*
X116107142Y-133369047D01*
X116011904Y-133416666D01*
X115726190Y-133416666D01*
X115630952Y-133369047D01*
X115583333Y-133321428D01*
X115535714Y-133226190D01*
X115535714Y-133035714D01*
X115583333Y-132940476D01*
X116154761Y-132083333D02*
X116202380Y-132178571D01*
X116202380Y-132369047D01*
X116154761Y-132464285D01*
X116059523Y-132511904D01*
X115678571Y-132511904D01*
X115583333Y-132464285D01*
X115535714Y-132369047D01*
X115535714Y-132178571D01*
X115583333Y-132083333D01*
X115678571Y-132035714D01*
X115773809Y-132035714D01*
X115869047Y-132511904D01*
X116202380Y-131607142D02*
X115535714Y-131607142D01*
X115726190Y-131607142D02*
X115630952Y-131559523D01*
X115583333Y-131511904D01*
X115535714Y-131416666D01*
X115535714Y-131321428D01*
X116107142Y-129654761D02*
X116154761Y-129702380D01*
X116202380Y-129845238D01*
X116202380Y-129940476D01*
X116154761Y-130083333D01*
X116059523Y-130178571D01*
X115964285Y-130226190D01*
X115773809Y-130273809D01*
X115630952Y-130273809D01*
X115440476Y-130226190D01*
X115345238Y-130178571D01*
X115250000Y-130083333D01*
X115202380Y-129940476D01*
X115202380Y-129845238D01*
X115250000Y-129702380D01*
X115297619Y-129654761D01*
X115202380Y-129035714D02*
X115202380Y-128845238D01*
X115250000Y-128750000D01*
X115345238Y-128654761D01*
X115535714Y-128607142D01*
X115869047Y-128607142D01*
X116059523Y-128654761D01*
X116154761Y-128750000D01*
X116202380Y-128845238D01*
X116202380Y-129035714D01*
X116154761Y-129130952D01*
X116059523Y-129226190D01*
X115869047Y-129273809D01*
X115535714Y-129273809D01*
X115345238Y-129226190D01*
X115250000Y-129130952D01*
X115202380Y-129035714D01*
X115678571Y-127845238D02*
X115726190Y-127702380D01*
X115773809Y-127654761D01*
X115869047Y-127607142D01*
X116011904Y-127607142D01*
X116107142Y-127654761D01*
X116154761Y-127702380D01*
X116202380Y-127797619D01*
X116202380Y-128178571D01*
X115202380Y-128178571D01*
X115202380Y-127845238D01*
X115250000Y-127750000D01*
X115297619Y-127702380D01*
X115392857Y-127654761D01*
X115488095Y-127654761D01*
X115583333Y-127702380D01*
X115630952Y-127750000D01*
X115678571Y-127845238D01*
X115678571Y-128178571D01*
X116202380Y-126607142D02*
X115726190Y-126940476D01*
X116202380Y-127178571D02*
X115202380Y-127178571D01*
X115202380Y-126797619D01*
X115250000Y-126702380D01*
X115297619Y-126654761D01*
X115392857Y-126607142D01*
X115535714Y-126607142D01*
X115630952Y-126654761D01*
X115678571Y-126702380D01*
X115726190Y-126797619D01*
X115726190Y-127178571D01*
X115916666Y-126226190D02*
X115916666Y-125750000D01*
X116202380Y-126321428D02*
X115202380Y-125988095D01*
X116202380Y-125654761D01*
X115154761Y-124607142D02*
X116440476Y-125464285D01*
X116154761Y-124321428D02*
X116202380Y-124178571D01*
X116202380Y-123940476D01*
X116154761Y-123845238D01*
X116107142Y-123797619D01*
X116011904Y-123750000D01*
X115916666Y-123750000D01*
X115821428Y-123797619D01*
X115773809Y-123845238D01*
X115726190Y-123940476D01*
X115678571Y-124130952D01*
X115630952Y-124226190D01*
X115583333Y-124273809D01*
X115488095Y-124321428D01*
X115392857Y-124321428D01*
X115297619Y-124273809D01*
X115250000Y-124226190D01*
X115202380Y-124130952D01*
X115202380Y-123892857D01*
X115250000Y-123750000D01*
X116202380Y-122750000D02*
X115726190Y-123083333D01*
X116202380Y-123321428D02*
X115202380Y-123321428D01*
X115202380Y-122940476D01*
X115250000Y-122845238D01*
X115297619Y-122797619D01*
X115392857Y-122750000D01*
X115535714Y-122750000D01*
X115630952Y-122797619D01*
X115678571Y-122845238D01*
X115726190Y-122940476D01*
X115726190Y-123321428D01*
X116202380Y-121845238D02*
X116202380Y-122321428D01*
X115202380Y-122321428D01*
X117812380Y-139154761D02*
X116812380Y-139154761D01*
X117812380Y-138583333D02*
X117240952Y-139011904D01*
X116812380Y-138583333D02*
X117383809Y-139154761D01*
X117717142Y-137583333D02*
X117764761Y-137630952D01*
X117812380Y-137773809D01*
X117812380Y-137869047D01*
X117764761Y-138011904D01*
X117669523Y-138107142D01*
X117574285Y-138154761D01*
X117383809Y-138202380D01*
X117240952Y-138202380D01*
X117050476Y-138154761D01*
X116955238Y-138107142D01*
X116860000Y-138011904D01*
X116812380Y-137869047D01*
X116812380Y-137773809D01*
X116860000Y-137630952D01*
X116907619Y-137583333D01*
X117812380Y-136630952D02*
X117812380Y-137202380D01*
X117812380Y-136916666D02*
X116812380Y-136916666D01*
X116955238Y-137011904D01*
X117050476Y-137107142D01*
X117098095Y-137202380D01*
X116860000Y-135678571D02*
X116812380Y-135773809D01*
X116812380Y-135916666D01*
X116860000Y-136059523D01*
X116955238Y-136154761D01*
X117050476Y-136202380D01*
X117240952Y-136250000D01*
X117383809Y-136250000D01*
X117574285Y-136202380D01*
X117669523Y-136154761D01*
X117764761Y-136059523D01*
X117812380Y-135916666D01*
X117812380Y-135821428D01*
X117764761Y-135678571D01*
X117717142Y-135630952D01*
X117383809Y-135630952D01*
X117383809Y-135821428D01*
X117812380Y-135202380D02*
X116812380Y-135202380D01*
X116812380Y-134821428D01*
X116860000Y-134726190D01*
X116907619Y-134678571D01*
X117002857Y-134630952D01*
X117145714Y-134630952D01*
X117240952Y-134678571D01*
X117288571Y-134726190D01*
X117336190Y-134821428D01*
X117336190Y-135202380D01*
X116812380Y-134297619D02*
X117812380Y-134059523D01*
X117098095Y-133869047D01*
X117812380Y-133678571D01*
X116812380Y-133440476D01*
X117812380Y-132297619D02*
X116812380Y-132297619D01*
X117812380Y-131726190D02*
X117240952Y-132154761D01*
X116812380Y-131726190D02*
X117383809Y-132297619D01*
X117288571Y-131297619D02*
X117288571Y-130964285D01*
X117812380Y-130821428D02*
X117812380Y-131297619D01*
X116812380Y-131297619D01*
X116812380Y-130821428D01*
X116812380Y-130202380D02*
X116812380Y-130107142D01*
X116860000Y-130011904D01*
X116907619Y-129964285D01*
X117002857Y-129916666D01*
X117193333Y-129869047D01*
X117431428Y-129869047D01*
X117621904Y-129916666D01*
X117717142Y-129964285D01*
X117764761Y-130011904D01*
X117812380Y-130107142D01*
X117812380Y-130202380D01*
X117764761Y-130297619D01*
X117717142Y-130345238D01*
X117621904Y-130392857D01*
X117431428Y-130440476D01*
X117193333Y-130440476D01*
X117002857Y-130392857D01*
X116907619Y-130345238D01*
X116860000Y-130297619D01*
X116812380Y-130202380D01*
X117812380Y-129440476D02*
X116812380Y-129440476D01*
X117288571Y-129440476D02*
X117288571Y-128869047D01*
X117812380Y-128869047D02*
X116812380Y-128869047D01*
X117764761Y-128440476D02*
X117812380Y-128297619D01*
X117812380Y-128059523D01*
X117764761Y-127964285D01*
X117717142Y-127916666D01*
X117621904Y-127869047D01*
X117526666Y-127869047D01*
X117431428Y-127916666D01*
X117383809Y-127964285D01*
X117336190Y-128059523D01*
X117288571Y-128250000D01*
X117240952Y-128345238D01*
X117193333Y-128392857D01*
X117098095Y-128440476D01*
X117002857Y-128440476D01*
X116907619Y-128392857D01*
X116860000Y-128345238D01*
X116812380Y-128250000D01*
X116812380Y-128011904D01*
X116860000Y-127869047D01*
X117717142Y-126869047D02*
X117764761Y-126916666D01*
X117812380Y-127059523D01*
X117812380Y-127154761D01*
X117764761Y-127297619D01*
X117669523Y-127392857D01*
X117574285Y-127440476D01*
X117383809Y-127488095D01*
X117240952Y-127488095D01*
X117050476Y-127440476D01*
X116955238Y-127392857D01*
X116860000Y-127297619D01*
X116812380Y-127154761D01*
X116812380Y-127059523D01*
X116860000Y-126916666D01*
X116907619Y-126869047D01*
X116907619Y-125726190D02*
X116860000Y-125678571D01*
X116812380Y-125583333D01*
X116812380Y-125345238D01*
X116860000Y-125250000D01*
X116907619Y-125202380D01*
X117002857Y-125154761D01*
X117098095Y-125154761D01*
X117240952Y-125202380D01*
X117812380Y-125773809D01*
X117812380Y-125154761D01*
X116812380Y-124535714D02*
X116812380Y-124440476D01*
X116860000Y-124345238D01*
X116907619Y-124297619D01*
X117002857Y-124250000D01*
X117193333Y-124202380D01*
X117431428Y-124202380D01*
X117621904Y-124250000D01*
X117717142Y-124297619D01*
X117764761Y-124345238D01*
X117812380Y-124440476D01*
X117812380Y-124535714D01*
X117764761Y-124630952D01*
X117717142Y-124678571D01*
X117621904Y-124726190D01*
X117431428Y-124773809D01*
X117193333Y-124773809D01*
X117002857Y-124726190D01*
X116907619Y-124678571D01*
X116860000Y-124630952D01*
X116812380Y-124535714D01*
X117812380Y-123250000D02*
X117812380Y-123821428D01*
X117812380Y-123535714D02*
X116812380Y-123535714D01*
X116955238Y-123630952D01*
X117050476Y-123726190D01*
X117098095Y-123821428D01*
X117812380Y-122773809D02*
X117812380Y-122583333D01*
X117764761Y-122488095D01*
X117717142Y-122440476D01*
X117574285Y-122345238D01*
X117383809Y-122297619D01*
X117002857Y-122297619D01*
X116907619Y-122345238D01*
X116860000Y-122392857D01*
X116812380Y-122488095D01*
X116812380Y-122678571D01*
X116860000Y-122773809D01*
X116907619Y-122821428D01*
X117002857Y-122869047D01*
X117240952Y-122869047D01*
X117336190Y-122821428D01*
X117383809Y-122773809D01*
X117431428Y-122678571D01*
X117431428Y-122488095D01*
X117383809Y-122392857D01*
X117336190Y-122345238D01*
X117240952Y-122297619D01*
D11*
X137380000Y-150540000D03*
X137380000Y-148000000D03*
X139920000Y-150540000D03*
X139920000Y-148000000D03*
X142460000Y-150540000D03*
X142460000Y-148000000D03*
X145000000Y-150540000D03*
D12*
X145000000Y-148000000D03*
D13*
X116962221Y-148037779D03*
X115000000Y-147225000D03*
X113037779Y-148037779D03*
X112225000Y-150000000D03*
X113037779Y-151962221D03*
X115000000Y-152775000D03*
X116962221Y-151962221D03*
X117775000Y-150000000D03*
D14*
X115000000Y-150000000D03*
D13*
X167962221Y-148037779D03*
X166000000Y-147225000D03*
X164037779Y-148037779D03*
X163225000Y-150000000D03*
X164037779Y-151962221D03*
X166000000Y-152775000D03*
X167962221Y-151962221D03*
X168775000Y-150000000D03*
D14*
X166000000Y-150000000D03*
D13*
X164037779Y-113962221D03*
X166000000Y-114775000D03*
X167962221Y-113962221D03*
X168775000Y-112000000D03*
X167962221Y-110037779D03*
X166000000Y-109225000D03*
X164037779Y-110037779D03*
X163225000Y-112000000D03*
D14*
X166000000Y-112000000D03*
D13*
X113037779Y-113962221D03*
X115000000Y-114775000D03*
X116962221Y-113962221D03*
X117775000Y-112000000D03*
X116962221Y-110037779D03*
X115000000Y-109225000D03*
X113037779Y-110037779D03*
X112225000Y-112000000D03*
D14*
X115000000Y-112000000D03*
D15*
G36*
X149953387Y-143468079D02*
G01*
X150030438Y-143519562D01*
X150081921Y-143596613D01*
X150100000Y-143687500D01*
X150100000Y-144162500D01*
X150081921Y-144253387D01*
X150030438Y-144330438D01*
X149953387Y-144381921D01*
X149862500Y-144400000D01*
X149287500Y-144400000D01*
X149196613Y-144381921D01*
X149119562Y-144330438D01*
X149068079Y-144253387D01*
X149050000Y-144162500D01*
X149050000Y-143687500D01*
X149068079Y-143596613D01*
X149119562Y-143519562D01*
X149196613Y-143468079D01*
X149287500Y-143450000D01*
X149862500Y-143450000D01*
X149953387Y-143468079D01*
G37*
D16*
X149575000Y-143925000D03*
D15*
G36*
X148203387Y-143468079D02*
G01*
X148280438Y-143519562D01*
X148331921Y-143596613D01*
X148350000Y-143687500D01*
X148350000Y-144162500D01*
X148331921Y-144253387D01*
X148280438Y-144330438D01*
X148203387Y-144381921D01*
X148112500Y-144400000D01*
X147537500Y-144400000D01*
X147446613Y-144381921D01*
X147369562Y-144330438D01*
X147318079Y-144253387D01*
X147300000Y-144162500D01*
X147300000Y-143687500D01*
X147318079Y-143596613D01*
X147369562Y-143519562D01*
X147446613Y-143468079D01*
X147537500Y-143450000D01*
X148112500Y-143450000D01*
X148203387Y-143468079D01*
G37*
D16*
X147825000Y-143925000D03*
D15*
G36*
X146539962Y-143466651D02*
G01*
X146610930Y-143514070D01*
X146658349Y-143585038D01*
X146675000Y-143668750D01*
X146675000Y-144181250D01*
X146658349Y-144264962D01*
X146610930Y-144335930D01*
X146539962Y-144383349D01*
X146456250Y-144400000D01*
X146018750Y-144400000D01*
X145935038Y-144383349D01*
X145864070Y-144335930D01*
X145816651Y-144264962D01*
X145800000Y-144181250D01*
X145800000Y-143668750D01*
X145816651Y-143585038D01*
X145864070Y-143514070D01*
X145935038Y-143466651D01*
X146018750Y-143450000D01*
X146456250Y-143450000D01*
X146539962Y-143466651D01*
G37*
D17*
X146237500Y-143925000D03*
D15*
G36*
X144964962Y-143466651D02*
G01*
X145035930Y-143514070D01*
X145083349Y-143585038D01*
X145100000Y-143668750D01*
X145100000Y-144181250D01*
X145083349Y-144264962D01*
X145035930Y-144335930D01*
X144964962Y-144383349D01*
X144881250Y-144400000D01*
X144443750Y-144400000D01*
X144360038Y-144383349D01*
X144289070Y-144335930D01*
X144241651Y-144264962D01*
X144225000Y-144181250D01*
X144225000Y-143668750D01*
X144241651Y-143585038D01*
X144289070Y-143514070D01*
X144360038Y-143466651D01*
X144443750Y-143450000D01*
X144881250Y-143450000D01*
X144964962Y-143466651D01*
G37*
D17*
X144662500Y-143925000D03*
D15*
G36*
X142339962Y-113616651D02*
G01*
X142410930Y-113664070D01*
X142458349Y-113735038D01*
X142475000Y-113818750D01*
X142475000Y-114256250D01*
X142458349Y-114339962D01*
X142410930Y-114410930D01*
X142339962Y-114458349D01*
X142256250Y-114475000D01*
X141743750Y-114475000D01*
X141660038Y-114458349D01*
X141589070Y-114410930D01*
X141541651Y-114339962D01*
X141525000Y-114256250D01*
X141525000Y-113818750D01*
X141541651Y-113735038D01*
X141589070Y-113664070D01*
X141660038Y-113616651D01*
X141743750Y-113600000D01*
X142256250Y-113600000D01*
X142339962Y-113616651D01*
G37*
D17*
X142000000Y-114037500D03*
D15*
G36*
X142339962Y-112041651D02*
G01*
X142410930Y-112089070D01*
X142458349Y-112160038D01*
X142475000Y-112243750D01*
X142475000Y-112681250D01*
X142458349Y-112764962D01*
X142410930Y-112835930D01*
X142339962Y-112883349D01*
X142256250Y-112900000D01*
X141743750Y-112900000D01*
X141660038Y-112883349D01*
X141589070Y-112835930D01*
X141541651Y-112764962D01*
X141525000Y-112681250D01*
X141525000Y-112243750D01*
X141541651Y-112160038D01*
X141589070Y-112089070D01*
X141660038Y-112041651D01*
X141743750Y-112025000D01*
X142256250Y-112025000D01*
X142339962Y-112041651D01*
G37*
D17*
X142000000Y-112462500D03*
D15*
G36*
X130339962Y-113616651D02*
G01*
X130410930Y-113664070D01*
X130458349Y-113735038D01*
X130475000Y-113818750D01*
X130475000Y-114256250D01*
X130458349Y-114339962D01*
X130410930Y-114410930D01*
X130339962Y-114458349D01*
X130256250Y-114475000D01*
X129743750Y-114475000D01*
X129660038Y-114458349D01*
X129589070Y-114410930D01*
X129541651Y-114339962D01*
X129525000Y-114256250D01*
X129525000Y-113818750D01*
X129541651Y-113735038D01*
X129589070Y-113664070D01*
X129660038Y-113616651D01*
X129743750Y-113600000D01*
X130256250Y-113600000D01*
X130339962Y-113616651D01*
G37*
D17*
X130000000Y-114037500D03*
D15*
G36*
X130339962Y-112041651D02*
G01*
X130410930Y-112089070D01*
X130458349Y-112160038D01*
X130475000Y-112243750D01*
X130475000Y-112681250D01*
X130458349Y-112764962D01*
X130410930Y-112835930D01*
X130339962Y-112883349D01*
X130256250Y-112900000D01*
X129743750Y-112900000D01*
X129660038Y-112883349D01*
X129589070Y-112835930D01*
X129541651Y-112764962D01*
X129525000Y-112681250D01*
X129525000Y-112243750D01*
X129541651Y-112160038D01*
X129589070Y-112089070D01*
X129660038Y-112041651D01*
X129743750Y-112025000D01*
X130256250Y-112025000D01*
X130339962Y-112041651D01*
G37*
D17*
X130000000Y-112462500D03*
D15*
G36*
X126839962Y-118541651D02*
G01*
X126910930Y-118589070D01*
X126958349Y-118660038D01*
X126975000Y-118743750D01*
X126975000Y-119181250D01*
X126958349Y-119264962D01*
X126910930Y-119335930D01*
X126839962Y-119383349D01*
X126756250Y-119400000D01*
X126243750Y-119400000D01*
X126160038Y-119383349D01*
X126089070Y-119335930D01*
X126041651Y-119264962D01*
X126025000Y-119181250D01*
X126025000Y-118743750D01*
X126041651Y-118660038D01*
X126089070Y-118589070D01*
X126160038Y-118541651D01*
X126243750Y-118525000D01*
X126756250Y-118525000D01*
X126839962Y-118541651D01*
G37*
D17*
X126500000Y-118962500D03*
D15*
G36*
X126839962Y-120116651D02*
G01*
X126910930Y-120164070D01*
X126958349Y-120235038D01*
X126975000Y-120318750D01*
X126975000Y-120756250D01*
X126958349Y-120839962D01*
X126910930Y-120910930D01*
X126839962Y-120958349D01*
X126756250Y-120975000D01*
X126243750Y-120975000D01*
X126160038Y-120958349D01*
X126089070Y-120910930D01*
X126041651Y-120839962D01*
X126025000Y-120756250D01*
X126025000Y-120318750D01*
X126041651Y-120235038D01*
X126089070Y-120164070D01*
X126160038Y-120116651D01*
X126243750Y-120100000D01*
X126756250Y-120100000D01*
X126839962Y-120116651D01*
G37*
D17*
X126500000Y-120537500D03*
D15*
G36*
X127589962Y-135541651D02*
G01*
X127660930Y-135589070D01*
X127708349Y-135660038D01*
X127725000Y-135743750D01*
X127725000Y-136181250D01*
X127708349Y-136264962D01*
X127660930Y-136335930D01*
X127589962Y-136383349D01*
X127506250Y-136400000D01*
X126993750Y-136400000D01*
X126910038Y-136383349D01*
X126839070Y-136335930D01*
X126791651Y-136264962D01*
X126775000Y-136181250D01*
X126775000Y-135743750D01*
X126791651Y-135660038D01*
X126839070Y-135589070D01*
X126910038Y-135541651D01*
X126993750Y-135525000D01*
X127506250Y-135525000D01*
X127589962Y-135541651D01*
G37*
D17*
X127250000Y-135962500D03*
D15*
G36*
X127589962Y-137116651D02*
G01*
X127660930Y-137164070D01*
X127708349Y-137235038D01*
X127725000Y-137318750D01*
X127725000Y-137756250D01*
X127708349Y-137839962D01*
X127660930Y-137910930D01*
X127589962Y-137958349D01*
X127506250Y-137975000D01*
X126993750Y-137975000D01*
X126910038Y-137958349D01*
X126839070Y-137910930D01*
X126791651Y-137839962D01*
X126775000Y-137756250D01*
X126775000Y-137318750D01*
X126791651Y-137235038D01*
X126839070Y-137164070D01*
X126910038Y-137116651D01*
X126993750Y-137100000D01*
X127506250Y-137100000D01*
X127589962Y-137116651D01*
G37*
D17*
X127250000Y-137537500D03*
D15*
G36*
X127014962Y-113541651D02*
G01*
X127085930Y-113589070D01*
X127133349Y-113660038D01*
X127150000Y-113743750D01*
X127150000Y-114256250D01*
X127133349Y-114339962D01*
X127085930Y-114410930D01*
X127014962Y-114458349D01*
X126931250Y-114475000D01*
X126493750Y-114475000D01*
X126410038Y-114458349D01*
X126339070Y-114410930D01*
X126291651Y-114339962D01*
X126275000Y-114256250D01*
X126275000Y-113743750D01*
X126291651Y-113660038D01*
X126339070Y-113589070D01*
X126410038Y-113541651D01*
X126493750Y-113525000D01*
X126931250Y-113525000D01*
X127014962Y-113541651D01*
G37*
D17*
X126712500Y-114000000D03*
D15*
G36*
X128589962Y-113541651D02*
G01*
X128660930Y-113589070D01*
X128708349Y-113660038D01*
X128725000Y-113743750D01*
X128725000Y-114256250D01*
X128708349Y-114339962D01*
X128660930Y-114410930D01*
X128589962Y-114458349D01*
X128506250Y-114475000D01*
X128068750Y-114475000D01*
X127985038Y-114458349D01*
X127914070Y-114410930D01*
X127866651Y-114339962D01*
X127850000Y-114256250D01*
X127850000Y-113743750D01*
X127866651Y-113660038D01*
X127914070Y-113589070D01*
X127985038Y-113541651D01*
X128068750Y-113525000D01*
X128506250Y-113525000D01*
X128589962Y-113541651D01*
G37*
D17*
X128287500Y-114000000D03*
D15*
G36*
X124839962Y-125829151D02*
G01*
X124910930Y-125876570D01*
X124958349Y-125947538D01*
X124975000Y-126031250D01*
X124975000Y-126468750D01*
X124958349Y-126552462D01*
X124910930Y-126623430D01*
X124839962Y-126670849D01*
X124756250Y-126687500D01*
X124243750Y-126687500D01*
X124160038Y-126670849D01*
X124089070Y-126623430D01*
X124041651Y-126552462D01*
X124025000Y-126468750D01*
X124025000Y-126031250D01*
X124041651Y-125947538D01*
X124089070Y-125876570D01*
X124160038Y-125829151D01*
X124243750Y-125812500D01*
X124756250Y-125812500D01*
X124839962Y-125829151D01*
G37*
D17*
X124500000Y-126250000D03*
D15*
G36*
X124839962Y-124254151D02*
G01*
X124910930Y-124301570D01*
X124958349Y-124372538D01*
X124975000Y-124456250D01*
X124975000Y-124893750D01*
X124958349Y-124977462D01*
X124910930Y-125048430D01*
X124839962Y-125095849D01*
X124756250Y-125112500D01*
X124243750Y-125112500D01*
X124160038Y-125095849D01*
X124089070Y-125048430D01*
X124041651Y-124977462D01*
X124025000Y-124893750D01*
X124025000Y-124456250D01*
X124041651Y-124372538D01*
X124089070Y-124301570D01*
X124160038Y-124254151D01*
X124243750Y-124237500D01*
X124756250Y-124237500D01*
X124839962Y-124254151D01*
G37*
D17*
X124500000Y-124675000D03*
D15*
G36*
X125339962Y-147116651D02*
G01*
X125410930Y-147164070D01*
X125458349Y-147235038D01*
X125475000Y-147318750D01*
X125475000Y-147756250D01*
X125458349Y-147839962D01*
X125410930Y-147910930D01*
X125339962Y-147958349D01*
X125256250Y-147975000D01*
X124743750Y-147975000D01*
X124660038Y-147958349D01*
X124589070Y-147910930D01*
X124541651Y-147839962D01*
X124525000Y-147756250D01*
X124525000Y-147318750D01*
X124541651Y-147235038D01*
X124589070Y-147164070D01*
X124660038Y-147116651D01*
X124743750Y-147100000D01*
X125256250Y-147100000D01*
X125339962Y-147116651D01*
G37*
D17*
X125000000Y-147537500D03*
D15*
G36*
X125339962Y-145541651D02*
G01*
X125410930Y-145589070D01*
X125458349Y-145660038D01*
X125475000Y-145743750D01*
X125475000Y-146181250D01*
X125458349Y-146264962D01*
X125410930Y-146335930D01*
X125339962Y-146383349D01*
X125256250Y-146400000D01*
X124743750Y-146400000D01*
X124660038Y-146383349D01*
X124589070Y-146335930D01*
X124541651Y-146264962D01*
X124525000Y-146181250D01*
X124525000Y-145743750D01*
X124541651Y-145660038D01*
X124589070Y-145589070D01*
X124660038Y-145541651D01*
X124743750Y-145525000D01*
X125256250Y-145525000D01*
X125339962Y-145541651D01*
G37*
D17*
X125000000Y-145962500D03*
D15*
G36*
X151445671Y-124819030D02*
G01*
X151526777Y-124873223D01*
X151580970Y-124954329D01*
X151600000Y-125049999D01*
X151600000Y-125950001D01*
X151580970Y-126045671D01*
X151526777Y-126126777D01*
X151445671Y-126180970D01*
X151350001Y-126200000D01*
X150699999Y-126200000D01*
X150604329Y-126180970D01*
X150523223Y-126126777D01*
X150469030Y-126045671D01*
X150450000Y-125950001D01*
X150450000Y-125049999D01*
X150469030Y-124954329D01*
X150523223Y-124873223D01*
X150604329Y-124819030D01*
X150699999Y-124800000D01*
X151350001Y-124800000D01*
X151445671Y-124819030D01*
G37*
D18*
X151025000Y-125500000D03*
D15*
G36*
X149395671Y-124819030D02*
G01*
X149476777Y-124873223D01*
X149530970Y-124954329D01*
X149550000Y-125049999D01*
X149550000Y-125950001D01*
X149530970Y-126045671D01*
X149476777Y-126126777D01*
X149395671Y-126180970D01*
X149300001Y-126200000D01*
X148649999Y-126200000D01*
X148554329Y-126180970D01*
X148473223Y-126126777D01*
X148419030Y-126045671D01*
X148400000Y-125950001D01*
X148400000Y-125049999D01*
X148419030Y-124954329D01*
X148473223Y-124873223D01*
X148554329Y-124819030D01*
X148649999Y-124800000D01*
X149300001Y-124800000D01*
X149395671Y-124819030D01*
G37*
D18*
X148975000Y-125500000D03*
D15*
G36*
X143545671Y-128219030D02*
G01*
X143626777Y-128273223D01*
X143680970Y-128354329D01*
X143700000Y-128449999D01*
X143700000Y-129100001D01*
X143680970Y-129195671D01*
X143626777Y-129276777D01*
X143545671Y-129330970D01*
X143450001Y-129350000D01*
X142549999Y-129350000D01*
X142454329Y-129330970D01*
X142373223Y-129276777D01*
X142319030Y-129195671D01*
X142300000Y-129100001D01*
X142300000Y-128449999D01*
X142319030Y-128354329D01*
X142373223Y-128273223D01*
X142454329Y-128219030D01*
X142549999Y-128200000D01*
X143450001Y-128200000D01*
X143545671Y-128219030D01*
G37*
D18*
X143000000Y-128775000D03*
D15*
G36*
X143545671Y-126169030D02*
G01*
X143626777Y-126223223D01*
X143680970Y-126304329D01*
X143700000Y-126399999D01*
X143700000Y-127050001D01*
X143680970Y-127145671D01*
X143626777Y-127226777D01*
X143545671Y-127280970D01*
X143450001Y-127300000D01*
X142549999Y-127300000D01*
X142454329Y-127280970D01*
X142373223Y-127226777D01*
X142319030Y-127145671D01*
X142300000Y-127050001D01*
X142300000Y-126399999D01*
X142319030Y-126304329D01*
X142373223Y-126223223D01*
X142454329Y-126169030D01*
X142549999Y-126150000D01*
X143450001Y-126150000D01*
X143545671Y-126169030D01*
G37*
D18*
X143000000Y-126725000D03*
D15*
G36*
X142695671Y-139819030D02*
G01*
X142776777Y-139873223D01*
X142830970Y-139954329D01*
X142850000Y-140049999D01*
X142850000Y-140950001D01*
X142830970Y-141045671D01*
X142776777Y-141126777D01*
X142695671Y-141180970D01*
X142600001Y-141200000D01*
X141949999Y-141200000D01*
X141854329Y-141180970D01*
X141773223Y-141126777D01*
X141719030Y-141045671D01*
X141700000Y-140950001D01*
X141700000Y-140049999D01*
X141719030Y-139954329D01*
X141773223Y-139873223D01*
X141854329Y-139819030D01*
X141949999Y-139800000D01*
X142600001Y-139800000D01*
X142695671Y-139819030D01*
G37*
D18*
X142275000Y-140500000D03*
D15*
G36*
X140645671Y-139819030D02*
G01*
X140726777Y-139873223D01*
X140780970Y-139954329D01*
X140800000Y-140049999D01*
X140800000Y-140950001D01*
X140780970Y-141045671D01*
X140726777Y-141126777D01*
X140645671Y-141180970D01*
X140550001Y-141200000D01*
X139899999Y-141200000D01*
X139804329Y-141180970D01*
X139723223Y-141126777D01*
X139669030Y-141045671D01*
X139650000Y-140950001D01*
X139650000Y-140049999D01*
X139669030Y-139954329D01*
X139723223Y-139873223D01*
X139804329Y-139819030D01*
X139899999Y-139800000D01*
X140550001Y-139800000D01*
X140645671Y-139819030D01*
G37*
D18*
X140225000Y-140500000D03*
D15*
G36*
X145495671Y-139819030D02*
G01*
X145576777Y-139873223D01*
X145630970Y-139954329D01*
X145650000Y-140049999D01*
X145650000Y-140950001D01*
X145630970Y-141045671D01*
X145576777Y-141126777D01*
X145495671Y-141180970D01*
X145400001Y-141200000D01*
X144749999Y-141200000D01*
X144654329Y-141180970D01*
X144573223Y-141126777D01*
X144519030Y-141045671D01*
X144500000Y-140950001D01*
X144500000Y-140049999D01*
X144519030Y-139954329D01*
X144573223Y-139873223D01*
X144654329Y-139819030D01*
X144749999Y-139800000D01*
X145400001Y-139800000D01*
X145495671Y-139819030D01*
G37*
D18*
X145075000Y-140500000D03*
D15*
G36*
X147545671Y-139819030D02*
G01*
X147626777Y-139873223D01*
X147680970Y-139954329D01*
X147700000Y-140049999D01*
X147700000Y-140950001D01*
X147680970Y-141045671D01*
X147626777Y-141126777D01*
X147545671Y-141180970D01*
X147450001Y-141200000D01*
X146799999Y-141200000D01*
X146704329Y-141180970D01*
X146623223Y-141126777D01*
X146569030Y-141045671D01*
X146550000Y-140950001D01*
X146550000Y-140049999D01*
X146569030Y-139954329D01*
X146623223Y-139873223D01*
X146704329Y-139819030D01*
X146799999Y-139800000D01*
X147450001Y-139800000D01*
X147545671Y-139819030D01*
G37*
D18*
X147125000Y-140500000D03*
D15*
G36*
X147570671Y-134894030D02*
G01*
X147651777Y-134948223D01*
X147705970Y-135029329D01*
X147725000Y-135125000D01*
X147725000Y-136375000D01*
X147705970Y-136470671D01*
X147651777Y-136551777D01*
X147570671Y-136605970D01*
X147475000Y-136625000D01*
X146725000Y-136625000D01*
X146629329Y-136605970D01*
X146548223Y-136551777D01*
X146494030Y-136470671D01*
X146475000Y-136375000D01*
X146475000Y-135125000D01*
X146494030Y-135029329D01*
X146548223Y-134948223D01*
X146629329Y-134894030D01*
X146725000Y-134875000D01*
X147475000Y-134875000D01*
X147570671Y-134894030D01*
G37*
D19*
X147100000Y-135750000D03*
D15*
G36*
X150370671Y-134894030D02*
G01*
X150451777Y-134948223D01*
X150505970Y-135029329D01*
X150525000Y-135125000D01*
X150525000Y-136375000D01*
X150505970Y-136470671D01*
X150451777Y-136551777D01*
X150370671Y-136605970D01*
X150275000Y-136625000D01*
X149525000Y-136625000D01*
X149429329Y-136605970D01*
X149348223Y-136551777D01*
X149294030Y-136470671D01*
X149275000Y-136375000D01*
X149275000Y-135125000D01*
X149294030Y-135029329D01*
X149348223Y-134948223D01*
X149429329Y-134894030D01*
X149525000Y-134875000D01*
X150275000Y-134875000D01*
X150370671Y-134894030D01*
G37*
D19*
X149900000Y-135750000D03*
D15*
G36*
X146024529Y-113568554D02*
G01*
X146103607Y-113621393D01*
X146156446Y-113700471D01*
X146175000Y-113793750D01*
X146175000Y-114706250D01*
X146156446Y-114799529D01*
X146103607Y-114878607D01*
X146024529Y-114931446D01*
X145931250Y-114950000D01*
X145443750Y-114950000D01*
X145350471Y-114931446D01*
X145271393Y-114878607D01*
X145218554Y-114799529D01*
X145200000Y-114706250D01*
X145200000Y-113793750D01*
X145218554Y-113700471D01*
X145271393Y-113621393D01*
X145350471Y-113568554D01*
X145443750Y-113550000D01*
X145931250Y-113550000D01*
X146024529Y-113568554D01*
G37*
D20*
X145687500Y-114250000D03*
D15*
G36*
X144149529Y-113568554D02*
G01*
X144228607Y-113621393D01*
X144281446Y-113700471D01*
X144300000Y-113793750D01*
X144300000Y-114706250D01*
X144281446Y-114799529D01*
X144228607Y-114878607D01*
X144149529Y-114931446D01*
X144056250Y-114950000D01*
X143568750Y-114950000D01*
X143475471Y-114931446D01*
X143396393Y-114878607D01*
X143343554Y-114799529D01*
X143325000Y-114706250D01*
X143325000Y-113793750D01*
X143343554Y-113700471D01*
X143396393Y-113621393D01*
X143475471Y-113568554D01*
X143568750Y-113550000D01*
X144056250Y-113550000D01*
X144149529Y-113568554D01*
G37*
D20*
X143812500Y-114250000D03*
D15*
G36*
X147799529Y-115656054D02*
G01*
X147878607Y-115708893D01*
X147931446Y-115787971D01*
X147950000Y-115881250D01*
X147950000Y-116368750D01*
X147931446Y-116462029D01*
X147878607Y-116541107D01*
X147799529Y-116593946D01*
X147706250Y-116612500D01*
X146793750Y-116612500D01*
X146700471Y-116593946D01*
X146621393Y-116541107D01*
X146568554Y-116462029D01*
X146550000Y-116368750D01*
X146550000Y-115881250D01*
X146568554Y-115787971D01*
X146621393Y-115708893D01*
X146700471Y-115656054D01*
X146793750Y-115637500D01*
X147706250Y-115637500D01*
X147799529Y-115656054D01*
G37*
D20*
X147250000Y-116125000D03*
D15*
G36*
X147799529Y-113781054D02*
G01*
X147878607Y-113833893D01*
X147931446Y-113912971D01*
X147950000Y-114006250D01*
X147950000Y-114493750D01*
X147931446Y-114587029D01*
X147878607Y-114666107D01*
X147799529Y-114718946D01*
X147706250Y-114737500D01*
X146793750Y-114737500D01*
X146700471Y-114718946D01*
X146621393Y-114666107D01*
X146568554Y-114587029D01*
X146550000Y-114493750D01*
X146550000Y-114006250D01*
X146568554Y-113912971D01*
X146621393Y-113833893D01*
X146700471Y-113781054D01*
X146793750Y-113762500D01*
X147706250Y-113762500D01*
X147799529Y-113781054D01*
G37*
D20*
X147250000Y-114250000D03*
D15*
G36*
X125049529Y-129718554D02*
G01*
X125128607Y-129771393D01*
X125181446Y-129850471D01*
X125200000Y-129943750D01*
X125200000Y-130431250D01*
X125181446Y-130524529D01*
X125128607Y-130603607D01*
X125049529Y-130656446D01*
X124956250Y-130675000D01*
X124043750Y-130675000D01*
X123950471Y-130656446D01*
X123871393Y-130603607D01*
X123818554Y-130524529D01*
X123800000Y-130431250D01*
X123800000Y-129943750D01*
X123818554Y-129850471D01*
X123871393Y-129771393D01*
X123950471Y-129718554D01*
X124043750Y-129700000D01*
X124956250Y-129700000D01*
X125049529Y-129718554D01*
G37*
D20*
X124500000Y-130187500D03*
D15*
G36*
X125049529Y-127843554D02*
G01*
X125128607Y-127896393D01*
X125181446Y-127975471D01*
X125200000Y-128068750D01*
X125200000Y-128556250D01*
X125181446Y-128649529D01*
X125128607Y-128728607D01*
X125049529Y-128781446D01*
X124956250Y-128800000D01*
X124043750Y-128800000D01*
X123950471Y-128781446D01*
X123871393Y-128728607D01*
X123818554Y-128649529D01*
X123800000Y-128556250D01*
X123800000Y-128068750D01*
X123818554Y-127975471D01*
X123871393Y-127896393D01*
X123950471Y-127843554D01*
X124043750Y-127825000D01*
X124956250Y-127825000D01*
X125049529Y-127843554D01*
G37*
D20*
X124500000Y-128312500D03*
D15*
G36*
X124774529Y-131568554D02*
G01*
X124853607Y-131621393D01*
X124906446Y-131700471D01*
X124925000Y-131793750D01*
X124925000Y-132706250D01*
X124906446Y-132799529D01*
X124853607Y-132878607D01*
X124774529Y-132931446D01*
X124681250Y-132950000D01*
X124193750Y-132950000D01*
X124100471Y-132931446D01*
X124021393Y-132878607D01*
X123968554Y-132799529D01*
X123950000Y-132706250D01*
X123950000Y-131793750D01*
X123968554Y-131700471D01*
X124021393Y-131621393D01*
X124100471Y-131568554D01*
X124193750Y-131550000D01*
X124681250Y-131550000D01*
X124774529Y-131568554D01*
G37*
D20*
X124437500Y-132250000D03*
D15*
G36*
X122899529Y-131568554D02*
G01*
X122978607Y-131621393D01*
X123031446Y-131700471D01*
X123050000Y-131793750D01*
X123050000Y-132706250D01*
X123031446Y-132799529D01*
X122978607Y-132878607D01*
X122899529Y-132931446D01*
X122806250Y-132950000D01*
X122318750Y-132950000D01*
X122225471Y-132931446D01*
X122146393Y-132878607D01*
X122093554Y-132799529D01*
X122075000Y-132706250D01*
X122075000Y-131793750D01*
X122093554Y-131700471D01*
X122146393Y-131621393D01*
X122225471Y-131568554D01*
X122318750Y-131550000D01*
X122806250Y-131550000D01*
X122899529Y-131568554D01*
G37*
D20*
X122562500Y-132250000D03*
D15*
G36*
X125549529Y-141593554D02*
G01*
X125628607Y-141646393D01*
X125681446Y-141725471D01*
X125700000Y-141818750D01*
X125700000Y-142306250D01*
X125681446Y-142399529D01*
X125628607Y-142478607D01*
X125549529Y-142531446D01*
X125456250Y-142550000D01*
X124543750Y-142550000D01*
X124450471Y-142531446D01*
X124371393Y-142478607D01*
X124318554Y-142399529D01*
X124300000Y-142306250D01*
X124300000Y-141818750D01*
X124318554Y-141725471D01*
X124371393Y-141646393D01*
X124450471Y-141593554D01*
X124543750Y-141575000D01*
X125456250Y-141575000D01*
X125549529Y-141593554D01*
G37*
D20*
X125000000Y-142062500D03*
D15*
G36*
X125549529Y-143468554D02*
G01*
X125628607Y-143521393D01*
X125681446Y-143600471D01*
X125700000Y-143693750D01*
X125700000Y-144181250D01*
X125681446Y-144274529D01*
X125628607Y-144353607D01*
X125549529Y-144406446D01*
X125456250Y-144425000D01*
X124543750Y-144425000D01*
X124450471Y-144406446D01*
X124371393Y-144353607D01*
X124318554Y-144274529D01*
X124300000Y-144181250D01*
X124300000Y-143693750D01*
X124318554Y-143600471D01*
X124371393Y-143521393D01*
X124450471Y-143468554D01*
X124543750Y-143450000D01*
X125456250Y-143450000D01*
X125549529Y-143468554D01*
G37*
D20*
X125000000Y-143937500D03*
D15*
G36*
X155545671Y-136444030D02*
G01*
X155626777Y-136498223D01*
X155680970Y-136579329D01*
X155700000Y-136674999D01*
X155700000Y-137325001D01*
X155680970Y-137420671D01*
X155626777Y-137501777D01*
X155545671Y-137555970D01*
X155450001Y-137575000D01*
X154549999Y-137575000D01*
X154454329Y-137555970D01*
X154373223Y-137501777D01*
X154319030Y-137420671D01*
X154300000Y-137325001D01*
X154300000Y-136674999D01*
X154319030Y-136579329D01*
X154373223Y-136498223D01*
X154454329Y-136444030D01*
X154549999Y-136425000D01*
X155450001Y-136425000D01*
X155545671Y-136444030D01*
G37*
D18*
X155000000Y-137000000D03*
D15*
G36*
X155545671Y-138494030D02*
G01*
X155626777Y-138548223D01*
X155680970Y-138629329D01*
X155700000Y-138724999D01*
X155700000Y-139375001D01*
X155680970Y-139470671D01*
X155626777Y-139551777D01*
X155545671Y-139605970D01*
X155450001Y-139625000D01*
X154549999Y-139625000D01*
X154454329Y-139605970D01*
X154373223Y-139551777D01*
X154319030Y-139470671D01*
X154300000Y-139375001D01*
X154300000Y-138724999D01*
X154319030Y-138629329D01*
X154373223Y-138548223D01*
X154454329Y-138494030D01*
X154549999Y-138475000D01*
X155450001Y-138475000D01*
X155545671Y-138494030D01*
G37*
D18*
X155000000Y-139050000D03*
D15*
G36*
X158195671Y-134569030D02*
G01*
X158276777Y-134623223D01*
X158330970Y-134704329D01*
X158350000Y-134799999D01*
X158350000Y-135700001D01*
X158330970Y-135795671D01*
X158276777Y-135876777D01*
X158195671Y-135930970D01*
X158100001Y-135950000D01*
X157449999Y-135950000D01*
X157354329Y-135930970D01*
X157273223Y-135876777D01*
X157219030Y-135795671D01*
X157200000Y-135700001D01*
X157200000Y-134799999D01*
X157219030Y-134704329D01*
X157273223Y-134623223D01*
X157354329Y-134569030D01*
X157449999Y-134550000D01*
X158100001Y-134550000D01*
X158195671Y-134569030D01*
G37*
D18*
X157775000Y-135250000D03*
D15*
G36*
X156145671Y-134569030D02*
G01*
X156226777Y-134623223D01*
X156280970Y-134704329D01*
X156300000Y-134799999D01*
X156300000Y-135700001D01*
X156280970Y-135795671D01*
X156226777Y-135876777D01*
X156145671Y-135930970D01*
X156050001Y-135950000D01*
X155399999Y-135950000D01*
X155304329Y-135930970D01*
X155223223Y-135876777D01*
X155169030Y-135795671D01*
X155150000Y-135700001D01*
X155150000Y-134799999D01*
X155169030Y-134704329D01*
X155223223Y-134623223D01*
X155304329Y-134569030D01*
X155399999Y-134550000D01*
X156050001Y-134550000D01*
X156145671Y-134569030D01*
G37*
D18*
X155725000Y-135250000D03*
D15*
G36*
X154770671Y-134394030D02*
G01*
X154851777Y-134448223D01*
X154905970Y-134529329D01*
X154925000Y-134625000D01*
X154925000Y-135875000D01*
X154905970Y-135970671D01*
X154851777Y-136051777D01*
X154770671Y-136105970D01*
X154675000Y-136125000D01*
X153925000Y-136125000D01*
X153829329Y-136105970D01*
X153748223Y-136051777D01*
X153694030Y-135970671D01*
X153675000Y-135875000D01*
X153675000Y-134625000D01*
X153694030Y-134529329D01*
X153748223Y-134448223D01*
X153829329Y-134394030D01*
X153925000Y-134375000D01*
X154675000Y-134375000D01*
X154770671Y-134394030D01*
G37*
D19*
X154300000Y-135250000D03*
D15*
G36*
X151970671Y-134394030D02*
G01*
X152051777Y-134448223D01*
X152105970Y-134529329D01*
X152125000Y-134625000D01*
X152125000Y-135875000D01*
X152105970Y-135970671D01*
X152051777Y-136051777D01*
X151970671Y-136105970D01*
X151875000Y-136125000D01*
X151125000Y-136125000D01*
X151029329Y-136105970D01*
X150948223Y-136051777D01*
X150894030Y-135970671D01*
X150875000Y-135875000D01*
X150875000Y-134625000D01*
X150894030Y-134529329D01*
X150948223Y-134448223D01*
X151029329Y-134394030D01*
X151125000Y-134375000D01*
X151875000Y-134375000D01*
X151970671Y-134394030D01*
G37*
D19*
X151500000Y-135250000D03*
D15*
G36*
X155020671Y-126319030D02*
G01*
X155101777Y-126373223D01*
X155155970Y-126454329D01*
X155175000Y-126549999D01*
X155175000Y-127450001D01*
X155155970Y-127545671D01*
X155101777Y-127626777D01*
X155020671Y-127680970D01*
X154925001Y-127700000D01*
X154274999Y-127700000D01*
X154179329Y-127680970D01*
X154098223Y-127626777D01*
X154044030Y-127545671D01*
X154025000Y-127450001D01*
X154025000Y-126549999D01*
X154044030Y-126454329D01*
X154098223Y-126373223D01*
X154179329Y-126319030D01*
X154274999Y-126300000D01*
X154925001Y-126300000D01*
X155020671Y-126319030D01*
G37*
D18*
X154600000Y-127000000D03*
D15*
G36*
X152970671Y-126319030D02*
G01*
X153051777Y-126373223D01*
X153105970Y-126454329D01*
X153125000Y-126549999D01*
X153125000Y-127450001D01*
X153105970Y-127545671D01*
X153051777Y-127626777D01*
X152970671Y-127680970D01*
X152875001Y-127700000D01*
X152224999Y-127700000D01*
X152129329Y-127680970D01*
X152048223Y-127626777D01*
X151994030Y-127545671D01*
X151975000Y-127450001D01*
X151975000Y-126549999D01*
X151994030Y-126454329D01*
X152048223Y-126373223D01*
X152129329Y-126319030D01*
X152224999Y-126300000D01*
X152875001Y-126300000D01*
X152970671Y-126319030D01*
G37*
D18*
X152550000Y-127000000D03*
D15*
G36*
X158445671Y-126319030D02*
G01*
X158526777Y-126373223D01*
X158580970Y-126454329D01*
X158600000Y-126549999D01*
X158600000Y-127450001D01*
X158580970Y-127545671D01*
X158526777Y-127626777D01*
X158445671Y-127680970D01*
X158350001Y-127700000D01*
X157699999Y-127700000D01*
X157604329Y-127680970D01*
X157523223Y-127626777D01*
X157469030Y-127545671D01*
X157450000Y-127450001D01*
X157450000Y-126549999D01*
X157469030Y-126454329D01*
X157523223Y-126373223D01*
X157604329Y-126319030D01*
X157699999Y-126300000D01*
X158350001Y-126300000D01*
X158445671Y-126319030D01*
G37*
D18*
X158025000Y-127000000D03*
D15*
G36*
X156395671Y-126319030D02*
G01*
X156476777Y-126373223D01*
X156530970Y-126454329D01*
X156550000Y-126549999D01*
X156550000Y-127450001D01*
X156530970Y-127545671D01*
X156476777Y-127626777D01*
X156395671Y-127680970D01*
X156300001Y-127700000D01*
X155649999Y-127700000D01*
X155554329Y-127680970D01*
X155473223Y-127626777D01*
X155419030Y-127545671D01*
X155400000Y-127450001D01*
X155400000Y-126549999D01*
X155419030Y-126454329D01*
X155473223Y-126373223D01*
X155554329Y-126319030D01*
X155649999Y-126300000D01*
X156300001Y-126300000D01*
X156395671Y-126319030D01*
G37*
D18*
X155975000Y-127000000D03*
D15*
G36*
X140045671Y-114419030D02*
G01*
X140126777Y-114473223D01*
X140180970Y-114554329D01*
X140200000Y-114649999D01*
X140200000Y-115300001D01*
X140180970Y-115395671D01*
X140126777Y-115476777D01*
X140045671Y-115530970D01*
X139950001Y-115550000D01*
X139049999Y-115550000D01*
X138954329Y-115530970D01*
X138873223Y-115476777D01*
X138819030Y-115395671D01*
X138800000Y-115300001D01*
X138800000Y-114649999D01*
X138819030Y-114554329D01*
X138873223Y-114473223D01*
X138954329Y-114419030D01*
X139049999Y-114400000D01*
X139950001Y-114400000D01*
X140045671Y-114419030D01*
G37*
D18*
X139500000Y-114975000D03*
D15*
G36*
X140045671Y-116469030D02*
G01*
X140126777Y-116523223D01*
X140180970Y-116604329D01*
X140200000Y-116699999D01*
X140200000Y-117350001D01*
X140180970Y-117445671D01*
X140126777Y-117526777D01*
X140045671Y-117580970D01*
X139950001Y-117600000D01*
X139049999Y-117600000D01*
X138954329Y-117580970D01*
X138873223Y-117526777D01*
X138819030Y-117445671D01*
X138800000Y-117350001D01*
X138800000Y-116699999D01*
X138819030Y-116604329D01*
X138873223Y-116523223D01*
X138954329Y-116469030D01*
X139049999Y-116450000D01*
X139950001Y-116450000D01*
X140045671Y-116469030D01*
G37*
D18*
X139500000Y-117025000D03*
D15*
G36*
X124895671Y-116569030D02*
G01*
X124976777Y-116623223D01*
X125030970Y-116704329D01*
X125050000Y-116799999D01*
X125050000Y-117700001D01*
X125030970Y-117795671D01*
X124976777Y-117876777D01*
X124895671Y-117930970D01*
X124800001Y-117950000D01*
X124149999Y-117950000D01*
X124054329Y-117930970D01*
X123973223Y-117876777D01*
X123919030Y-117795671D01*
X123900000Y-117700001D01*
X123900000Y-116799999D01*
X123919030Y-116704329D01*
X123973223Y-116623223D01*
X124054329Y-116569030D01*
X124149999Y-116550000D01*
X124800001Y-116550000D01*
X124895671Y-116569030D01*
G37*
D18*
X124475000Y-117250000D03*
D15*
G36*
X126945671Y-116569030D02*
G01*
X127026777Y-116623223D01*
X127080970Y-116704329D01*
X127100000Y-116799999D01*
X127100000Y-117700001D01*
X127080970Y-117795671D01*
X127026777Y-117876777D01*
X126945671Y-117930970D01*
X126850001Y-117950000D01*
X126199999Y-117950000D01*
X126104329Y-117930970D01*
X126023223Y-117876777D01*
X125969030Y-117795671D01*
X125950000Y-117700001D01*
X125950000Y-116799999D01*
X125969030Y-116704329D01*
X126023223Y-116623223D01*
X126104329Y-116569030D01*
X126199999Y-116550000D01*
X126850001Y-116550000D01*
X126945671Y-116569030D01*
G37*
D18*
X126525000Y-117250000D03*
D15*
G36*
X125395671Y-133569030D02*
G01*
X125476777Y-133623223D01*
X125530970Y-133704329D01*
X125550000Y-133799999D01*
X125550000Y-134700001D01*
X125530970Y-134795671D01*
X125476777Y-134876777D01*
X125395671Y-134930970D01*
X125300001Y-134950000D01*
X124649999Y-134950000D01*
X124554329Y-134930970D01*
X124473223Y-134876777D01*
X124419030Y-134795671D01*
X124400000Y-134700001D01*
X124400000Y-133799999D01*
X124419030Y-133704329D01*
X124473223Y-133623223D01*
X124554329Y-133569030D01*
X124649999Y-133550000D01*
X125300001Y-133550000D01*
X125395671Y-133569030D01*
G37*
D18*
X124975000Y-134250000D03*
D15*
G36*
X127445671Y-133569030D02*
G01*
X127526777Y-133623223D01*
X127580970Y-133704329D01*
X127600000Y-133799999D01*
X127600000Y-134700001D01*
X127580970Y-134795671D01*
X127526777Y-134876777D01*
X127445671Y-134930970D01*
X127350001Y-134950000D01*
X126699999Y-134950000D01*
X126604329Y-134930970D01*
X126523223Y-134876777D01*
X126469030Y-134795671D01*
X126450000Y-134700001D01*
X126450000Y-133799999D01*
X126469030Y-133704329D01*
X126523223Y-133623223D01*
X126604329Y-133569030D01*
X126699999Y-133550000D01*
X127350001Y-133550000D01*
X127445671Y-133569030D01*
G37*
D18*
X127025000Y-134250000D03*
D15*
G36*
X137770671Y-116394030D02*
G01*
X137851777Y-116448223D01*
X137905970Y-116529329D01*
X137925000Y-116625000D01*
X137925000Y-117875000D01*
X137905970Y-117970671D01*
X137851777Y-118051777D01*
X137770671Y-118105970D01*
X137675000Y-118125000D01*
X136925000Y-118125000D01*
X136829329Y-118105970D01*
X136748223Y-118051777D01*
X136694030Y-117970671D01*
X136675000Y-117875000D01*
X136675000Y-116625000D01*
X136694030Y-116529329D01*
X136748223Y-116448223D01*
X136829329Y-116394030D01*
X136925000Y-116375000D01*
X137675000Y-116375000D01*
X137770671Y-116394030D01*
G37*
D19*
X137300000Y-117250000D03*
D15*
G36*
X134970671Y-116394030D02*
G01*
X135051777Y-116448223D01*
X135105970Y-116529329D01*
X135125000Y-116625000D01*
X135125000Y-117875000D01*
X135105970Y-117970671D01*
X135051777Y-118051777D01*
X134970671Y-118105970D01*
X134875000Y-118125000D01*
X134125000Y-118125000D01*
X134029329Y-118105970D01*
X133948223Y-118051777D01*
X133894030Y-117970671D01*
X133875000Y-117875000D01*
X133875000Y-116625000D01*
X133894030Y-116529329D01*
X133948223Y-116448223D01*
X134029329Y-116394030D01*
X134125000Y-116375000D01*
X134875000Y-116375000D01*
X134970671Y-116394030D01*
G37*
D19*
X134500000Y-117250000D03*
D15*
G36*
X147970671Y-124644030D02*
G01*
X148051777Y-124698223D01*
X148105970Y-124779329D01*
X148125000Y-124875000D01*
X148125000Y-126125000D01*
X148105970Y-126220671D01*
X148051777Y-126301777D01*
X147970671Y-126355970D01*
X147875000Y-126375000D01*
X147125000Y-126375000D01*
X147029329Y-126355970D01*
X146948223Y-126301777D01*
X146894030Y-126220671D01*
X146875000Y-126125000D01*
X146875000Y-124875000D01*
X146894030Y-124779329D01*
X146948223Y-124698223D01*
X147029329Y-124644030D01*
X147125000Y-124625000D01*
X147875000Y-124625000D01*
X147970671Y-124644030D01*
G37*
D19*
X147500000Y-125500000D03*
D15*
G36*
X145170671Y-124644030D02*
G01*
X145251777Y-124698223D01*
X145305970Y-124779329D01*
X145325000Y-124875000D01*
X145325000Y-126125000D01*
X145305970Y-126220671D01*
X145251777Y-126301777D01*
X145170671Y-126355970D01*
X145075000Y-126375000D01*
X144325000Y-126375000D01*
X144229329Y-126355970D01*
X144148223Y-126301777D01*
X144094030Y-126220671D01*
X144075000Y-126125000D01*
X144075000Y-124875000D01*
X144094030Y-124779329D01*
X144148223Y-124698223D01*
X144229329Y-124644030D01*
X144325000Y-124625000D01*
X145075000Y-124625000D01*
X145170671Y-124644030D01*
G37*
D19*
X144700000Y-125500000D03*
D15*
G36*
X155470671Y-144244030D02*
G01*
X155551777Y-144298223D01*
X155605970Y-144379329D01*
X155625000Y-144475000D01*
X155625000Y-145225000D01*
X155605970Y-145320671D01*
X155551777Y-145401777D01*
X155470671Y-145455970D01*
X155375000Y-145475000D01*
X154125000Y-145475000D01*
X154029329Y-145455970D01*
X153948223Y-145401777D01*
X153894030Y-145320671D01*
X153875000Y-145225000D01*
X153875000Y-144475000D01*
X153894030Y-144379329D01*
X153948223Y-144298223D01*
X154029329Y-144244030D01*
X154125000Y-144225000D01*
X155375000Y-144225000D01*
X155470671Y-144244030D01*
G37*
D19*
X154750000Y-144850000D03*
D15*
G36*
X155470671Y-147044030D02*
G01*
X155551777Y-147098223D01*
X155605970Y-147179329D01*
X155625000Y-147275000D01*
X155625000Y-148025000D01*
X155605970Y-148120671D01*
X155551777Y-148201777D01*
X155470671Y-148255970D01*
X155375000Y-148275000D01*
X154125000Y-148275000D01*
X154029329Y-148255970D01*
X153948223Y-148201777D01*
X153894030Y-148120671D01*
X153875000Y-148025000D01*
X153875000Y-147275000D01*
X153894030Y-147179329D01*
X153948223Y-147098223D01*
X154029329Y-147044030D01*
X154125000Y-147025000D01*
X155375000Y-147025000D01*
X155470671Y-147044030D01*
G37*
D19*
X154750000Y-147650000D03*
D15*
G36*
X143720671Y-135244030D02*
G01*
X143801777Y-135298223D01*
X143855970Y-135379329D01*
X143875000Y-135475000D01*
X143875000Y-136225000D01*
X143855970Y-136320671D01*
X143801777Y-136401777D01*
X143720671Y-136455970D01*
X143625000Y-136475000D01*
X142375000Y-136475000D01*
X142279329Y-136455970D01*
X142198223Y-136401777D01*
X142144030Y-136320671D01*
X142125000Y-136225000D01*
X142125000Y-135475000D01*
X142144030Y-135379329D01*
X142198223Y-135298223D01*
X142279329Y-135244030D01*
X142375000Y-135225000D01*
X143625000Y-135225000D01*
X143720671Y-135244030D01*
G37*
D19*
X143000000Y-135850000D03*
D15*
G36*
X143720671Y-138044030D02*
G01*
X143801777Y-138098223D01*
X143855970Y-138179329D01*
X143875000Y-138275000D01*
X143875000Y-139025000D01*
X143855970Y-139120671D01*
X143801777Y-139201777D01*
X143720671Y-139255970D01*
X143625000Y-139275000D01*
X142375000Y-139275000D01*
X142279329Y-139255970D01*
X142198223Y-139201777D01*
X142144030Y-139120671D01*
X142125000Y-139025000D01*
X142125000Y-138275000D01*
X142144030Y-138179329D01*
X142198223Y-138098223D01*
X142279329Y-138044030D01*
X142375000Y-138025000D01*
X143625000Y-138025000D01*
X143720671Y-138044030D01*
G37*
D19*
X143000000Y-138650000D03*
D15*
G36*
X145970671Y-135244030D02*
G01*
X146051777Y-135298223D01*
X146105970Y-135379329D01*
X146125000Y-135475000D01*
X146125000Y-136225000D01*
X146105970Y-136320671D01*
X146051777Y-136401777D01*
X145970671Y-136455970D01*
X145875000Y-136475000D01*
X144625000Y-136475000D01*
X144529329Y-136455970D01*
X144448223Y-136401777D01*
X144394030Y-136320671D01*
X144375000Y-136225000D01*
X144375000Y-135475000D01*
X144394030Y-135379329D01*
X144448223Y-135298223D01*
X144529329Y-135244030D01*
X144625000Y-135225000D01*
X145875000Y-135225000D01*
X145970671Y-135244030D01*
G37*
D19*
X145250000Y-135850000D03*
D15*
G36*
X145970671Y-138044030D02*
G01*
X146051777Y-138098223D01*
X146105970Y-138179329D01*
X146125000Y-138275000D01*
X146125000Y-139025000D01*
X146105970Y-139120671D01*
X146051777Y-139201777D01*
X145970671Y-139255970D01*
X145875000Y-139275000D01*
X144625000Y-139275000D01*
X144529329Y-139255970D01*
X144448223Y-139201777D01*
X144394030Y-139120671D01*
X144375000Y-139025000D01*
X144375000Y-138275000D01*
X144394030Y-138179329D01*
X144448223Y-138098223D01*
X144529329Y-138044030D01*
X144625000Y-138025000D01*
X145875000Y-138025000D01*
X145970671Y-138044030D01*
G37*
D19*
X145250000Y-138650000D03*
D15*
G36*
X155720671Y-121394030D02*
G01*
X155801777Y-121448223D01*
X155855970Y-121529329D01*
X155875000Y-121625000D01*
X155875000Y-122375000D01*
X155855970Y-122470671D01*
X155801777Y-122551777D01*
X155720671Y-122605970D01*
X155625000Y-122625000D01*
X154375000Y-122625000D01*
X154279329Y-122605970D01*
X154198223Y-122551777D01*
X154144030Y-122470671D01*
X154125000Y-122375000D01*
X154125000Y-121625000D01*
X154144030Y-121529329D01*
X154198223Y-121448223D01*
X154279329Y-121394030D01*
X154375000Y-121375000D01*
X155625000Y-121375000D01*
X155720671Y-121394030D01*
G37*
D19*
X155000000Y-122000000D03*
D15*
G36*
X155720671Y-124194030D02*
G01*
X155801777Y-124248223D01*
X155855970Y-124329329D01*
X155875000Y-124425000D01*
X155875000Y-125175000D01*
X155855970Y-125270671D01*
X155801777Y-125351777D01*
X155720671Y-125405970D01*
X155625000Y-125425000D01*
X154375000Y-125425000D01*
X154279329Y-125405970D01*
X154198223Y-125351777D01*
X154144030Y-125270671D01*
X154125000Y-125175000D01*
X154125000Y-124425000D01*
X154144030Y-124329329D01*
X154198223Y-124248223D01*
X154279329Y-124194030D01*
X154375000Y-124175000D01*
X155625000Y-124175000D01*
X155720671Y-124194030D01*
G37*
D19*
X155000000Y-124800000D03*
D21*
X154750000Y-152500000D03*
X159000000Y-152500000D03*
X150500000Y-152500000D03*
X125000000Y-152500000D03*
X129250000Y-152500000D03*
X120750000Y-152500000D03*
D12*
X155000000Y-131550000D03*
D22*
X156475000Y-130800000D03*
X156475000Y-131300000D03*
X156475000Y-131800000D03*
X156475000Y-132300000D03*
D23*
X155750000Y-133025000D03*
X155250000Y-133025000D03*
X154750000Y-133025000D03*
X154250000Y-133025000D03*
D22*
X153525000Y-132300000D03*
X153525000Y-131800000D03*
X153525000Y-131300000D03*
X153525000Y-130800000D03*
D23*
X154250000Y-130075000D03*
X154750000Y-130075000D03*
X155250000Y-130075000D03*
X155750000Y-130075000D03*
D24*
X133500000Y-112992700D03*
D15*
G36*
X134600000Y-112492700D02*
G01*
X133900000Y-113492700D01*
X133100000Y-113492700D01*
X132400000Y-112492700D01*
X134600000Y-112492700D01*
G37*
D25*
X133500000Y-111583000D03*
D26*
X135000000Y-114396500D03*
D27*
X133500000Y-114250000D03*
D26*
X132000000Y-114396500D03*
D28*
X133500000Y-110249500D03*
D15*
G36*
X132400000Y-110674500D02*
G01*
X133000000Y-109824500D01*
X134000000Y-109824500D01*
X134600000Y-110674500D01*
X132400000Y-110674500D01*
G37*
D24*
X122742700Y-121000000D03*
D15*
G36*
X122242700Y-119900000D02*
G01*
X123242700Y-120600000D01*
X123242700Y-121400000D01*
X122242700Y-122100000D01*
X122242700Y-119900000D01*
G37*
D29*
X121333000Y-121000000D03*
D30*
X124146500Y-119500000D03*
D31*
X124000000Y-121000000D03*
D30*
X124146500Y-122500000D03*
D28*
X119999500Y-121000000D03*
D15*
G36*
X120424500Y-122100000D02*
G01*
X119574500Y-121500000D01*
X119574500Y-120500000D01*
X120424500Y-119900000D01*
X120424500Y-122100000D01*
G37*
D24*
X123242700Y-138250000D03*
D15*
G36*
X122742700Y-137150000D02*
G01*
X123742700Y-137850000D01*
X123742700Y-138650000D01*
X122742700Y-139350000D01*
X122742700Y-137150000D01*
G37*
D29*
X121833000Y-138250000D03*
D30*
X124646500Y-136750000D03*
D31*
X124500000Y-138250000D03*
D30*
X124646500Y-139750000D03*
D28*
X120499500Y-138250000D03*
D15*
G36*
X120924500Y-139350000D02*
G01*
X120074500Y-138750000D01*
X120074500Y-137750000D01*
X120924500Y-137150000D01*
X120924500Y-139350000D01*
G37*
D13*
X149525000Y-145725000D03*
X141500000Y-136250000D03*
X140500000Y-136250000D03*
X141000000Y-135500000D03*
X140000000Y-135500000D03*
X140500000Y-134750000D03*
X141500000Y-134750000D03*
X142000000Y-134000000D03*
X141000000Y-134000000D03*
X140000000Y-134000000D03*
X140500000Y-133250000D03*
X141500000Y-133250000D03*
X133500000Y-109250000D03*
X134500000Y-110000000D03*
X132500000Y-110000000D03*
X132000000Y-112000000D03*
X135000000Y-112000000D03*
X134000000Y-147000000D03*
X133000000Y-147000000D03*
X132000000Y-148000000D03*
X131000000Y-153000000D03*
X131000000Y-151000000D03*
X131000000Y-149000000D03*
X149000000Y-154000000D03*
X149000000Y-153000000D03*
X149000000Y-151000000D03*
X148975000Y-148975000D03*
X161000000Y-154000000D03*
X161000000Y-152000000D03*
X161000000Y-150000000D03*
X119000000Y-153000000D03*
X119000000Y-151000000D03*
X120000000Y-149000000D03*
X120000000Y-147000000D03*
X120000000Y-145000000D03*
X120000000Y-143000000D03*
X120000000Y-141000000D03*
X120750000Y-138250000D03*
X121750000Y-138250000D03*
X122750000Y-138250000D03*
X121000000Y-136000000D03*
X122000000Y-135000000D03*
X122000000Y-133000000D03*
X122000000Y-131000000D03*
X122000000Y-129000000D03*
X122000000Y-127000000D03*
X122000000Y-125000000D03*
X122000000Y-123000000D03*
X122000000Y-119000000D03*
X122000000Y-117000000D03*
X122000000Y-115000000D03*
X122000000Y-113000000D03*
X122000000Y-111000000D03*
X124000000Y-111000000D03*
X126000000Y-111000000D03*
X128000000Y-111000000D03*
X130000000Y-111000000D03*
X132000000Y-111000000D03*
X135000000Y-111000000D03*
X137000000Y-111000000D03*
X139000000Y-111000000D03*
X141000000Y-111000000D03*
X143000000Y-111000000D03*
X145000000Y-111000000D03*
X147000000Y-111000000D03*
X149000000Y-111000000D03*
X151000000Y-111000000D03*
X153000000Y-113000000D03*
X155000000Y-115000000D03*
X157000000Y-117000000D03*
X159000000Y-119000000D03*
X159000000Y-121000000D03*
X159000000Y-123000000D03*
X159000000Y-125000000D03*
X159000000Y-127000000D03*
X159000000Y-129000000D03*
X160000000Y-135000000D03*
X160000000Y-137000000D03*
X160000000Y-139000000D03*
X160000000Y-141000000D03*
X160000000Y-143000000D03*
X160000000Y-145000000D03*
X160000000Y-147000000D03*
X159000000Y-149000000D03*
X147000000Y-117250000D03*
X145000000Y-117250000D03*
X146000000Y-117250000D03*
X147500000Y-118000000D03*
X146500000Y-118000000D03*
X145500000Y-118000000D03*
X144500000Y-118000000D03*
X134750000Y-118750000D03*
X133500000Y-115750000D03*
X133750000Y-118750000D03*
X132750000Y-118750000D03*
X132750000Y-117750000D03*
X132750000Y-116750000D03*
X147000000Y-142250000D03*
X146000000Y-142250000D03*
X140000000Y-142250000D03*
X141000000Y-142250000D03*
X142000000Y-142250000D03*
X143000000Y-142250000D03*
X144000000Y-142250000D03*
X145000000Y-142250000D03*
X158500000Y-133000000D03*
X159500000Y-133000000D03*
X160500000Y-133000000D03*
X161500000Y-133000000D03*
X162500000Y-133000000D03*
X163500000Y-133000000D03*
X164500000Y-133000000D03*
X165500000Y-133000000D03*
X165000000Y-132250000D03*
X164000000Y-132250000D03*
X163000000Y-132250000D03*
X162000000Y-132250000D03*
X161000000Y-132250000D03*
X160000000Y-132250000D03*
X159000000Y-132250000D03*
X158000000Y-132250000D03*
X157500000Y-131500000D03*
X158500000Y-131500000D03*
X159500000Y-131500000D03*
X160500000Y-131500000D03*
X161500000Y-131500000D03*
X162500000Y-131500000D03*
X163500000Y-131500000D03*
X164500000Y-131500000D03*
X165500000Y-131500000D03*
X165000000Y-130750000D03*
X164000000Y-130750000D03*
X163000000Y-130750000D03*
X162000000Y-130750000D03*
X161000000Y-130750000D03*
X160000000Y-130750000D03*
X158000000Y-130750000D03*
X159000000Y-130750000D03*
X158500000Y-130000000D03*
X159500000Y-130000000D03*
X160500000Y-130000000D03*
X161500000Y-130000000D03*
X162500000Y-130000000D03*
X163500000Y-130000000D03*
X164500000Y-130000000D03*
X165500000Y-130000000D03*
X143750000Y-133000000D03*
X144750000Y-133000000D03*
X145750000Y-133000000D03*
X146750000Y-133000000D03*
X147750000Y-133000000D03*
X148750000Y-133000000D03*
X149750000Y-133000000D03*
X150750000Y-133000000D03*
X151750000Y-133000000D03*
X152750000Y-131500000D03*
X152250000Y-132250000D03*
X152250000Y-130750000D03*
X151750000Y-131500000D03*
X151250000Y-132250000D03*
X150250000Y-132250000D03*
X149250000Y-132250000D03*
X148250000Y-132250000D03*
X147250000Y-132250000D03*
X146250000Y-132250000D03*
X145250000Y-132250000D03*
X144250000Y-132250000D03*
X143750000Y-131500000D03*
X144750000Y-131500000D03*
X145750000Y-131500000D03*
X146750000Y-131500000D03*
X147750000Y-131500000D03*
X148750000Y-131500000D03*
X149750000Y-131500000D03*
X150750000Y-131500000D03*
X151250000Y-130750000D03*
X150750000Y-130000000D03*
X150250000Y-130750000D03*
X149250000Y-130750000D03*
X148250000Y-130750000D03*
X147250000Y-130750000D03*
X146250000Y-130750000D03*
X145250000Y-130750000D03*
X144250000Y-130750000D03*
X149750000Y-130000000D03*
X148750000Y-130000000D03*
X147750000Y-130000000D03*
X146750000Y-130000000D03*
X145750000Y-130000000D03*
X144750000Y-130000000D03*
X143750000Y-130000000D03*
X154600000Y-131100000D03*
X154600000Y-132000000D03*
X155500000Y-132000000D03*
X155500000Y-131100000D03*
X133000000Y-112250000D03*
X133000000Y-111250000D03*
X133500000Y-110250000D03*
X134000000Y-111250000D03*
X134000000Y-112250000D03*
X133500000Y-113250000D03*
X122000000Y-121000000D03*
X121000000Y-121000000D03*
X120000000Y-121000000D03*
D32*
X146237500Y-143925000D02*
X147825000Y-143925000D01*
X149575000Y-145700000D02*
X149550000Y-145700000D01*
X149550000Y-145700000D02*
X149525000Y-145725000D01*
X149575000Y-143925000D02*
X149575000Y-145700000D01*
D33*
X155250000Y-130075000D02*
X155250000Y-126950000D01*
X155250000Y-126950000D02*
X155250000Y-125350000D01*
X155200000Y-127000000D02*
X155250000Y-126950000D01*
X154600000Y-127000000D02*
X155200000Y-127000000D01*
X155000000Y-125100000D02*
X155250000Y-125350000D01*
X155000000Y-124800000D02*
X155000000Y-125100000D01*
X154600000Y-127000000D02*
X155975000Y-127000000D01*
X154750000Y-130075000D02*
X155250000Y-130075000D01*
X124646500Y-139750000D02*
X124646500Y-141709000D01*
X124646500Y-141709000D02*
X125000000Y-142062500D01*
X124500000Y-139896500D02*
X124646500Y-139750000D01*
X154300000Y-135250000D02*
X155725000Y-135250000D01*
X155050000Y-136000000D02*
X155000000Y-136050000D01*
X155000000Y-136050000D02*
X155000000Y-137000000D01*
X154850000Y-135200000D02*
X154300000Y-135750000D01*
X155050000Y-136000000D02*
X155000000Y-135950000D01*
X155250000Y-133025000D02*
X155000000Y-133275000D01*
X155000000Y-133275000D02*
X155000000Y-135950000D01*
X155250000Y-133025000D02*
X154750000Y-133025000D01*
X143500000Y-114287500D02*
X142037500Y-114287500D01*
X142000000Y-114250000D02*
X142037500Y-114287500D01*
X142037500Y-114287500D02*
X139537500Y-114287500D01*
X142000000Y-114037500D02*
X142000000Y-114250000D01*
X139537500Y-114287500D02*
X135109000Y-114287500D01*
X139500000Y-114975000D02*
X139500000Y-114300000D01*
X139500000Y-114300000D02*
X139512500Y-114287500D01*
X139512500Y-114287500D02*
X139537500Y-114287500D01*
X135109000Y-114287500D02*
X135000000Y-114396500D01*
X124437500Y-132250000D02*
X124437500Y-134312500D01*
X124975000Y-134250000D02*
X124500000Y-134250000D01*
X124437500Y-134312500D02*
X124437500Y-136541000D01*
X124500000Y-134250000D02*
X124437500Y-134312500D01*
X124437500Y-136541000D02*
X124646500Y-136750000D01*
X124500000Y-130187500D02*
X124500000Y-132187500D01*
X124500000Y-132187500D02*
X124437500Y-132250000D01*
X155000000Y-139050000D02*
X155000000Y-144600000D01*
X155000000Y-144600000D02*
X154750000Y-144850000D01*
X147250000Y-114250000D02*
X147650000Y-114250000D01*
X147650000Y-114250000D02*
X155000000Y-121600000D01*
X155000000Y-121600000D02*
X155000000Y-122000000D01*
X147250000Y-114250000D02*
X145687500Y-114250000D01*
X128287500Y-114000000D02*
X131603500Y-114000000D01*
X131603500Y-114000000D02*
X132000000Y-114396500D01*
X124146500Y-119500000D02*
X124475000Y-119171500D01*
X124475000Y-119171500D02*
X124475000Y-116225000D01*
X124475000Y-116225000D02*
X126700000Y-114000000D01*
X126700000Y-114000000D02*
X126712500Y-114000000D01*
X124146500Y-122896500D02*
X124500000Y-123250000D01*
X124500000Y-123250000D02*
X124500000Y-124675000D01*
X124146500Y-122500000D02*
X124146500Y-122896500D01*
X124646500Y-124528500D02*
X124500000Y-124675000D01*
X124500000Y-126250000D02*
X124500000Y-128312500D01*
X125000000Y-143937500D02*
X125000000Y-145962500D01*
X154750000Y-147650000D02*
X154750000Y-152500000D01*
X125000000Y-147537500D02*
X125000000Y-152500000D01*
D34*
X149900000Y-135750000D02*
X151000000Y-135750000D01*
D32*
X151000000Y-135750000D02*
X151500000Y-135250000D01*
X151025000Y-125500000D02*
X151050000Y-125500000D01*
X151050000Y-125500000D02*
X152550000Y-127000000D01*
X126525000Y-116750000D02*
X126525000Y-118937500D01*
X126525000Y-118937500D02*
X126500000Y-118962500D01*
X126750000Y-116975000D02*
X126525000Y-116750000D01*
X127250000Y-135962500D02*
X127250000Y-134475000D01*
X127250000Y-134475000D02*
X127025000Y-134250000D01*
X144700000Y-125500000D02*
X144225000Y-125500000D01*
X144225000Y-125500000D02*
X143000000Y-126725000D01*
D35*
X142460000Y-146460000D02*
X137250000Y-141250000D01*
X137250000Y-141250000D02*
X137250000Y-126750000D01*
X142460000Y-148000000D02*
X142460000Y-146460000D01*
X142000000Y-122000000D02*
X137250000Y-126750000D01*
X145750000Y-122000000D02*
X142000000Y-122000000D01*
X147500000Y-123750000D02*
X145750000Y-122000000D01*
X147500000Y-125500000D02*
X147500000Y-123750000D01*
D32*
X148975000Y-125500000D02*
X147500000Y-125500000D01*
X142150000Y-138650000D02*
X142150000Y-140475000D01*
X144750000Y-138650000D02*
X144750000Y-140575000D01*
X142500000Y-135250000D02*
X142400000Y-135350000D01*
X145000000Y-142250000D02*
X145000000Y-143587500D01*
X145000000Y-143587500D02*
X144662500Y-143925000D01*
X120750000Y-138250000D02*
X120499500Y-138250000D01*
X121750000Y-138250000D02*
X120750000Y-138250000D01*
X122750000Y-138250000D02*
X121750000Y-138250000D01*
X133500000Y-115750000D02*
X133500000Y-116250000D01*
X143000000Y-128775000D02*
X143000000Y-129250000D01*
X143000000Y-129250000D02*
X143750000Y-130000000D01*
X124500000Y-138250000D02*
X122750000Y-138250000D01*
X144000000Y-130500000D02*
X144250000Y-130750000D01*
X124500000Y-138250000D02*
X126537500Y-138250000D01*
X126537500Y-138250000D02*
X127250000Y-137537500D01*
X133500000Y-114250000D02*
X133500000Y-115750000D01*
X133500000Y-116250000D02*
X134500000Y-117250000D01*
X155000000Y-131550000D02*
X155000000Y-131500000D01*
X155000000Y-131500000D02*
X154600000Y-131100000D01*
X155000000Y-131550000D02*
X155000000Y-131600000D01*
X155000000Y-131600000D02*
X154600000Y-132000000D01*
X155050000Y-131550000D02*
X155500000Y-132000000D01*
X155000000Y-131550000D02*
X155050000Y-131550000D01*
X155050000Y-131550000D02*
X155500000Y-131100000D01*
D36*
G36*
X137206801Y-146525334D02*
G01*
X137129058Y-146531931D01*
X136885292Y-146595200D01*
X136655671Y-146698637D01*
X136446760Y-146839284D01*
X136264534Y-147013119D01*
X136114203Y-147215172D01*
X136000064Y-147439666D01*
X135925382Y-147680181D01*
X135892292Y-147929841D01*
X135901740Y-148181508D01*
X135953456Y-148427983D01*
X136045961Y-148662222D01*
X136176610Y-148877526D01*
X136341669Y-149067739D01*
X136536416Y-149227422D01*
X136610061Y-149269343D01*
X136446760Y-149379284D01*
X136264534Y-149553119D01*
X136114203Y-149755172D01*
X136000064Y-149979666D01*
X135925382Y-150220181D01*
X135892292Y-150469841D01*
X135901740Y-150721508D01*
X135953456Y-150967983D01*
X136045961Y-151202222D01*
X136176610Y-151417526D01*
X136341669Y-151607739D01*
X136536416Y-151767422D01*
X136755284Y-151892009D01*
X136994831Y-151978960D01*
X137334648Y-152024000D01*
X137443190Y-152024000D01*
X137630942Y-152008069D01*
X137874708Y-151944800D01*
X138104329Y-151841363D01*
X138166000Y-151799844D01*
X138166000Y-151913546D01*
X138219619Y-152160028D01*
X138319875Y-152316030D01*
X138456533Y-152434445D01*
X138621017Y-152509561D01*
X138790988Y-152534000D01*
X141113546Y-152534000D01*
X141360028Y-152480381D01*
X141516030Y-152380125D01*
X141634445Y-152243467D01*
X141709561Y-152078983D01*
X141734000Y-151909012D01*
X141734000Y-151834354D01*
X141835284Y-151892009D01*
X142074831Y-151978960D01*
X142414648Y-152024000D01*
X142523190Y-152024000D01*
X142710942Y-152008069D01*
X142954708Y-151944800D01*
X143184329Y-151841363D01*
X143393240Y-151700716D01*
X143575466Y-151526881D01*
X143725797Y-151324828D01*
X143732436Y-151311770D01*
X143796610Y-151417526D01*
X143961669Y-151607739D01*
X144156416Y-151767422D01*
X144375284Y-151892009D01*
X144614831Y-151978960D01*
X144872000Y-152013047D01*
X144872000Y-150668000D01*
X145128000Y-150668000D01*
X145128000Y-152039978D01*
X145494708Y-151944800D01*
X145724329Y-151841363D01*
X145933240Y-151700716D01*
X146115466Y-151526881D01*
X146265797Y-151324828D01*
X146379936Y-151100334D01*
X146454618Y-150859819D01*
X146480043Y-150668000D01*
X145128000Y-150668000D01*
X144872000Y-150668000D01*
X144872000Y-150412000D01*
X146489487Y-150412000D01*
X146426544Y-150112017D01*
X146362157Y-149948976D01*
X149108163Y-149948976D01*
X149108163Y-152372000D01*
X150372000Y-152372000D01*
X150372000Y-149318163D01*
X149733412Y-149318163D01*
X149432489Y-149398795D01*
X149256835Y-149546185D01*
X149145044Y-149739814D01*
X149108163Y-149948976D01*
X146362157Y-149948976D01*
X146334039Y-149877778D01*
X146203390Y-149662474D01*
X146038331Y-149472261D01*
X146014025Y-149452331D01*
X146167512Y-149411205D01*
X146343165Y-149263815D01*
X146454956Y-149070186D01*
X146491837Y-148861024D01*
X146491837Y-148128000D01*
X144872000Y-148128000D01*
X144872000Y-146508163D01*
X145128000Y-146508163D01*
X145128000Y-147872000D01*
X146491837Y-147872000D01*
X146491837Y-147133412D01*
X146411205Y-146832489D01*
X146263815Y-146656835D01*
X146070186Y-146545044D01*
X145861024Y-146508163D01*
X145128000Y-146508163D01*
X144872000Y-146508163D01*
X144133412Y-146508163D01*
X143832489Y-146588795D01*
X143656835Y-146736185D01*
X143594000Y-146845019D01*
X143594000Y-146499317D01*
X143600756Y-146400215D01*
X143582268Y-146294283D01*
X143569349Y-146187517D01*
X143558729Y-146159413D01*
X143553566Y-146129833D01*
X143551883Y-146126000D01*
X147947810Y-146126000D01*
X150947809Y-149126000D01*
X151624000Y-149126000D01*
X151624000Y-149443848D01*
X151470186Y-149355044D01*
X151261024Y-149318163D01*
X150628000Y-149318163D01*
X150628000Y-152628000D01*
X149108163Y-152628000D01*
X149108163Y-154366000D01*
X130641837Y-154366000D01*
X130641837Y-152628000D01*
X129122000Y-152628000D01*
X129122000Y-149318163D01*
X129378000Y-149318163D01*
X129378000Y-152372000D01*
X130641837Y-152372000D01*
X130641837Y-149943412D01*
X130561205Y-149642489D01*
X130413815Y-149466835D01*
X130220186Y-149355044D01*
X130011024Y-149318163D01*
X129378000Y-149318163D01*
X129122000Y-149318163D01*
X129053994Y-149318163D01*
X133044198Y-146126000D01*
X136244406Y-146126000D01*
X137206801Y-146525334D01*
G37*
X137206801Y-146525334D02*
X137129058Y-146531931D01*
X136885292Y-146595200D01*
X136655671Y-146698637D01*
X136446760Y-146839284D01*
X136264534Y-147013119D01*
X136114203Y-147215172D01*
X136000064Y-147439666D01*
X135925382Y-147680181D01*
X135892292Y-147929841D01*
X135901740Y-148181508D01*
X135953456Y-148427983D01*
X136045961Y-148662222D01*
X136176610Y-148877526D01*
X136341669Y-149067739D01*
X136536416Y-149227422D01*
X136610061Y-149269343D01*
X136446760Y-149379284D01*
X136264534Y-149553119D01*
X136114203Y-149755172D01*
X136000064Y-149979666D01*
X135925382Y-150220181D01*
X135892292Y-150469841D01*
X135901740Y-150721508D01*
X135953456Y-150967983D01*
X136045961Y-151202222D01*
X136176610Y-151417526D01*
X136341669Y-151607739D01*
X136536416Y-151767422D01*
X136755284Y-151892009D01*
X136994831Y-151978960D01*
X137334648Y-152024000D01*
X137443190Y-152024000D01*
X137630942Y-152008069D01*
X137874708Y-151944800D01*
X138104329Y-151841363D01*
X138166000Y-151799844D01*
X138166000Y-151913546D01*
X138219619Y-152160028D01*
X138319875Y-152316030D01*
X138456533Y-152434445D01*
X138621017Y-152509561D01*
X138790988Y-152534000D01*
X141113546Y-152534000D01*
X141360028Y-152480381D01*
X141516030Y-152380125D01*
X141634445Y-152243467D01*
X141709561Y-152078983D01*
X141734000Y-151909012D01*
X141734000Y-151834354D01*
X141835284Y-151892009D01*
X142074831Y-151978960D01*
X142414648Y-152024000D01*
X142523190Y-152024000D01*
X142710942Y-152008069D01*
X142954708Y-151944800D01*
X143184329Y-151841363D01*
X143393240Y-151700716D01*
X143575466Y-151526881D01*
X143725797Y-151324828D01*
X143732436Y-151311770D01*
X143796610Y-151417526D01*
X143961669Y-151607739D01*
X144156416Y-151767422D01*
X144375284Y-151892009D01*
X144614831Y-151978960D01*
X144872000Y-152013047D01*
X144872000Y-150668000D01*
X145128000Y-150668000D01*
X145128000Y-152039978D01*
X145494708Y-151944800D01*
X145724329Y-151841363D01*
X145933240Y-151700716D01*
X146115466Y-151526881D01*
X146265797Y-151324828D01*
X146379936Y-151100334D01*
X146454618Y-150859819D01*
X146480043Y-150668000D01*
X145128000Y-150668000D01*
X144872000Y-150668000D01*
X144872000Y-150412000D01*
X146489487Y-150412000D01*
X146426544Y-150112017D01*
X146362157Y-149948976D01*
X149108163Y-149948976D01*
X149108163Y-152372000D01*
X150372000Y-152372000D01*
X150372000Y-149318163D01*
X149733412Y-149318163D01*
X149432489Y-149398795D01*
X149256835Y-149546185D01*
X149145044Y-149739814D01*
X149108163Y-149948976D01*
X146362157Y-149948976D01*
X146334039Y-149877778D01*
X146203390Y-149662474D01*
X146038331Y-149472261D01*
X146014025Y-149452331D01*
X146167512Y-149411205D01*
X146343165Y-149263815D01*
X146454956Y-149070186D01*
X146491837Y-148861024D01*
X146491837Y-148128000D01*
X144872000Y-148128000D01*
X144872000Y-146508163D01*
X145128000Y-146508163D01*
X145128000Y-147872000D01*
X146491837Y-147872000D01*
X146491837Y-147133412D01*
X146411205Y-146832489D01*
X146263815Y-146656835D01*
X146070186Y-146545044D01*
X145861024Y-146508163D01*
X145128000Y-146508163D01*
X144872000Y-146508163D01*
X144133412Y-146508163D01*
X143832489Y-146588795D01*
X143656835Y-146736185D01*
X143594000Y-146845019D01*
X143594000Y-146499317D01*
X143600756Y-146400215D01*
X143582268Y-146294283D01*
X143569349Y-146187517D01*
X143558729Y-146159413D01*
X143553566Y-146129833D01*
X143551883Y-146126000D01*
X147947810Y-146126000D01*
X150947809Y-149126000D01*
X151624000Y-149126000D01*
X151624000Y-149443848D01*
X151470186Y-149355044D01*
X151261024Y-149318163D01*
X150628000Y-149318163D01*
X150628000Y-152628000D01*
X149108163Y-152628000D01*
X149108163Y-154366000D01*
X130641837Y-154366000D01*
X130641837Y-152628000D01*
X129122000Y-152628000D01*
X129122000Y-149318163D01*
X129378000Y-149318163D01*
X129378000Y-152372000D01*
X130641837Y-152372000D01*
X130641837Y-149943412D01*
X130561205Y-149642489D01*
X130413815Y-149466835D01*
X130220186Y-149355044D01*
X130011024Y-149318163D01*
X129378000Y-149318163D01*
X129122000Y-149318163D01*
X129053994Y-149318163D01*
X133044198Y-146126000D01*
X136244406Y-146126000D01*
X137206801Y-146525334D01*
G36*
X170366001Y-154366000D02*
G01*
X157626000Y-154366000D01*
X157626000Y-153157763D01*
X163023257Y-153157763D01*
X163352443Y-153437923D01*
X163700561Y-153679871D01*
X164070628Y-153886695D01*
X164459111Y-154056419D01*
X164862303Y-154187423D01*
X165276353Y-154278458D01*
X165697311Y-154328654D01*
X166121158Y-154337532D01*
X166543849Y-154305009D01*
X166961348Y-154231392D01*
X167369672Y-154117386D01*
X167764922Y-153964079D01*
X168143325Y-153772933D01*
X168501269Y-153545775D01*
X168835338Y-153284772D01*
X168972825Y-153153845D01*
X166000000Y-150181019D01*
X163023257Y-153157763D01*
X157626000Y-153157763D01*
X157626000Y-150151437D01*
X161663418Y-150151437D01*
X161698894Y-150573890D01*
X161775422Y-150990866D01*
X161892277Y-151398383D01*
X162048339Y-151792553D01*
X162242121Y-152169612D01*
X162471773Y-152525962D01*
X162735103Y-152858202D01*
X162845972Y-152973007D01*
X165818981Y-150000000D01*
X166181019Y-150000000D01*
X169156748Y-152975728D01*
X169419356Y-152671493D01*
X169663729Y-152325073D01*
X169873130Y-151956458D01*
X170045562Y-151569170D01*
X170179379Y-151166903D01*
X170273302Y-150753499D01*
X170326546Y-150332026D01*
X170334130Y-149788908D01*
X170292675Y-149366113D01*
X170210331Y-148950246D01*
X170087799Y-148544401D01*
X169926247Y-148152448D01*
X169727220Y-147778132D01*
X169492615Y-147425022D01*
X169161717Y-147019303D01*
X166181019Y-150000000D01*
X165818981Y-150000000D01*
X162841071Y-147022091D01*
X162543678Y-147376508D01*
X162304165Y-147726308D01*
X162099931Y-148097809D01*
X161932923Y-148487468D01*
X161804737Y-148891563D01*
X161716594Y-149306240D01*
X161669338Y-149727538D01*
X161663418Y-150151437D01*
X157626000Y-150151437D01*
X157626000Y-149277674D01*
X158752621Y-146836660D01*
X163017680Y-146836660D01*
X166000000Y-149818981D01*
X168979228Y-146839752D01*
X168599298Y-146525446D01*
X168247835Y-146288382D01*
X167874917Y-146086746D01*
X167484102Y-145922462D01*
X167079121Y-145797100D01*
X166663840Y-145711855D01*
X166242222Y-145667541D01*
X165818292Y-145664582D01*
X165396096Y-145703004D01*
X164979666Y-145782443D01*
X164572973Y-145902138D01*
X164179903Y-146060949D01*
X163804205Y-146257359D01*
X163449467Y-146489494D01*
X163017680Y-146836660D01*
X158752621Y-146836660D01*
X159126000Y-146027674D01*
X159126000Y-137453390D01*
X157626000Y-135703390D01*
X157626000Y-119441454D01*
X152549034Y-115157763D01*
X163023257Y-115157763D01*
X163352443Y-115437923D01*
X163700561Y-115679871D01*
X164070628Y-115886695D01*
X164459111Y-116056419D01*
X164862303Y-116187423D01*
X165276353Y-116278458D01*
X165697311Y-116328654D01*
X166121158Y-116337532D01*
X166543849Y-116305009D01*
X166961348Y-116231392D01*
X167369672Y-116117386D01*
X167764922Y-115964079D01*
X168143325Y-115772933D01*
X168501269Y-115545775D01*
X168835338Y-115284772D01*
X168972825Y-115153845D01*
X166000000Y-112181019D01*
X163023257Y-115157763D01*
X152549034Y-115157763D01*
X149546055Y-112624000D01*
X136992156Y-112624000D01*
X134992156Y-112874000D01*
X130029745Y-112874000D01*
X129029745Y-112374000D01*
X122874000Y-112374000D01*
X122874000Y-118636996D01*
X122791544Y-118779814D01*
X122754663Y-118988976D01*
X122754663Y-120016588D01*
X122835295Y-120317512D01*
X122874000Y-120363639D01*
X122874000Y-120628703D01*
X123264038Y-120620425D01*
X123385477Y-120641837D01*
X124913088Y-120641837D01*
X125141752Y-120580567D01*
X127124000Y-120538491D01*
X127124000Y-121374000D01*
X124997341Y-121374000D01*
X124907524Y-121358163D01*
X123379912Y-121358163D01*
X123320807Y-121374000D01*
X123000160Y-121374000D01*
X122998939Y-121505965D01*
X122903336Y-121586185D01*
X122791544Y-121779814D01*
X122754663Y-121988976D01*
X122754663Y-123016588D01*
X122835295Y-123317512D01*
X122980562Y-123490635D01*
X122874482Y-134947328D01*
X120874000Y-136947809D01*
X120874000Y-154366000D01*
X110634000Y-154366000D01*
X110634000Y-153157763D01*
X112023257Y-153157763D01*
X112352443Y-153437923D01*
X112700561Y-153679871D01*
X113070628Y-153886695D01*
X113459111Y-154056419D01*
X113862303Y-154187423D01*
X114276353Y-154278458D01*
X114697311Y-154328654D01*
X115121158Y-154337532D01*
X115543849Y-154305009D01*
X115961348Y-154231392D01*
X116369672Y-154117386D01*
X116764922Y-153964079D01*
X117143325Y-153772933D01*
X117501269Y-153545775D01*
X117835338Y-153284772D01*
X117972825Y-153153845D01*
X115000000Y-150181019D01*
X112023257Y-153157763D01*
X110634000Y-153157763D01*
X110634000Y-150151437D01*
X110663418Y-150151437D01*
X110698894Y-150573890D01*
X110775422Y-150990866D01*
X110892277Y-151398383D01*
X111048339Y-151792553D01*
X111242121Y-152169612D01*
X111471773Y-152525962D01*
X111735103Y-152858202D01*
X111845972Y-152973007D01*
X114818981Y-150000000D01*
X115181019Y-150000000D01*
X118156748Y-152975728D01*
X118419356Y-152671493D01*
X118663729Y-152325073D01*
X118873130Y-151956458D01*
X119045562Y-151569170D01*
X119179379Y-151166903D01*
X119273302Y-150753499D01*
X119326546Y-150332026D01*
X119334130Y-149788908D01*
X119292675Y-149366113D01*
X119210331Y-148950246D01*
X119087799Y-148544401D01*
X118926247Y-148152448D01*
X118727220Y-147778132D01*
X118492615Y-147425022D01*
X118161717Y-147019303D01*
X115181019Y-150000000D01*
X114818981Y-150000000D01*
X111841071Y-147022091D01*
X111543678Y-147376508D01*
X111304165Y-147726308D01*
X111099931Y-148097809D01*
X110932923Y-148487468D01*
X110804737Y-148891563D01*
X110716594Y-149306240D01*
X110669338Y-149727538D01*
X110663418Y-150151437D01*
X110634000Y-150151437D01*
X110634000Y-146836660D01*
X112017680Y-146836660D01*
X115000000Y-149818981D01*
X117979228Y-146839752D01*
X117599298Y-146525446D01*
X117247835Y-146288382D01*
X116874917Y-146086746D01*
X116484102Y-145922462D01*
X116079121Y-145797100D01*
X115663840Y-145711855D01*
X115242222Y-145667541D01*
X114818292Y-145664582D01*
X114396096Y-145703004D01*
X113979666Y-145782443D01*
X113572973Y-145902138D01*
X113179903Y-146060949D01*
X112804205Y-146257359D01*
X112449467Y-146489494D01*
X112017680Y-146836660D01*
X110634000Y-146836660D01*
X110634000Y-121041000D01*
X112748500Y-121041000D01*
X112748500Y-140459000D01*
X118846500Y-140459000D01*
X118846500Y-121041000D01*
X112748500Y-121041000D01*
X110634000Y-121041000D01*
X110634000Y-115157763D01*
X112023257Y-115157763D01*
X112352443Y-115437923D01*
X112700561Y-115679871D01*
X113070628Y-115886695D01*
X113459111Y-116056419D01*
X113862303Y-116187423D01*
X114276353Y-116278458D01*
X114697311Y-116328654D01*
X115121158Y-116337532D01*
X115543849Y-116305009D01*
X115961348Y-116231392D01*
X116369672Y-116117386D01*
X116764922Y-115964079D01*
X117143325Y-115772933D01*
X117501269Y-115545775D01*
X117835338Y-115284772D01*
X117972825Y-115153845D01*
X115000000Y-112181019D01*
X112023257Y-115157763D01*
X110634000Y-115157763D01*
X110634000Y-112151437D01*
X110663418Y-112151437D01*
X110698894Y-112573890D01*
X110775422Y-112990866D01*
X110892277Y-113398383D01*
X111048339Y-113792553D01*
X111242121Y-114169612D01*
X111471773Y-114525962D01*
X111735103Y-114858202D01*
X111845972Y-114973007D01*
X114818981Y-112000000D01*
X115181019Y-112000000D01*
X118156748Y-114975728D01*
X118419356Y-114671493D01*
X118663729Y-114325073D01*
X118873130Y-113956458D01*
X119045562Y-113569170D01*
X119179379Y-113166903D01*
X119273302Y-112753499D01*
X119326546Y-112332026D01*
X119329067Y-112151437D01*
X161663418Y-112151437D01*
X161698894Y-112573890D01*
X161775422Y-112990866D01*
X161892277Y-113398383D01*
X162048339Y-113792553D01*
X162242121Y-114169612D01*
X162471773Y-114525962D01*
X162735103Y-114858202D01*
X162845972Y-114973007D01*
X165818981Y-112000000D01*
X166181019Y-112000000D01*
X169156748Y-114975728D01*
X169419356Y-114671493D01*
X169663729Y-114325073D01*
X169873130Y-113956458D01*
X170045562Y-113569170D01*
X170179379Y-113166903D01*
X170273302Y-112753499D01*
X170326546Y-112332026D01*
X170334130Y-111788908D01*
X170292675Y-111366113D01*
X170210331Y-110950246D01*
X170087799Y-110544401D01*
X169926247Y-110152448D01*
X169727220Y-109778132D01*
X169492615Y-109425022D01*
X169161717Y-109019303D01*
X166181019Y-112000000D01*
X165818981Y-112000000D01*
X162841071Y-109022091D01*
X162543678Y-109376508D01*
X162304165Y-109726308D01*
X162099931Y-110097809D01*
X161932923Y-110487468D01*
X161804737Y-110891563D01*
X161716594Y-111306240D01*
X161669338Y-111727538D01*
X161663418Y-112151437D01*
X119329067Y-112151437D01*
X119334130Y-111788908D01*
X119292675Y-111366113D01*
X119210331Y-110950246D01*
X119087799Y-110544401D01*
X118926247Y-110152448D01*
X118727220Y-109778132D01*
X118492615Y-109425022D01*
X118161717Y-109019303D01*
X115181019Y-112000000D01*
X114818981Y-112000000D01*
X111841071Y-109022091D01*
X111543678Y-109376508D01*
X111304165Y-109726308D01*
X111099931Y-110097809D01*
X110932923Y-110487468D01*
X110804737Y-110891563D01*
X110716594Y-111306240D01*
X110669338Y-111727538D01*
X110663418Y-112151437D01*
X110634000Y-112151437D01*
X110634000Y-108836660D01*
X112017680Y-108836660D01*
X115000000Y-111818981D01*
X117979228Y-108839752D01*
X117975491Y-108836660D01*
X163017680Y-108836660D01*
X166000000Y-111818981D01*
X168979228Y-108839752D01*
X168599298Y-108525446D01*
X168247835Y-108288382D01*
X167874917Y-108086746D01*
X167484102Y-107922462D01*
X167079121Y-107797100D01*
X166663840Y-107711855D01*
X166242222Y-107667541D01*
X165818292Y-107664582D01*
X165396096Y-107703004D01*
X164979666Y-107782443D01*
X164572973Y-107902138D01*
X164179903Y-108060949D01*
X163804205Y-108257359D01*
X163449467Y-108489494D01*
X163017680Y-108836660D01*
X117975491Y-108836660D01*
X117599298Y-108525446D01*
X117247835Y-108288382D01*
X116874917Y-108086746D01*
X116484102Y-107922462D01*
X116079121Y-107797100D01*
X115663840Y-107711855D01*
X115242222Y-107667541D01*
X114818292Y-107664582D01*
X114396096Y-107703004D01*
X113979666Y-107782443D01*
X113572973Y-107902138D01*
X113179903Y-108060949D01*
X112804205Y-108257359D01*
X112449467Y-108489494D01*
X112017680Y-108836660D01*
X110634000Y-108836660D01*
X110634000Y-107634000D01*
X170366000Y-107634000D01*
X170366001Y-154366000D01*
G37*
X170366001Y-154366000D02*
X157626000Y-154366000D01*
X157626000Y-153157763D01*
X163023257Y-153157763D01*
X163352443Y-153437923D01*
X163700561Y-153679871D01*
X164070628Y-153886695D01*
X164459111Y-154056419D01*
X164862303Y-154187423D01*
X165276353Y-154278458D01*
X165697311Y-154328654D01*
X166121158Y-154337532D01*
X166543849Y-154305009D01*
X166961348Y-154231392D01*
X167369672Y-154117386D01*
X167764922Y-153964079D01*
X168143325Y-153772933D01*
X168501269Y-153545775D01*
X168835338Y-153284772D01*
X168972825Y-153153845D01*
X166000000Y-150181019D01*
X163023257Y-153157763D01*
X157626000Y-153157763D01*
X157626000Y-150151437D01*
X161663418Y-150151437D01*
X161698894Y-150573890D01*
X161775422Y-150990866D01*
X161892277Y-151398383D01*
X162048339Y-151792553D01*
X162242121Y-152169612D01*
X162471773Y-152525962D01*
X162735103Y-152858202D01*
X162845972Y-152973007D01*
X165818981Y-150000000D01*
X166181019Y-150000000D01*
X169156748Y-152975728D01*
X169419356Y-152671493D01*
X169663729Y-152325073D01*
X169873130Y-151956458D01*
X170045562Y-151569170D01*
X170179379Y-151166903D01*
X170273302Y-150753499D01*
X170326546Y-150332026D01*
X170334130Y-149788908D01*
X170292675Y-149366113D01*
X170210331Y-148950246D01*
X170087799Y-148544401D01*
X169926247Y-148152448D01*
X169727220Y-147778132D01*
X169492615Y-147425022D01*
X169161717Y-147019303D01*
X166181019Y-150000000D01*
X165818981Y-150000000D01*
X162841071Y-147022091D01*
X162543678Y-147376508D01*
X162304165Y-147726308D01*
X162099931Y-148097809D01*
X161932923Y-148487468D01*
X161804737Y-148891563D01*
X161716594Y-149306240D01*
X161669338Y-149727538D01*
X161663418Y-150151437D01*
X157626000Y-150151437D01*
X157626000Y-149277674D01*
X158752621Y-146836660D01*
X163017680Y-146836660D01*
X166000000Y-149818981D01*
X168979228Y-146839752D01*
X168599298Y-146525446D01*
X168247835Y-146288382D01*
X167874917Y-146086746D01*
X167484102Y-145922462D01*
X167079121Y-145797100D01*
X166663840Y-145711855D01*
X166242222Y-145667541D01*
X165818292Y-145664582D01*
X165396096Y-145703004D01*
X164979666Y-145782443D01*
X164572973Y-145902138D01*
X164179903Y-146060949D01*
X163804205Y-146257359D01*
X163449467Y-146489494D01*
X163017680Y-146836660D01*
X158752621Y-146836660D01*
X159126000Y-146027674D01*
X159126000Y-137453390D01*
X157626000Y-135703390D01*
X157626000Y-119441454D01*
X152549034Y-115157763D01*
X163023257Y-115157763D01*
X163352443Y-115437923D01*
X163700561Y-115679871D01*
X164070628Y-115886695D01*
X164459111Y-116056419D01*
X164862303Y-116187423D01*
X165276353Y-116278458D01*
X165697311Y-116328654D01*
X166121158Y-116337532D01*
X166543849Y-116305009D01*
X166961348Y-116231392D01*
X167369672Y-116117386D01*
X167764922Y-115964079D01*
X168143325Y-115772933D01*
X168501269Y-115545775D01*
X168835338Y-115284772D01*
X168972825Y-115153845D01*
X166000000Y-112181019D01*
X163023257Y-115157763D01*
X152549034Y-115157763D01*
X149546055Y-112624000D01*
X136992156Y-112624000D01*
X134992156Y-112874000D01*
X130029745Y-112874000D01*
X129029745Y-112374000D01*
X122874000Y-112374000D01*
X122874000Y-118636996D01*
X122791544Y-118779814D01*
X122754663Y-118988976D01*
X122754663Y-120016588D01*
X122835295Y-120317512D01*
X122874000Y-120363639D01*
X122874000Y-120628703D01*
X123264038Y-120620425D01*
X123385477Y-120641837D01*
X124913088Y-120641837D01*
X125141752Y-120580567D01*
X127124000Y-120538491D01*
X127124000Y-121374000D01*
X124997341Y-121374000D01*
X124907524Y-121358163D01*
X123379912Y-121358163D01*
X123320807Y-121374000D01*
X123000160Y-121374000D01*
X122998939Y-121505965D01*
X122903336Y-121586185D01*
X122791544Y-121779814D01*
X122754663Y-121988976D01*
X122754663Y-123016588D01*
X122835295Y-123317512D01*
X122980562Y-123490635D01*
X122874482Y-134947328D01*
X120874000Y-136947809D01*
X120874000Y-154366000D01*
X110634000Y-154366000D01*
X110634000Y-153157763D01*
X112023257Y-153157763D01*
X112352443Y-153437923D01*
X112700561Y-153679871D01*
X113070628Y-153886695D01*
X113459111Y-154056419D01*
X113862303Y-154187423D01*
X114276353Y-154278458D01*
X114697311Y-154328654D01*
X115121158Y-154337532D01*
X115543849Y-154305009D01*
X115961348Y-154231392D01*
X116369672Y-154117386D01*
X116764922Y-153964079D01*
X117143325Y-153772933D01*
X117501269Y-153545775D01*
X117835338Y-153284772D01*
X117972825Y-153153845D01*
X115000000Y-150181019D01*
X112023257Y-153157763D01*
X110634000Y-153157763D01*
X110634000Y-150151437D01*
X110663418Y-150151437D01*
X110698894Y-150573890D01*
X110775422Y-150990866D01*
X110892277Y-151398383D01*
X111048339Y-151792553D01*
X111242121Y-152169612D01*
X111471773Y-152525962D01*
X111735103Y-152858202D01*
X111845972Y-152973007D01*
X114818981Y-150000000D01*
X115181019Y-150000000D01*
X118156748Y-152975728D01*
X118419356Y-152671493D01*
X118663729Y-152325073D01*
X118873130Y-151956458D01*
X119045562Y-151569170D01*
X119179379Y-151166903D01*
X119273302Y-150753499D01*
X119326546Y-150332026D01*
X119334130Y-149788908D01*
X119292675Y-149366113D01*
X119210331Y-148950246D01*
X119087799Y-148544401D01*
X118926247Y-148152448D01*
X118727220Y-147778132D01*
X118492615Y-147425022D01*
X118161717Y-147019303D01*
X115181019Y-150000000D01*
X114818981Y-150000000D01*
X111841071Y-147022091D01*
X111543678Y-147376508D01*
X111304165Y-147726308D01*
X111099931Y-148097809D01*
X110932923Y-148487468D01*
X110804737Y-148891563D01*
X110716594Y-149306240D01*
X110669338Y-149727538D01*
X110663418Y-150151437D01*
X110634000Y-150151437D01*
X110634000Y-146836660D01*
X112017680Y-146836660D01*
X115000000Y-149818981D01*
X117979228Y-146839752D01*
X117599298Y-146525446D01*
X117247835Y-146288382D01*
X116874917Y-146086746D01*
X116484102Y-145922462D01*
X116079121Y-145797100D01*
X115663840Y-145711855D01*
X115242222Y-145667541D01*
X114818292Y-145664582D01*
X114396096Y-145703004D01*
X113979666Y-145782443D01*
X113572973Y-145902138D01*
X113179903Y-146060949D01*
X112804205Y-146257359D01*
X112449467Y-146489494D01*
X112017680Y-146836660D01*
X110634000Y-146836660D01*
X110634000Y-121041000D01*
X112748500Y-121041000D01*
X112748500Y-140459000D01*
X118846500Y-140459000D01*
X118846500Y-121041000D01*
X112748500Y-121041000D01*
X110634000Y-121041000D01*
X110634000Y-115157763D01*
X112023257Y-115157763D01*
X112352443Y-115437923D01*
X112700561Y-115679871D01*
X113070628Y-115886695D01*
X113459111Y-116056419D01*
X113862303Y-116187423D01*
X114276353Y-116278458D01*
X114697311Y-116328654D01*
X115121158Y-116337532D01*
X115543849Y-116305009D01*
X115961348Y-116231392D01*
X116369672Y-116117386D01*
X116764922Y-115964079D01*
X117143325Y-115772933D01*
X117501269Y-115545775D01*
X117835338Y-115284772D01*
X117972825Y-115153845D01*
X115000000Y-112181019D01*
X112023257Y-115157763D01*
X110634000Y-115157763D01*
X110634000Y-112151437D01*
X110663418Y-112151437D01*
X110698894Y-112573890D01*
X110775422Y-112990866D01*
X110892277Y-113398383D01*
X111048339Y-113792553D01*
X111242121Y-114169612D01*
X111471773Y-114525962D01*
X111735103Y-114858202D01*
X111845972Y-114973007D01*
X114818981Y-112000000D01*
X115181019Y-112000000D01*
X118156748Y-114975728D01*
X118419356Y-114671493D01*
X118663729Y-114325073D01*
X118873130Y-113956458D01*
X119045562Y-113569170D01*
X119179379Y-113166903D01*
X119273302Y-112753499D01*
X119326546Y-112332026D01*
X119329067Y-112151437D01*
X161663418Y-112151437D01*
X161698894Y-112573890D01*
X161775422Y-112990866D01*
X161892277Y-113398383D01*
X162048339Y-113792553D01*
X162242121Y-114169612D01*
X162471773Y-114525962D01*
X162735103Y-114858202D01*
X162845972Y-114973007D01*
X165818981Y-112000000D01*
X166181019Y-112000000D01*
X169156748Y-114975728D01*
X169419356Y-114671493D01*
X169663729Y-114325073D01*
X169873130Y-113956458D01*
X170045562Y-113569170D01*
X170179379Y-113166903D01*
X170273302Y-112753499D01*
X170326546Y-112332026D01*
X170334130Y-111788908D01*
X170292675Y-111366113D01*
X170210331Y-110950246D01*
X170087799Y-110544401D01*
X169926247Y-110152448D01*
X169727220Y-109778132D01*
X169492615Y-109425022D01*
X169161717Y-109019303D01*
X166181019Y-112000000D01*
X165818981Y-112000000D01*
X162841071Y-109022091D01*
X162543678Y-109376508D01*
X162304165Y-109726308D01*
X162099931Y-110097809D01*
X161932923Y-110487468D01*
X161804737Y-110891563D01*
X161716594Y-111306240D01*
X161669338Y-111727538D01*
X161663418Y-112151437D01*
X119329067Y-112151437D01*
X119334130Y-111788908D01*
X119292675Y-111366113D01*
X119210331Y-110950246D01*
X119087799Y-110544401D01*
X118926247Y-110152448D01*
X118727220Y-109778132D01*
X118492615Y-109425022D01*
X118161717Y-109019303D01*
X115181019Y-112000000D01*
X114818981Y-112000000D01*
X111841071Y-109022091D01*
X111543678Y-109376508D01*
X111304165Y-109726308D01*
X111099931Y-110097809D01*
X110932923Y-110487468D01*
X110804737Y-110891563D01*
X110716594Y-111306240D01*
X110669338Y-111727538D01*
X110663418Y-112151437D01*
X110634000Y-112151437D01*
X110634000Y-108836660D01*
X112017680Y-108836660D01*
X115000000Y-111818981D01*
X117979228Y-108839752D01*
X117975491Y-108836660D01*
X163017680Y-108836660D01*
X166000000Y-111818981D01*
X168979228Y-108839752D01*
X168599298Y-108525446D01*
X168247835Y-108288382D01*
X167874917Y-108086746D01*
X167484102Y-107922462D01*
X167079121Y-107797100D01*
X166663840Y-107711855D01*
X166242222Y-107667541D01*
X165818292Y-107664582D01*
X165396096Y-107703004D01*
X164979666Y-107782443D01*
X164572973Y-107902138D01*
X164179903Y-108060949D01*
X163804205Y-108257359D01*
X163449467Y-108489494D01*
X163017680Y-108836660D01*
X117975491Y-108836660D01*
X117599298Y-108525446D01*
X117247835Y-108288382D01*
X116874917Y-108086746D01*
X116484102Y-107922462D01*
X116079121Y-107797100D01*
X115663840Y-107711855D01*
X115242222Y-107667541D01*
X114818292Y-107664582D01*
X114396096Y-107703004D01*
X113979666Y-107782443D01*
X113572973Y-107902138D01*
X113179903Y-108060949D01*
X112804205Y-108257359D01*
X112449467Y-108489494D01*
X112017680Y-108836660D01*
X110634000Y-108836660D01*
X110634000Y-107634000D01*
X170366000Y-107634000D01*
X170366001Y-154366000D01*
G36*
X143860776Y-140043558D02*
G01*
X143860776Y-140960976D01*
X143937691Y-141314549D01*
X144077618Y-141532279D01*
X144269730Y-141698745D01*
X144500958Y-141804343D01*
X144743558Y-141839224D01*
X145410976Y-141839224D01*
X145764549Y-141762309D01*
X145982279Y-141622382D01*
X146098974Y-141487709D01*
X146127618Y-141532279D01*
X146319730Y-141698745D01*
X146550958Y-141804343D01*
X146793558Y-141839224D01*
X146997000Y-141839224D01*
X146997000Y-140372000D01*
X147253000Y-140372000D01*
X147253000Y-141839224D01*
X147460976Y-141839224D01*
X147814549Y-141762309D01*
X147874000Y-141724102D01*
X147874000Y-142624000D01*
X140227717Y-142624000D01*
X139428028Y-141824310D01*
X139376000Y-141720255D01*
X139376000Y-141660853D01*
X139419730Y-141698745D01*
X139650958Y-141804343D01*
X139893558Y-141839224D01*
X140097000Y-141839224D01*
X140097000Y-140372000D01*
X140353000Y-140372000D01*
X140353000Y-141839224D01*
X140560976Y-141839224D01*
X140914549Y-141762309D01*
X141132279Y-141622382D01*
X141248974Y-141487709D01*
X141277618Y-141532279D01*
X141469730Y-141698745D01*
X141700958Y-141804343D01*
X141943558Y-141839224D01*
X142610976Y-141839224D01*
X142964549Y-141762309D01*
X143182279Y-141622382D01*
X143348745Y-141430270D01*
X143454343Y-141199042D01*
X143489224Y-140956442D01*
X143489224Y-140039024D01*
X143462076Y-139914224D01*
X143635975Y-139914224D01*
X143887230Y-139859567D01*
X143860776Y-140043558D01*
G37*
X143860776Y-140043558D02*
X143860776Y-140960976D01*
X143937691Y-141314549D01*
X144077618Y-141532279D01*
X144269730Y-141698745D01*
X144500958Y-141804343D01*
X144743558Y-141839224D01*
X145410976Y-141839224D01*
X145764549Y-141762309D01*
X145982279Y-141622382D01*
X146098974Y-141487709D01*
X146127618Y-141532279D01*
X146319730Y-141698745D01*
X146550958Y-141804343D01*
X146793558Y-141839224D01*
X146997000Y-141839224D01*
X146997000Y-140372000D01*
X147253000Y-140372000D01*
X147253000Y-141839224D01*
X147460976Y-141839224D01*
X147814549Y-141762309D01*
X147874000Y-141724102D01*
X147874000Y-142624000D01*
X140227717Y-142624000D01*
X139428028Y-141824310D01*
X139376000Y-141720255D01*
X139376000Y-141660853D01*
X139419730Y-141698745D01*
X139650958Y-141804343D01*
X139893558Y-141839224D01*
X140097000Y-141839224D01*
X140097000Y-140372000D01*
X140353000Y-140372000D01*
X140353000Y-141839224D01*
X140560976Y-141839224D01*
X140914549Y-141762309D01*
X141132279Y-141622382D01*
X141248974Y-141487709D01*
X141277618Y-141532279D01*
X141469730Y-141698745D01*
X141700958Y-141804343D01*
X141943558Y-141839224D01*
X142610976Y-141839224D01*
X142964549Y-141762309D01*
X143182279Y-141622382D01*
X143348745Y-141430270D01*
X143454343Y-141199042D01*
X143489224Y-140956442D01*
X143489224Y-140039024D01*
X143462076Y-139914224D01*
X143635975Y-139914224D01*
X143887230Y-139859567D01*
X143860776Y-140043558D01*
G36*
X144124000Y-129626000D02*
G01*
X151705802Y-129626000D01*
X152954909Y-130625285D01*
X152943211Y-130642792D01*
X153014413Y-130776000D01*
X153549000Y-130776000D01*
X153549000Y-130824000D01*
X153014413Y-130824000D01*
X152943211Y-130957208D01*
X153005213Y-131050000D01*
X152943211Y-131142792D01*
X153014413Y-131276000D01*
X153549000Y-131276000D01*
X153549000Y-131324000D01*
X153014413Y-131324000D01*
X152943211Y-131457208D01*
X153005213Y-131550000D01*
X152943211Y-131642792D01*
X153014413Y-131776000D01*
X153549000Y-131776000D01*
X153549000Y-131824000D01*
X153014413Y-131824000D01*
X152943211Y-131957208D01*
X153005213Y-132050000D01*
X152943211Y-132142792D01*
X153014413Y-132276000D01*
X153549000Y-132276000D01*
X153549000Y-132324000D01*
X153014413Y-132324000D01*
X152987687Y-132374000D01*
X152947809Y-132374000D01*
X151697810Y-133624000D01*
X143384000Y-133624000D01*
X143384000Y-133493246D01*
X143376000Y-133418835D01*
X143376000Y-130178660D01*
X142126000Y-129428660D01*
X142126000Y-129324388D01*
X142205953Y-129444047D01*
X142366050Y-129551020D01*
X142542487Y-129586116D01*
X142872000Y-129586116D01*
X142872000Y-128903000D01*
X143128000Y-128903000D01*
X143128000Y-129586116D01*
X143457513Y-129586116D01*
X143633950Y-129551020D01*
X143794047Y-129444047D01*
X143901020Y-129283950D01*
X143936116Y-129107513D01*
X143936116Y-128903000D01*
X143128000Y-128903000D01*
X142872000Y-128903000D01*
X142872000Y-128647000D01*
X143936116Y-128647000D01*
X143936116Y-128442487D01*
X143901020Y-128266050D01*
X143807442Y-128126000D01*
X144124000Y-128126000D01*
X144124000Y-129626000D01*
G37*
X144124000Y-129626000D02*
X151705802Y-129626000D01*
X152954909Y-130625285D01*
X152943211Y-130642792D01*
X153014413Y-130776000D01*
X153549000Y-130776000D01*
X153549000Y-130824000D01*
X153014413Y-130824000D01*
X152943211Y-130957208D01*
X153005213Y-131050000D01*
X152943211Y-131142792D01*
X153014413Y-131276000D01*
X153549000Y-131276000D01*
X153549000Y-131324000D01*
X153014413Y-131324000D01*
X152943211Y-131457208D01*
X153005213Y-131550000D01*
X152943211Y-131642792D01*
X153014413Y-131776000D01*
X153549000Y-131776000D01*
X153549000Y-131824000D01*
X153014413Y-131824000D01*
X152943211Y-131957208D01*
X153005213Y-132050000D01*
X152943211Y-132142792D01*
X153014413Y-132276000D01*
X153549000Y-132276000D01*
X153549000Y-132324000D01*
X153014413Y-132324000D01*
X152987687Y-132374000D01*
X152947809Y-132374000D01*
X151697810Y-133624000D01*
X143384000Y-133624000D01*
X143384000Y-133493246D01*
X143376000Y-133418835D01*
X143376000Y-130178660D01*
X142126000Y-129428660D01*
X142126000Y-129324388D01*
X142205953Y-129444047D01*
X142366050Y-129551020D01*
X142542487Y-129586116D01*
X142872000Y-129586116D01*
X142872000Y-128903000D01*
X143128000Y-128903000D01*
X143128000Y-129586116D01*
X143457513Y-129586116D01*
X143633950Y-129551020D01*
X143794047Y-129444047D01*
X143901020Y-129283950D01*
X143936116Y-129107513D01*
X143936116Y-128903000D01*
X143128000Y-128903000D01*
X142872000Y-128903000D01*
X142872000Y-128647000D01*
X143936116Y-128647000D01*
X143936116Y-128442487D01*
X143901020Y-128266050D01*
X143807442Y-128126000D01*
X144124000Y-128126000D01*
X144124000Y-129626000D01*
G36*
X157374000Y-132695810D02*
G01*
X157052191Y-132374000D01*
X157012313Y-132374000D01*
X156985587Y-132324000D01*
X156451000Y-132324000D01*
X156451000Y-132276000D01*
X156985587Y-132276000D01*
X157056789Y-132142792D01*
X156994787Y-132050000D01*
X157056789Y-131957208D01*
X156985587Y-131824000D01*
X156451000Y-131824000D01*
X156451000Y-131776000D01*
X156985587Y-131776000D01*
X157056789Y-131642792D01*
X156994787Y-131550000D01*
X157056789Y-131457208D01*
X156985587Y-131324000D01*
X156451000Y-131324000D01*
X156451000Y-131276000D01*
X156985587Y-131276000D01*
X157056789Y-131142792D01*
X156994787Y-131050000D01*
X157056789Y-130957208D01*
X156985587Y-130824000D01*
X156451000Y-130824000D01*
X156451000Y-130776000D01*
X156985587Y-130776000D01*
X157056789Y-130642792D01*
X157045091Y-130625285D01*
X157374000Y-130362159D01*
X157374000Y-132695810D01*
G37*
X157374000Y-132695810D02*
X157052191Y-132374000D01*
X157012313Y-132374000D01*
X156985587Y-132324000D01*
X156451000Y-132324000D01*
X156451000Y-132276000D01*
X156985587Y-132276000D01*
X157056789Y-132142792D01*
X156994787Y-132050000D01*
X157056789Y-131957208D01*
X156985587Y-131824000D01*
X156451000Y-131824000D01*
X156451000Y-131776000D01*
X156985587Y-131776000D01*
X157056789Y-131642792D01*
X156994787Y-131550000D01*
X157056789Y-131457208D01*
X156985587Y-131324000D01*
X156451000Y-131324000D01*
X156451000Y-131276000D01*
X156985587Y-131276000D01*
X157056789Y-131142792D01*
X156994787Y-131050000D01*
X157056789Y-130957208D01*
X156985587Y-130824000D01*
X156451000Y-130824000D01*
X156451000Y-130776000D01*
X156985587Y-130776000D01*
X157056789Y-130642792D01*
X157045091Y-130625285D01*
X157374000Y-130362159D01*
X157374000Y-132695810D01*
G36*
X133628000Y-115386116D02*
G01*
X133874000Y-115386116D01*
X133874000Y-116218781D01*
X133780953Y-116280953D01*
X133673980Y-116441050D01*
X133638884Y-116617488D01*
X133638884Y-117122000D01*
X135361116Y-117122000D01*
X135361116Y-116617488D01*
X135326020Y-116441050D01*
X135282555Y-116376000D01*
X135374000Y-116376000D01*
X135374000Y-119116000D01*
X132126000Y-119116000D01*
X132126000Y-117378000D01*
X133638884Y-117378000D01*
X133638884Y-117882512D01*
X133673980Y-118058950D01*
X133780953Y-118219047D01*
X133941050Y-118326020D01*
X134117488Y-118361116D01*
X134372000Y-118361116D01*
X134372000Y-117378000D01*
X134628000Y-117378000D01*
X134628000Y-118361116D01*
X134882512Y-118361116D01*
X135058950Y-118326020D01*
X135219047Y-118219047D01*
X135326020Y-118058950D01*
X135361116Y-117882512D01*
X135361116Y-117378000D01*
X134628000Y-117378000D01*
X134372000Y-117378000D01*
X133638884Y-117378000D01*
X132126000Y-117378000D01*
X132126000Y-116376000D01*
X133126000Y-116376000D01*
X133126000Y-115386116D01*
X133372000Y-115386116D01*
X133372000Y-114122000D01*
X133628000Y-114122000D01*
X133628000Y-115386116D01*
G37*
X133628000Y-115386116D02*
X133874000Y-115386116D01*
X133874000Y-116218781D01*
X133780953Y-116280953D01*
X133673980Y-116441050D01*
X133638884Y-116617488D01*
X133638884Y-117122000D01*
X135361116Y-117122000D01*
X135361116Y-116617488D01*
X135326020Y-116441050D01*
X135282555Y-116376000D01*
X135374000Y-116376000D01*
X135374000Y-119116000D01*
X132126000Y-119116000D01*
X132126000Y-117378000D01*
X133638884Y-117378000D01*
X133638884Y-117882512D01*
X133673980Y-118058950D01*
X133780953Y-118219047D01*
X133941050Y-118326020D01*
X134117488Y-118361116D01*
X134372000Y-118361116D01*
X134372000Y-117378000D01*
X134628000Y-117378000D01*
X134628000Y-118361116D01*
X134882512Y-118361116D01*
X135058950Y-118326020D01*
X135219047Y-118219047D01*
X135326020Y-118058950D01*
X135361116Y-117882512D01*
X135361116Y-117378000D01*
X134628000Y-117378000D01*
X134372000Y-117378000D01*
X133638884Y-117378000D01*
X132126000Y-117378000D01*
X132126000Y-116376000D01*
X133126000Y-116376000D01*
X133126000Y-115386116D01*
X133372000Y-115386116D01*
X133372000Y-114122000D01*
X133628000Y-114122000D01*
X133628000Y-115386116D01*
G36*
X147378000Y-116848616D02*
G01*
X147713885Y-116848616D01*
X147874000Y-116816767D01*
X147874000Y-118374000D01*
X144126000Y-118374000D01*
X144126000Y-116626000D01*
X146376000Y-116626000D01*
X146376000Y-116591548D01*
X146454087Y-116708413D01*
X146612116Y-116814005D01*
X146786115Y-116848616D01*
X147122000Y-116848616D01*
X147122000Y-115997000D01*
X147378000Y-115997000D01*
X147378000Y-116848616D01*
G37*
X147378000Y-116848616D02*
X147713885Y-116848616D01*
X147874000Y-116816767D01*
X147874000Y-118374000D01*
X144126000Y-118374000D01*
X144126000Y-116626000D01*
X146376000Y-116626000D01*
X146376000Y-116591548D01*
X146454087Y-116708413D01*
X146612116Y-116814005D01*
X146786115Y-116848616D01*
X147122000Y-116848616D01*
X147122000Y-115997000D01*
X147378000Y-115997000D01*
X147378000Y-116848616D01*
G36*
X131124000Y-119876000D02*
G01*
X136876000Y-119876000D01*
X136876000Y-118758105D01*
X136918559Y-118764224D01*
X137172000Y-118764224D01*
X137172000Y-117122000D01*
X137428000Y-117122000D01*
X137428000Y-118764224D01*
X137685975Y-118764224D01*
X138039549Y-118687309D01*
X138257279Y-118547382D01*
X138423745Y-118355270D01*
X138529343Y-118124041D01*
X138537051Y-118070429D01*
X138569730Y-118098745D01*
X138800958Y-118204343D01*
X139043558Y-118239224D01*
X139372000Y-118239224D01*
X139372000Y-117153000D01*
X139628000Y-117153000D01*
X139628000Y-118239224D01*
X139960976Y-118239224D01*
X140314549Y-118162309D01*
X140532279Y-118022382D01*
X140698745Y-117830270D01*
X140804343Y-117599042D01*
X140839224Y-117356442D01*
X140839224Y-117153000D01*
X139628000Y-117153000D01*
X139372000Y-117153000D01*
X139372000Y-116897000D01*
X140839224Y-116897000D01*
X140839224Y-116689024D01*
X140771130Y-116376000D01*
X141124000Y-116376000D01*
X141124000Y-119669971D01*
X135800077Y-122170254D01*
X135947714Y-141802779D01*
X140974000Y-146802387D01*
X140974000Y-146950318D01*
X140958331Y-146932261D01*
X140763584Y-146772578D01*
X140544716Y-146647991D01*
X140305169Y-146561040D01*
X140048000Y-146526953D01*
X140048000Y-148128000D01*
X139792000Y-148128000D01*
X139792000Y-146500022D01*
X139425292Y-146595200D01*
X139195671Y-146698637D01*
X138986760Y-146839284D01*
X138926000Y-146897246D01*
X138926000Y-146415866D01*
X126875170Y-141415521D01*
X126847217Y-138592332D01*
X126886222Y-138563993D01*
X126904789Y-138531835D01*
X127124020Y-138312603D01*
X127517079Y-138312603D01*
X127750696Y-138257657D01*
X127918024Y-138131297D01*
X128026813Y-137955596D01*
X128062603Y-137764137D01*
X128062603Y-137307921D01*
X128007657Y-137074304D01*
X127903269Y-136936072D01*
X128068176Y-136830094D01*
X128228757Y-136644773D01*
X128330622Y-136421719D01*
X128378245Y-136090500D01*
X127122000Y-136090500D01*
X127122000Y-135834500D01*
X128386424Y-135834500D01*
X128290162Y-135391995D01*
X128155094Y-135181824D01*
X128114213Y-135146400D01*
X128204343Y-134949042D01*
X128239224Y-134706442D01*
X128239224Y-134378000D01*
X126897000Y-134378000D01*
X126897000Y-132910776D01*
X127153000Y-132910776D01*
X127153000Y-134122000D01*
X128239224Y-134122000D01*
X128239224Y-133789024D01*
X128162309Y-133435451D01*
X128022382Y-133217721D01*
X127830270Y-133051255D01*
X127599042Y-132945657D01*
X127356442Y-132910776D01*
X127153000Y-132910776D01*
X126897000Y-132910776D01*
X126790965Y-132910776D01*
X126684264Y-122134000D01*
X127263546Y-122134000D01*
X127510028Y-122080381D01*
X127666030Y-121980125D01*
X127784445Y-121843467D01*
X127859561Y-121678983D01*
X127884000Y-121509012D01*
X127884000Y-120404618D01*
X127875593Y-120302341D01*
X127822155Y-120133672D01*
X127721188Y-119983662D01*
X127582048Y-119868175D01*
X127416007Y-119796565D01*
X127353813Y-119788966D01*
X127478757Y-119644773D01*
X127580622Y-119421719D01*
X127628245Y-119090500D01*
X126654130Y-119090500D01*
X126651596Y-118834500D01*
X127636424Y-118834500D01*
X127540162Y-118391996D01*
X127486984Y-118309249D01*
X127598745Y-118180270D01*
X127704343Y-117949042D01*
X127739224Y-117706442D01*
X127739224Y-117378000D01*
X126637175Y-117378000D01*
X126634640Y-117122000D01*
X127739224Y-117122000D01*
X127739224Y-116789024D01*
X127662309Y-116435451D01*
X127624102Y-116376000D01*
X131124000Y-116376000D01*
X131124000Y-119876000D01*
G37*
X131124000Y-119876000D02*
X136876000Y-119876000D01*
X136876000Y-118758105D01*
X136918559Y-118764224D01*
X137172000Y-118764224D01*
X137172000Y-117122000D01*
X137428000Y-117122000D01*
X137428000Y-118764224D01*
X137685975Y-118764224D01*
X138039549Y-118687309D01*
X138257279Y-118547382D01*
X138423745Y-118355270D01*
X138529343Y-118124041D01*
X138537051Y-118070429D01*
X138569730Y-118098745D01*
X138800958Y-118204343D01*
X139043558Y-118239224D01*
X139372000Y-118239224D01*
X139372000Y-117153000D01*
X139628000Y-117153000D01*
X139628000Y-118239224D01*
X139960976Y-118239224D01*
X140314549Y-118162309D01*
X140532279Y-118022382D01*
X140698745Y-117830270D01*
X140804343Y-117599042D01*
X140839224Y-117356442D01*
X140839224Y-117153000D01*
X139628000Y-117153000D01*
X139372000Y-117153000D01*
X139372000Y-116897000D01*
X140839224Y-116897000D01*
X140839224Y-116689024D01*
X140771130Y-116376000D01*
X141124000Y-116376000D01*
X141124000Y-119669971D01*
X135800077Y-122170254D01*
X135947714Y-141802779D01*
X140974000Y-146802387D01*
X140974000Y-146950318D01*
X140958331Y-146932261D01*
X140763584Y-146772578D01*
X140544716Y-146647991D01*
X140305169Y-146561040D01*
X140048000Y-146526953D01*
X140048000Y-148128000D01*
X139792000Y-148128000D01*
X139792000Y-146500022D01*
X139425292Y-146595200D01*
X139195671Y-146698637D01*
X138986760Y-146839284D01*
X138926000Y-146897246D01*
X138926000Y-146415866D01*
X126875170Y-141415521D01*
X126847217Y-138592332D01*
X126886222Y-138563993D01*
X126904789Y-138531835D01*
X127124020Y-138312603D01*
X127517079Y-138312603D01*
X127750696Y-138257657D01*
X127918024Y-138131297D01*
X128026813Y-137955596D01*
X128062603Y-137764137D01*
X128062603Y-137307921D01*
X128007657Y-137074304D01*
X127903269Y-136936072D01*
X128068176Y-136830094D01*
X128228757Y-136644773D01*
X128330622Y-136421719D01*
X128378245Y-136090500D01*
X127122000Y-136090500D01*
X127122000Y-135834500D01*
X128386424Y-135834500D01*
X128290162Y-135391995D01*
X128155094Y-135181824D01*
X128114213Y-135146400D01*
X128204343Y-134949042D01*
X128239224Y-134706442D01*
X128239224Y-134378000D01*
X126897000Y-134378000D01*
X126897000Y-132910776D01*
X127153000Y-132910776D01*
X127153000Y-134122000D01*
X128239224Y-134122000D01*
X128239224Y-133789024D01*
X128162309Y-133435451D01*
X128022382Y-133217721D01*
X127830270Y-133051255D01*
X127599042Y-132945657D01*
X127356442Y-132910776D01*
X127153000Y-132910776D01*
X126897000Y-132910776D01*
X126790965Y-132910776D01*
X126684264Y-122134000D01*
X127263546Y-122134000D01*
X127510028Y-122080381D01*
X127666030Y-121980125D01*
X127784445Y-121843467D01*
X127859561Y-121678983D01*
X127884000Y-121509012D01*
X127884000Y-120404618D01*
X127875593Y-120302341D01*
X127822155Y-120133672D01*
X127721188Y-119983662D01*
X127582048Y-119868175D01*
X127416007Y-119796565D01*
X127353813Y-119788966D01*
X127478757Y-119644773D01*
X127580622Y-119421719D01*
X127628245Y-119090500D01*
X126654130Y-119090500D01*
X126651596Y-118834500D01*
X127636424Y-118834500D01*
X127540162Y-118391996D01*
X127486984Y-118309249D01*
X127598745Y-118180270D01*
X127704343Y-117949042D01*
X127739224Y-117706442D01*
X127739224Y-117378000D01*
X126637175Y-117378000D01*
X126634640Y-117122000D01*
X127739224Y-117122000D01*
X127739224Y-116789024D01*
X127662309Y-116435451D01*
X127624102Y-116376000D01*
X131124000Y-116376000D01*
X131124000Y-119876000D01*
G36*
X142624000Y-133552190D02*
G01*
X142624000Y-134826000D01*
X146230261Y-134826000D01*
X146175333Y-134914711D01*
X146164213Y-134974201D01*
X146085289Y-134925333D01*
X145882345Y-134887397D01*
X145378000Y-134887397D01*
X145378000Y-135978000D01*
X145122000Y-135978000D01*
X145122000Y-134887397D01*
X144614712Y-134887397D01*
X144366925Y-134945676D01*
X144190273Y-135079077D01*
X144127178Y-135180978D01*
X144020923Y-135040273D01*
X143835289Y-134925333D01*
X143632345Y-134887397D01*
X143128000Y-134887397D01*
X143128000Y-135978000D01*
X141787397Y-135978000D01*
X141787397Y-136235288D01*
X141845676Y-136483075D01*
X141979077Y-136659727D01*
X142002129Y-136674000D01*
X139626000Y-136674000D01*
X139626000Y-135467655D01*
X141787397Y-135467655D01*
X141787397Y-135722000D01*
X142872000Y-135722000D01*
X142872000Y-134887397D01*
X142364712Y-134887397D01*
X142116925Y-134945676D01*
X141940273Y-135079077D01*
X141825333Y-135264711D01*
X141787397Y-135467655D01*
X139626000Y-135467655D01*
X139626000Y-132802190D01*
X139802190Y-132626000D01*
X141697810Y-132626000D01*
X142624000Y-133552190D01*
G37*
X142624000Y-133552190D02*
X142624000Y-134826000D01*
X146230261Y-134826000D01*
X146175333Y-134914711D01*
X146164213Y-134974201D01*
X146085289Y-134925333D01*
X145882345Y-134887397D01*
X145378000Y-134887397D01*
X145378000Y-135978000D01*
X145122000Y-135978000D01*
X145122000Y-134887397D01*
X144614712Y-134887397D01*
X144366925Y-134945676D01*
X144190273Y-135079077D01*
X144127178Y-135180978D01*
X144020923Y-135040273D01*
X143835289Y-134925333D01*
X143632345Y-134887397D01*
X143128000Y-134887397D01*
X143128000Y-135978000D01*
X141787397Y-135978000D01*
X141787397Y-136235288D01*
X141845676Y-136483075D01*
X141979077Y-136659727D01*
X142002129Y-136674000D01*
X139626000Y-136674000D01*
X139626000Y-135467655D01*
X141787397Y-135467655D01*
X141787397Y-135722000D01*
X142872000Y-135722000D01*
X142872000Y-134887397D01*
X142364712Y-134887397D01*
X142116925Y-134945676D01*
X141940273Y-135079077D01*
X141825333Y-135264711D01*
X141787397Y-135467655D01*
X139626000Y-135467655D01*
X139626000Y-132802190D01*
X139802190Y-132626000D01*
X141697810Y-132626000D01*
X142624000Y-133552190D01*
M02*
