G04 #@! TF.GenerationSoftware,KiCad,Pcbnew,(5.99.0-221-ga18d3cc)*
G04 #@! TF.CreationDate,2019-11-20T11:38:59-07:00*
G04 #@! TF.ProjectId,av3-top,6176332d-746f-4702-9e6b-696361645f70,rev?*
G04 #@! TF.SameCoordinates,Original*
G04 #@! TF.FileFunction,Soldermask,Bot*
G04 #@! TF.FilePolarity,Negative*
%FSLAX46Y46*%
G04 Gerber Fmt 4.6, Leading zero omitted, Abs format (unit mm)*
G04 Created by KiCad (PCBNEW (5.99.0-221-ga18d3cc)) date 2019-11-20 11:38:59*
%MOMM*%
%LPD*%
G04 APERTURE LIST*
%ADD10C,0.100000*%
G04 APERTURE END LIST*
D10*
G36*
X130019899Y-149911959D02*
G01*
X130036769Y-149923231D01*
X130048041Y-149940101D01*
X130054448Y-149972312D01*
X130054448Y-155027688D01*
X130051999Y-155040000D01*
X130048041Y-155059899D01*
X130036769Y-155076769D01*
X130019899Y-155088041D01*
X130000000Y-155091999D01*
X129987688Y-155094448D01*
X128512312Y-155094448D01*
X128480101Y-155088041D01*
X128463231Y-155076769D01*
X128451959Y-155059899D01*
X128445552Y-155027688D01*
X128445552Y-149972312D01*
X128451959Y-149940101D01*
X128463231Y-149923231D01*
X128480101Y-149911959D01*
X128512312Y-149905552D01*
X129987688Y-149905552D01*
X130019899Y-149911959D01*
G37*
G36*
X121519899Y-149911959D02*
G01*
X121536769Y-149923231D01*
X121548041Y-149940101D01*
X121554448Y-149972312D01*
X121554448Y-155027688D01*
X121551999Y-155040000D01*
X121548041Y-155059899D01*
X121536769Y-155076769D01*
X121519899Y-155088041D01*
X121500000Y-155091999D01*
X121487688Y-155094448D01*
X120012312Y-155094448D01*
X119980101Y-155088041D01*
X119963231Y-155076769D01*
X119951959Y-155059899D01*
X119945552Y-155027688D01*
X119945552Y-149972312D01*
X119951959Y-149940101D01*
X119963231Y-149923231D01*
X119980101Y-149911959D01*
X120012312Y-149905552D01*
X121487688Y-149905552D01*
X121519899Y-149911959D01*
G37*
G36*
X159769899Y-149911959D02*
G01*
X159786769Y-149923231D01*
X159798041Y-149940101D01*
X159804448Y-149972312D01*
X159804448Y-155027688D01*
X159801999Y-155040000D01*
X159798041Y-155059899D01*
X159786769Y-155076769D01*
X159769899Y-155088041D01*
X159750000Y-155091999D01*
X159737688Y-155094448D01*
X158262312Y-155094448D01*
X158230101Y-155088041D01*
X158213231Y-155076769D01*
X158201959Y-155059899D01*
X158195552Y-155027688D01*
X158195552Y-149972312D01*
X158201959Y-149940101D01*
X158213231Y-149923231D01*
X158230101Y-149911959D01*
X158262312Y-149905552D01*
X159737688Y-149905552D01*
X159769899Y-149911959D01*
G37*
G36*
X151269899Y-149911959D02*
G01*
X151286769Y-149923231D01*
X151298041Y-149940101D01*
X151304448Y-149972312D01*
X151304448Y-155027688D01*
X151301999Y-155040000D01*
X151298041Y-155059899D01*
X151286769Y-155076769D01*
X151269899Y-155088041D01*
X151250000Y-155091999D01*
X151237688Y-155094448D01*
X149762312Y-155094448D01*
X149730101Y-155088041D01*
X149713231Y-155076769D01*
X149701959Y-155059899D01*
X149695552Y-155027688D01*
X149695552Y-149972312D01*
X149701959Y-149940101D01*
X149713231Y-149923231D01*
X149730101Y-149911959D01*
X149762312Y-149905552D01*
X151237688Y-149905552D01*
X151269899Y-149911959D01*
G37*
G36*
X115149213Y-146251662D02*
G01*
X115294691Y-146255598D01*
X115341757Y-146261753D01*
X115386069Y-146264075D01*
X115530475Y-146286430D01*
X115678026Y-146305725D01*
X115721026Y-146315930D01*
X115761634Y-146322216D01*
X115906251Y-146359886D01*
X116054179Y-146394991D01*
X116092798Y-146408477D01*
X116129402Y-146418012D01*
X116272609Y-146471270D01*
X116419162Y-146522449D01*
X116453219Y-146538439D01*
X116485597Y-146550480D01*
X116625660Y-146619399D01*
X116769111Y-146686749D01*
X116798536Y-146704464D01*
X116826589Y-146718268D01*
X116961797Y-146802755D01*
X117100317Y-146886151D01*
X117125145Y-146904827D01*
X117148871Y-146919652D01*
X117277433Y-147019376D01*
X117409272Y-147118543D01*
X117429658Y-147137454D01*
X117449165Y-147152585D01*
X117569386Y-147267070D01*
X117692702Y-147381462D01*
X117708875Y-147399904D01*
X117724379Y-147414668D01*
X117834654Y-147543327D01*
X117947604Y-147672122D01*
X117959888Y-147689440D01*
X117971691Y-147703210D01*
X118070334Y-147845139D01*
X118171279Y-147987445D01*
X118180113Y-148003090D01*
X118188584Y-148015279D01*
X118274013Y-148169396D01*
X118361356Y-148324090D01*
X118367225Y-148337557D01*
X118372833Y-148347673D01*
X118443680Y-148512972D01*
X118515821Y-148678490D01*
X118519279Y-148689357D01*
X118522542Y-148696971D01*
X118577470Y-148872245D01*
X118633038Y-149046890D01*
X118634692Y-149054840D01*
X118636189Y-149059618D01*
X118674049Y-149244056D01*
X118711766Y-149425388D01*
X118712259Y-149430203D01*
X118712606Y-149431892D01*
X118732599Y-149628721D01*
X118751170Y-149809974D01*
X118750484Y-150203119D01*
X118749587Y-150211584D01*
X118749570Y-150216414D01*
X118729284Y-150403145D01*
X118709738Y-150587565D01*
X118708733Y-150592312D01*
X118708548Y-150594018D01*
X118667515Y-150787062D01*
X118629689Y-150965786D01*
X118573901Y-151139027D01*
X118513361Y-151327589D01*
X118512669Y-151329173D01*
X118511187Y-151333775D01*
X118436676Y-151503114D01*
X118361215Y-151675836D01*
X118358754Y-151680203D01*
X118355485Y-151687633D01*
X118264882Y-151846799D01*
X118174650Y-152006935D01*
X118169870Y-152013711D01*
X118164234Y-152023612D01*
X118059323Y-152170422D01*
X117955591Y-152317471D01*
X117948001Y-152326202D01*
X117939461Y-152338153D01*
X117821861Y-152471309D01*
X117706258Y-152604295D01*
X117695438Y-152614455D01*
X117683545Y-152627922D01*
X117555229Y-152746121D01*
X117429225Y-152864447D01*
X117414815Y-152875464D01*
X117399199Y-152889849D01*
X117261968Y-152992325D01*
X117127323Y-153095268D01*
X117109081Y-153106490D01*
X117089435Y-153121161D01*
X116945086Y-153207381D01*
X116803631Y-153294405D01*
X116781396Y-153305154D01*
X116757535Y-153319406D01*
X116607984Y-153388984D01*
X116461483Y-153459805D01*
X116435197Y-153469372D01*
X116407015Y-153482484D01*
X116254143Y-153535271D01*
X116104363Y-153589787D01*
X116074054Y-153597456D01*
X116041588Y-153608667D01*
X115887276Y-153644719D01*
X115735935Y-153683014D01*
X115701760Y-153688060D01*
X115665127Y-153696619D01*
X115511139Y-153716209D01*
X115359977Y-153738530D01*
X115322187Y-153740246D01*
X115281619Y-153745407D01*
X115129687Y-153748988D01*
X114980337Y-153755770D01*
X114939291Y-153753475D01*
X114895127Y-153754516D01*
X114746836Y-153742715D01*
X114600891Y-153734555D01*
X114557053Y-153727612D01*
X114509746Y-153723847D01*
X114366653Y-153697455D01*
X114225537Y-153675105D01*
X114179454Y-153662929D01*
X114129560Y-153653727D01*
X113993045Y-153613677D01*
X113858110Y-153578026D01*
X113810424Y-153560102D01*
X113758595Y-153544897D01*
X113629939Y-153492263D01*
X113502365Y-153444311D01*
X113453793Y-153420200D01*
X113400781Y-153398512D01*
X113281102Y-153334475D01*
X113161965Y-153275335D01*
X113113299Y-153244688D01*
X113059911Y-153216122D01*
X112950158Y-153141953D01*
X112840381Y-153072823D01*
X112792472Y-153035392D01*
X112739595Y-152999659D01*
X112640544Y-152916692D01*
X112540912Y-152838851D01*
X112494667Y-152794504D01*
X112443226Y-152751416D01*
X112355500Y-152661048D01*
X112266619Y-152575814D01*
X112222964Y-152524519D01*
X112173945Y-152474024D01*
X112097987Y-152377672D01*
X112020306Y-152286397D01*
X111980200Y-152228260D01*
X111934604Y-152170422D01*
X111870698Y-152069528D01*
X111804505Y-151973576D01*
X111768900Y-151908811D01*
X111727738Y-151843825D01*
X111675998Y-151739824D01*
X111621422Y-151640550D01*
X111591259Y-151569491D01*
X111555541Y-151497694D01*
X111515914Y-151391987D01*
X111472931Y-151290726D01*
X111449134Y-151213851D01*
X111419835Y-151135695D01*
X111392111Y-151029641D01*
X111360550Y-150927684D01*
X111343994Y-150845576D01*
X111322059Y-150761665D01*
X111305879Y-150656543D01*
X111285433Y-150555140D01*
X111276940Y-150468523D01*
X111263248Y-150379565D01*
X111258123Y-150276615D01*
X111248348Y-150176925D01*
X111248663Y-150086598D01*
X111244026Y-149993445D01*
X111249337Y-149893775D01*
X111249675Y-149796890D01*
X111259459Y-149703801D01*
X111264596Y-149607393D01*
X111279616Y-149512021D01*
X111289400Y-149418934D01*
X111309212Y-149324100D01*
X111324740Y-149225501D01*
X111348644Y-149135346D01*
X111367114Y-149046935D01*
X111397401Y-148951460D01*
X111423821Y-148851815D01*
X111455712Y-148767640D01*
X111482029Y-148684679D01*
X111523110Y-148589746D01*
X111560790Y-148490292D01*
X111599694Y-148412771D01*
X111632957Y-148335905D01*
X111685020Y-148242749D01*
X111734194Y-148144764D01*
X111779104Y-148074404D01*
X111818362Y-148004161D01*
X111881457Y-147914051D01*
X111942198Y-147818891D01*
X111992063Y-147756090D01*
X112036337Y-147692860D01*
X112110365Y-147607098D01*
X112182598Y-147516126D01*
X112236371Y-147461119D01*
X112284669Y-147405165D01*
X112369364Y-147325073D01*
X112452846Y-147239675D01*
X112509475Y-147192577D01*
X112560788Y-147144053D01*
X112655738Y-147070932D01*
X112750079Y-146992469D01*
X112808532Y-146953264D01*
X112861886Y-146912176D01*
X112966521Y-146847300D01*
X113071149Y-146777125D01*
X113130442Y-146745665D01*
X113184883Y-146711910D01*
X113298496Y-146656497D01*
X113412654Y-146595926D01*
X113471815Y-146571963D01*
X113526446Y-146545318D01*
X113648177Y-146500530D01*
X113770976Y-146450791D01*
X113829143Y-146433947D01*
X113883115Y-146414089D01*
X114011931Y-146381015D01*
X114142319Y-146343257D01*
X114198694Y-146333063D01*
X114251206Y-146319580D01*
X114385930Y-146299205D01*
X114522748Y-146274464D01*
X114576613Y-146270367D01*
X114626975Y-146262750D01*
X114766367Y-146255932D01*
X114908233Y-146245141D01*
X114958950Y-146246513D01*
X115006555Y-146244185D01*
X115149213Y-146251662D01*
G37*
G36*
X166149213Y-146251662D02*
G01*
X166294691Y-146255598D01*
X166341757Y-146261753D01*
X166386069Y-146264075D01*
X166530475Y-146286430D01*
X166678026Y-146305725D01*
X166721026Y-146315930D01*
X166761634Y-146322216D01*
X166906251Y-146359886D01*
X167054179Y-146394991D01*
X167092798Y-146408477D01*
X167129402Y-146418012D01*
X167272609Y-146471270D01*
X167419162Y-146522449D01*
X167453219Y-146538439D01*
X167485597Y-146550480D01*
X167625660Y-146619399D01*
X167769111Y-146686749D01*
X167798536Y-146704464D01*
X167826589Y-146718268D01*
X167961797Y-146802755D01*
X168100317Y-146886151D01*
X168125145Y-146904827D01*
X168148871Y-146919652D01*
X168277433Y-147019376D01*
X168409272Y-147118543D01*
X168429658Y-147137454D01*
X168449165Y-147152585D01*
X168569386Y-147267070D01*
X168692702Y-147381462D01*
X168708875Y-147399904D01*
X168724379Y-147414668D01*
X168834654Y-147543327D01*
X168947604Y-147672122D01*
X168959888Y-147689440D01*
X168971691Y-147703210D01*
X169070334Y-147845139D01*
X169171279Y-147987445D01*
X169180113Y-148003090D01*
X169188584Y-148015279D01*
X169274013Y-148169396D01*
X169361356Y-148324090D01*
X169367225Y-148337557D01*
X169372833Y-148347673D01*
X169443680Y-148512972D01*
X169515821Y-148678490D01*
X169519279Y-148689357D01*
X169522542Y-148696971D01*
X169577470Y-148872245D01*
X169633038Y-149046890D01*
X169634692Y-149054840D01*
X169636189Y-149059618D01*
X169674049Y-149244056D01*
X169711766Y-149425388D01*
X169712259Y-149430203D01*
X169712606Y-149431892D01*
X169732599Y-149628721D01*
X169751170Y-149809974D01*
X169750484Y-150203119D01*
X169749587Y-150211584D01*
X169749570Y-150216414D01*
X169729284Y-150403145D01*
X169709738Y-150587565D01*
X169708733Y-150592312D01*
X169708548Y-150594018D01*
X169667515Y-150787062D01*
X169629689Y-150965786D01*
X169573901Y-151139027D01*
X169513361Y-151327589D01*
X169512669Y-151329173D01*
X169511187Y-151333775D01*
X169436676Y-151503114D01*
X169361215Y-151675836D01*
X169358754Y-151680203D01*
X169355485Y-151687633D01*
X169264882Y-151846799D01*
X169174650Y-152006935D01*
X169169870Y-152013711D01*
X169164234Y-152023612D01*
X169059323Y-152170422D01*
X168955591Y-152317471D01*
X168948001Y-152326202D01*
X168939461Y-152338153D01*
X168821861Y-152471309D01*
X168706258Y-152604295D01*
X168695438Y-152614455D01*
X168683545Y-152627922D01*
X168555229Y-152746121D01*
X168429225Y-152864447D01*
X168414815Y-152875464D01*
X168399199Y-152889849D01*
X168261968Y-152992325D01*
X168127323Y-153095268D01*
X168109081Y-153106490D01*
X168089435Y-153121161D01*
X167945086Y-153207381D01*
X167803631Y-153294405D01*
X167781396Y-153305154D01*
X167757535Y-153319406D01*
X167607984Y-153388984D01*
X167461483Y-153459805D01*
X167435197Y-153469372D01*
X167407015Y-153482484D01*
X167254143Y-153535271D01*
X167104363Y-153589787D01*
X167074054Y-153597456D01*
X167041588Y-153608667D01*
X166887276Y-153644719D01*
X166735935Y-153683014D01*
X166701760Y-153688060D01*
X166665127Y-153696619D01*
X166511139Y-153716209D01*
X166359977Y-153738530D01*
X166322187Y-153740246D01*
X166281619Y-153745407D01*
X166129687Y-153748988D01*
X165980337Y-153755770D01*
X165939291Y-153753475D01*
X165895127Y-153754516D01*
X165746836Y-153742715D01*
X165600891Y-153734555D01*
X165557053Y-153727612D01*
X165509746Y-153723847D01*
X165366653Y-153697455D01*
X165225537Y-153675105D01*
X165179454Y-153662929D01*
X165129560Y-153653727D01*
X164993045Y-153613677D01*
X164858110Y-153578026D01*
X164810424Y-153560102D01*
X164758595Y-153544897D01*
X164629939Y-153492263D01*
X164502365Y-153444311D01*
X164453793Y-153420200D01*
X164400781Y-153398512D01*
X164281102Y-153334475D01*
X164161965Y-153275335D01*
X164113299Y-153244688D01*
X164059911Y-153216122D01*
X163950158Y-153141953D01*
X163840381Y-153072823D01*
X163792472Y-153035392D01*
X163739595Y-152999659D01*
X163640544Y-152916692D01*
X163540912Y-152838851D01*
X163494667Y-152794504D01*
X163443226Y-152751416D01*
X163355500Y-152661048D01*
X163266619Y-152575814D01*
X163222964Y-152524519D01*
X163173945Y-152474024D01*
X163097987Y-152377672D01*
X163020306Y-152286397D01*
X162980200Y-152228260D01*
X162934604Y-152170422D01*
X162870698Y-152069528D01*
X162804505Y-151973576D01*
X162768900Y-151908811D01*
X162727738Y-151843825D01*
X162675998Y-151739824D01*
X162621422Y-151640550D01*
X162591259Y-151569491D01*
X162555541Y-151497694D01*
X162515914Y-151391987D01*
X162472931Y-151290726D01*
X162449134Y-151213851D01*
X162419835Y-151135695D01*
X162392111Y-151029641D01*
X162360550Y-150927684D01*
X162343994Y-150845576D01*
X162322059Y-150761665D01*
X162305879Y-150656543D01*
X162285433Y-150555140D01*
X162276940Y-150468523D01*
X162263248Y-150379565D01*
X162258123Y-150276615D01*
X162248348Y-150176925D01*
X162248663Y-150086598D01*
X162244026Y-149993445D01*
X162249337Y-149893775D01*
X162249675Y-149796890D01*
X162259459Y-149703801D01*
X162264596Y-149607393D01*
X162279616Y-149512021D01*
X162289400Y-149418934D01*
X162309212Y-149324100D01*
X162324740Y-149225501D01*
X162348644Y-149135346D01*
X162367114Y-149046935D01*
X162397401Y-148951460D01*
X162423821Y-148851815D01*
X162455712Y-148767640D01*
X162482029Y-148684679D01*
X162523110Y-148589746D01*
X162560790Y-148490292D01*
X162599694Y-148412771D01*
X162632957Y-148335905D01*
X162685020Y-148242749D01*
X162734194Y-148144764D01*
X162779104Y-148074404D01*
X162818362Y-148004161D01*
X162881457Y-147914051D01*
X162942198Y-147818891D01*
X162992063Y-147756090D01*
X163036337Y-147692860D01*
X163110365Y-147607098D01*
X163182598Y-147516126D01*
X163236371Y-147461119D01*
X163284669Y-147405165D01*
X163369364Y-147325073D01*
X163452846Y-147239675D01*
X163509475Y-147192577D01*
X163560788Y-147144053D01*
X163655738Y-147070932D01*
X163750079Y-146992469D01*
X163808532Y-146953264D01*
X163861886Y-146912176D01*
X163966521Y-146847300D01*
X164071149Y-146777125D01*
X164130442Y-146745665D01*
X164184883Y-146711910D01*
X164298496Y-146656497D01*
X164412654Y-146595926D01*
X164471815Y-146571963D01*
X164526446Y-146545318D01*
X164648177Y-146500530D01*
X164770976Y-146450791D01*
X164829143Y-146433947D01*
X164883115Y-146414089D01*
X165011931Y-146381015D01*
X165142319Y-146343257D01*
X165198694Y-146333063D01*
X165251206Y-146319580D01*
X165385930Y-146299205D01*
X165522748Y-146274464D01*
X165576613Y-146270367D01*
X165626975Y-146262750D01*
X165766367Y-146255932D01*
X165908233Y-146245141D01*
X165958950Y-146246513D01*
X166006555Y-146244185D01*
X166149213Y-146251662D01*
G37*
G36*
X142648360Y-149653835D02*
G01*
X142729397Y-149680166D01*
X142816663Y-149707848D01*
X142819655Y-149709493D01*
X142828488Y-149712363D01*
X142900466Y-149753919D01*
X142971499Y-149792970D01*
X142978986Y-149799253D01*
X142992511Y-149807061D01*
X143050259Y-149859057D01*
X143106857Y-149906549D01*
X143116962Y-149919118D01*
X143133261Y-149933793D01*
X143175454Y-149991867D01*
X143217579Y-150044260D01*
X143227994Y-150064182D01*
X143244586Y-150087019D01*
X143271297Y-150147012D01*
X143299439Y-150200843D01*
X143307582Y-150228510D01*
X143321621Y-150260042D01*
X143333992Y-150318241D01*
X143349328Y-150370349D01*
X143352518Y-150405401D01*
X143360999Y-150445301D01*
X143360999Y-150498592D01*
X143365343Y-150546324D01*
X143360999Y-150587653D01*
X143360999Y-150634699D01*
X143351217Y-150680721D01*
X143346873Y-150722047D01*
X143332702Y-150767827D01*
X143321621Y-150819958D01*
X143305028Y-150857226D01*
X143294622Y-150890843D01*
X143268789Y-150938620D01*
X143244586Y-150992981D01*
X143224298Y-151020905D01*
X143210580Y-151046276D01*
X143171859Y-151093082D01*
X143133261Y-151146207D01*
X143112284Y-151165095D01*
X143097952Y-151182419D01*
X143045845Y-151224917D01*
X142992511Y-151272939D01*
X142973524Y-151283901D01*
X142961025Y-151294095D01*
X142895780Y-151328786D01*
X142828488Y-151367637D01*
X142813636Y-151372463D01*
X142805003Y-151377053D01*
X142727430Y-151400473D01*
X142648360Y-151426165D01*
X142639114Y-151427137D01*
X142635851Y-151428122D01*
X142544710Y-151437059D01*
X142507211Y-151441000D01*
X142412789Y-151441000D01*
X142271640Y-151426165D01*
X142190603Y-151399834D01*
X142103337Y-151372152D01*
X142100345Y-151370507D01*
X142091512Y-151367637D01*
X142019534Y-151326081D01*
X141948501Y-151287030D01*
X141941014Y-151280747D01*
X141927489Y-151272939D01*
X141869741Y-151220943D01*
X141813143Y-151173451D01*
X141803038Y-151160882D01*
X141786739Y-151146207D01*
X141744546Y-151088133D01*
X141702421Y-151035740D01*
X141692006Y-151015818D01*
X141675414Y-150992981D01*
X141648703Y-150932988D01*
X141620561Y-150879157D01*
X141612418Y-150851490D01*
X141598379Y-150819958D01*
X141586008Y-150761759D01*
X141570672Y-150709651D01*
X141567482Y-150674599D01*
X141559001Y-150634699D01*
X141559001Y-150581408D01*
X141554657Y-150533676D01*
X141559001Y-150492347D01*
X141559001Y-150445301D01*
X141568783Y-150399279D01*
X141573127Y-150357953D01*
X141587298Y-150312173D01*
X141598379Y-150260042D01*
X141614972Y-150222774D01*
X141625378Y-150189157D01*
X141651211Y-150141380D01*
X141675414Y-150087019D01*
X141695702Y-150059095D01*
X141709420Y-150033724D01*
X141748141Y-149986918D01*
X141786739Y-149933793D01*
X141807716Y-149914905D01*
X141822048Y-149897581D01*
X141874155Y-149855083D01*
X141927489Y-149807061D01*
X141946476Y-149796099D01*
X141958975Y-149785905D01*
X142024220Y-149751214D01*
X142091512Y-149712363D01*
X142106364Y-149707537D01*
X142114997Y-149702947D01*
X142192570Y-149679527D01*
X142271640Y-149653835D01*
X142280886Y-149652863D01*
X142284149Y-149651878D01*
X142375290Y-149642941D01*
X142412789Y-149639000D01*
X142507211Y-149639000D01*
X142648360Y-149653835D01*
G37*
G36*
X140108360Y-149653835D02*
G01*
X140189397Y-149680166D01*
X140276663Y-149707848D01*
X140279655Y-149709493D01*
X140288488Y-149712363D01*
X140360466Y-149753919D01*
X140431499Y-149792970D01*
X140438986Y-149799253D01*
X140452511Y-149807061D01*
X140510259Y-149859057D01*
X140566857Y-149906549D01*
X140576962Y-149919118D01*
X140593261Y-149933793D01*
X140635454Y-149991867D01*
X140677579Y-150044260D01*
X140687994Y-150064182D01*
X140704586Y-150087019D01*
X140731297Y-150147012D01*
X140759439Y-150200843D01*
X140767582Y-150228510D01*
X140781621Y-150260042D01*
X140793992Y-150318241D01*
X140809328Y-150370349D01*
X140812518Y-150405401D01*
X140820999Y-150445301D01*
X140820999Y-150498592D01*
X140825343Y-150546324D01*
X140820999Y-150587653D01*
X140820999Y-150634699D01*
X140811217Y-150680721D01*
X140806873Y-150722047D01*
X140792702Y-150767827D01*
X140781621Y-150819958D01*
X140765028Y-150857226D01*
X140754622Y-150890843D01*
X140728789Y-150938620D01*
X140704586Y-150992981D01*
X140684298Y-151020905D01*
X140670580Y-151046276D01*
X140631859Y-151093082D01*
X140593261Y-151146207D01*
X140572284Y-151165095D01*
X140557952Y-151182419D01*
X140505845Y-151224917D01*
X140452511Y-151272939D01*
X140433524Y-151283901D01*
X140421025Y-151294095D01*
X140355780Y-151328786D01*
X140288488Y-151367637D01*
X140273636Y-151372463D01*
X140265003Y-151377053D01*
X140187430Y-151400473D01*
X140108360Y-151426165D01*
X140099114Y-151427137D01*
X140095851Y-151428122D01*
X140004710Y-151437059D01*
X139967211Y-151441000D01*
X139872789Y-151441000D01*
X139731640Y-151426165D01*
X139650603Y-151399834D01*
X139563337Y-151372152D01*
X139560345Y-151370507D01*
X139551512Y-151367637D01*
X139479534Y-151326081D01*
X139408501Y-151287030D01*
X139401014Y-151280747D01*
X139387489Y-151272939D01*
X139329741Y-151220943D01*
X139273143Y-151173451D01*
X139263038Y-151160882D01*
X139246739Y-151146207D01*
X139204546Y-151088133D01*
X139162421Y-151035740D01*
X139152006Y-151015818D01*
X139135414Y-150992981D01*
X139108703Y-150932988D01*
X139080561Y-150879157D01*
X139072418Y-150851490D01*
X139058379Y-150819958D01*
X139046008Y-150761759D01*
X139030672Y-150709651D01*
X139027482Y-150674599D01*
X139019001Y-150634699D01*
X139019001Y-150581408D01*
X139014657Y-150533676D01*
X139019001Y-150492347D01*
X139019001Y-150445301D01*
X139028783Y-150399279D01*
X139033127Y-150357953D01*
X139047298Y-150312173D01*
X139058379Y-150260042D01*
X139074972Y-150222774D01*
X139085378Y-150189157D01*
X139111211Y-150141380D01*
X139135414Y-150087019D01*
X139155702Y-150059095D01*
X139169420Y-150033724D01*
X139208141Y-149986918D01*
X139246739Y-149933793D01*
X139267716Y-149914905D01*
X139282048Y-149897581D01*
X139334155Y-149855083D01*
X139387489Y-149807061D01*
X139406476Y-149796099D01*
X139418975Y-149785905D01*
X139484220Y-149751214D01*
X139551512Y-149712363D01*
X139566364Y-149707537D01*
X139574997Y-149702947D01*
X139652570Y-149679527D01*
X139731640Y-149653835D01*
X139740886Y-149652863D01*
X139744149Y-149651878D01*
X139835290Y-149642941D01*
X139872789Y-149639000D01*
X139967211Y-149639000D01*
X140108360Y-149653835D01*
G37*
G36*
X145188360Y-149653835D02*
G01*
X145269397Y-149680166D01*
X145356663Y-149707848D01*
X145359655Y-149709493D01*
X145368488Y-149712363D01*
X145440466Y-149753919D01*
X145511499Y-149792970D01*
X145518986Y-149799253D01*
X145532511Y-149807061D01*
X145590259Y-149859057D01*
X145646857Y-149906549D01*
X145656962Y-149919118D01*
X145673261Y-149933793D01*
X145715454Y-149991867D01*
X145757579Y-150044260D01*
X145767994Y-150064182D01*
X145784586Y-150087019D01*
X145811297Y-150147012D01*
X145839439Y-150200843D01*
X145847582Y-150228510D01*
X145861621Y-150260042D01*
X145873992Y-150318241D01*
X145889328Y-150370349D01*
X145892518Y-150405401D01*
X145900999Y-150445301D01*
X145900999Y-150498592D01*
X145905343Y-150546324D01*
X145900999Y-150587653D01*
X145900999Y-150634699D01*
X145891217Y-150680721D01*
X145886873Y-150722047D01*
X145872702Y-150767827D01*
X145861621Y-150819958D01*
X145845028Y-150857226D01*
X145834622Y-150890843D01*
X145808789Y-150938620D01*
X145784586Y-150992981D01*
X145764298Y-151020905D01*
X145750580Y-151046276D01*
X145711859Y-151093082D01*
X145673261Y-151146207D01*
X145652284Y-151165095D01*
X145637952Y-151182419D01*
X145585845Y-151224917D01*
X145532511Y-151272939D01*
X145513524Y-151283901D01*
X145501025Y-151294095D01*
X145435780Y-151328786D01*
X145368488Y-151367637D01*
X145353636Y-151372463D01*
X145345003Y-151377053D01*
X145267430Y-151400473D01*
X145188360Y-151426165D01*
X145179114Y-151427137D01*
X145175851Y-151428122D01*
X145084710Y-151437059D01*
X145047211Y-151441000D01*
X144952789Y-151441000D01*
X144811640Y-151426165D01*
X144730603Y-151399834D01*
X144643337Y-151372152D01*
X144640345Y-151370507D01*
X144631512Y-151367637D01*
X144559534Y-151326081D01*
X144488501Y-151287030D01*
X144481014Y-151280747D01*
X144467489Y-151272939D01*
X144409741Y-151220943D01*
X144353143Y-151173451D01*
X144343038Y-151160882D01*
X144326739Y-151146207D01*
X144284546Y-151088133D01*
X144242421Y-151035740D01*
X144232006Y-151015818D01*
X144215414Y-150992981D01*
X144188703Y-150932988D01*
X144160561Y-150879157D01*
X144152418Y-150851490D01*
X144138379Y-150819958D01*
X144126008Y-150761759D01*
X144110672Y-150709651D01*
X144107482Y-150674599D01*
X144099001Y-150634699D01*
X144099001Y-150581408D01*
X144094657Y-150533676D01*
X144099001Y-150492347D01*
X144099001Y-150445301D01*
X144108783Y-150399279D01*
X144113127Y-150357953D01*
X144127298Y-150312173D01*
X144138379Y-150260042D01*
X144154972Y-150222774D01*
X144165378Y-150189157D01*
X144191211Y-150141380D01*
X144215414Y-150087019D01*
X144235702Y-150059095D01*
X144249420Y-150033724D01*
X144288141Y-149986918D01*
X144326739Y-149933793D01*
X144347716Y-149914905D01*
X144362048Y-149897581D01*
X144414155Y-149855083D01*
X144467489Y-149807061D01*
X144486476Y-149796099D01*
X144498975Y-149785905D01*
X144564220Y-149751214D01*
X144631512Y-149712363D01*
X144646364Y-149707537D01*
X144654997Y-149702947D01*
X144732570Y-149679527D01*
X144811640Y-149653835D01*
X144820886Y-149652863D01*
X144824149Y-149651878D01*
X144915290Y-149642941D01*
X144952789Y-149639000D01*
X145047211Y-149639000D01*
X145188360Y-149653835D01*
G37*
G36*
X137568360Y-149653835D02*
G01*
X137649397Y-149680166D01*
X137736663Y-149707848D01*
X137739655Y-149709493D01*
X137748488Y-149712363D01*
X137820466Y-149753919D01*
X137891499Y-149792970D01*
X137898986Y-149799253D01*
X137912511Y-149807061D01*
X137970259Y-149859057D01*
X138026857Y-149906549D01*
X138036962Y-149919118D01*
X138053261Y-149933793D01*
X138095454Y-149991867D01*
X138137579Y-150044260D01*
X138147994Y-150064182D01*
X138164586Y-150087019D01*
X138191297Y-150147012D01*
X138219439Y-150200843D01*
X138227582Y-150228510D01*
X138241621Y-150260042D01*
X138253992Y-150318241D01*
X138269328Y-150370349D01*
X138272518Y-150405401D01*
X138280999Y-150445301D01*
X138280999Y-150498592D01*
X138285343Y-150546324D01*
X138280999Y-150587653D01*
X138280999Y-150634699D01*
X138271217Y-150680721D01*
X138266873Y-150722047D01*
X138252702Y-150767827D01*
X138241621Y-150819958D01*
X138225028Y-150857226D01*
X138214622Y-150890843D01*
X138188789Y-150938620D01*
X138164586Y-150992981D01*
X138144298Y-151020905D01*
X138130580Y-151046276D01*
X138091859Y-151093082D01*
X138053261Y-151146207D01*
X138032284Y-151165095D01*
X138017952Y-151182419D01*
X137965845Y-151224917D01*
X137912511Y-151272939D01*
X137893524Y-151283901D01*
X137881025Y-151294095D01*
X137815780Y-151328786D01*
X137748488Y-151367637D01*
X137733636Y-151372463D01*
X137725003Y-151377053D01*
X137647430Y-151400473D01*
X137568360Y-151426165D01*
X137559114Y-151427137D01*
X137555851Y-151428122D01*
X137464710Y-151437059D01*
X137427211Y-151441000D01*
X137332789Y-151441000D01*
X137191640Y-151426165D01*
X137110603Y-151399834D01*
X137023337Y-151372152D01*
X137020345Y-151370507D01*
X137011512Y-151367637D01*
X136939534Y-151326081D01*
X136868501Y-151287030D01*
X136861014Y-151280747D01*
X136847489Y-151272939D01*
X136789741Y-151220943D01*
X136733143Y-151173451D01*
X136723038Y-151160882D01*
X136706739Y-151146207D01*
X136664546Y-151088133D01*
X136622421Y-151035740D01*
X136612006Y-151015818D01*
X136595414Y-150992981D01*
X136568703Y-150932988D01*
X136540561Y-150879157D01*
X136532418Y-150851490D01*
X136518379Y-150819958D01*
X136506008Y-150761759D01*
X136490672Y-150709651D01*
X136487482Y-150674599D01*
X136479001Y-150634699D01*
X136479001Y-150581408D01*
X136474657Y-150533676D01*
X136479001Y-150492347D01*
X136479001Y-150445301D01*
X136488783Y-150399279D01*
X136493127Y-150357953D01*
X136507298Y-150312173D01*
X136518379Y-150260042D01*
X136534972Y-150222774D01*
X136545378Y-150189157D01*
X136571211Y-150141380D01*
X136595414Y-150087019D01*
X136615702Y-150059095D01*
X136629420Y-150033724D01*
X136668141Y-149986918D01*
X136706739Y-149933793D01*
X136727716Y-149914905D01*
X136742048Y-149897581D01*
X136794155Y-149855083D01*
X136847489Y-149807061D01*
X136866476Y-149796099D01*
X136878975Y-149785905D01*
X136944220Y-149751214D01*
X137011512Y-149712363D01*
X137026364Y-149707537D01*
X137034997Y-149702947D01*
X137112570Y-149679527D01*
X137191640Y-149653835D01*
X137200886Y-149652863D01*
X137204149Y-149651878D01*
X137295290Y-149642941D01*
X137332789Y-149639000D01*
X137427211Y-149639000D01*
X137568360Y-149653835D01*
G37*
G36*
X145869899Y-147101959D02*
G01*
X145886769Y-147113231D01*
X145898041Y-147130101D01*
X145904448Y-147162312D01*
X145904448Y-148837688D01*
X145901999Y-148850000D01*
X145898041Y-148869899D01*
X145886769Y-148886769D01*
X145869899Y-148898041D01*
X145850000Y-148901999D01*
X145837688Y-148904448D01*
X144162312Y-148904448D01*
X144130101Y-148898041D01*
X144113231Y-148886769D01*
X144101959Y-148869899D01*
X144095552Y-148837688D01*
X144095552Y-147162312D01*
X144101959Y-147130101D01*
X144113231Y-147113231D01*
X144130101Y-147101959D01*
X144162312Y-147095552D01*
X145837688Y-147095552D01*
X145869899Y-147101959D01*
G37*
G36*
X137568360Y-147113835D02*
G01*
X137649397Y-147140166D01*
X137736663Y-147167848D01*
X137739655Y-147169493D01*
X137748488Y-147172363D01*
X137820466Y-147213919D01*
X137891499Y-147252970D01*
X137898986Y-147259253D01*
X137912511Y-147267061D01*
X137970259Y-147319057D01*
X138026857Y-147366549D01*
X138036962Y-147379118D01*
X138053261Y-147393793D01*
X138095454Y-147451867D01*
X138137579Y-147504260D01*
X138147994Y-147524182D01*
X138164586Y-147547019D01*
X138191297Y-147607012D01*
X138219439Y-147660843D01*
X138227582Y-147688510D01*
X138241621Y-147720042D01*
X138253992Y-147778241D01*
X138269328Y-147830349D01*
X138272518Y-147865401D01*
X138280999Y-147905301D01*
X138280999Y-147958592D01*
X138285343Y-148006324D01*
X138280999Y-148047653D01*
X138280999Y-148094699D01*
X138271217Y-148140721D01*
X138266873Y-148182047D01*
X138252702Y-148227827D01*
X138241621Y-148279958D01*
X138225028Y-148317226D01*
X138214622Y-148350843D01*
X138188789Y-148398620D01*
X138164586Y-148452981D01*
X138144298Y-148480905D01*
X138130580Y-148506276D01*
X138091859Y-148553082D01*
X138053261Y-148606207D01*
X138032284Y-148625095D01*
X138017952Y-148642419D01*
X137965845Y-148684917D01*
X137912511Y-148732939D01*
X137893524Y-148743901D01*
X137881025Y-148754095D01*
X137815780Y-148788786D01*
X137748488Y-148827637D01*
X137733636Y-148832463D01*
X137725003Y-148837053D01*
X137647430Y-148860473D01*
X137568360Y-148886165D01*
X137559114Y-148887137D01*
X137555851Y-148888122D01*
X137464710Y-148897059D01*
X137427211Y-148901000D01*
X137332789Y-148901000D01*
X137191640Y-148886165D01*
X137110603Y-148859834D01*
X137023337Y-148832152D01*
X137020345Y-148830507D01*
X137011512Y-148827637D01*
X136939534Y-148786081D01*
X136868501Y-148747030D01*
X136861014Y-148740747D01*
X136847489Y-148732939D01*
X136789741Y-148680943D01*
X136733143Y-148633451D01*
X136723038Y-148620882D01*
X136706739Y-148606207D01*
X136664546Y-148548133D01*
X136622421Y-148495740D01*
X136612006Y-148475818D01*
X136595414Y-148452981D01*
X136568703Y-148392988D01*
X136540561Y-148339157D01*
X136532418Y-148311490D01*
X136518379Y-148279958D01*
X136506008Y-148221759D01*
X136490672Y-148169651D01*
X136487482Y-148134599D01*
X136479001Y-148094699D01*
X136479001Y-148041408D01*
X136474657Y-147993676D01*
X136479001Y-147952347D01*
X136479001Y-147905301D01*
X136488783Y-147859279D01*
X136493127Y-147817953D01*
X136507298Y-147772173D01*
X136518379Y-147720042D01*
X136534972Y-147682774D01*
X136545378Y-147649157D01*
X136571211Y-147601380D01*
X136595414Y-147547019D01*
X136615702Y-147519095D01*
X136629420Y-147493724D01*
X136668141Y-147446918D01*
X136706739Y-147393793D01*
X136727716Y-147374905D01*
X136742048Y-147357581D01*
X136794155Y-147315083D01*
X136847489Y-147267061D01*
X136866476Y-147256099D01*
X136878975Y-147245905D01*
X136944220Y-147211214D01*
X137011512Y-147172363D01*
X137026364Y-147167537D01*
X137034997Y-147162947D01*
X137112570Y-147139527D01*
X137191640Y-147113835D01*
X137200886Y-147112863D01*
X137204149Y-147111878D01*
X137295290Y-147102941D01*
X137332789Y-147099000D01*
X137427211Y-147099000D01*
X137568360Y-147113835D01*
G37*
G36*
X142648360Y-147113835D02*
G01*
X142729397Y-147140166D01*
X142816663Y-147167848D01*
X142819655Y-147169493D01*
X142828488Y-147172363D01*
X142900466Y-147213919D01*
X142971499Y-147252970D01*
X142978986Y-147259253D01*
X142992511Y-147267061D01*
X143050259Y-147319057D01*
X143106857Y-147366549D01*
X143116962Y-147379118D01*
X143133261Y-147393793D01*
X143175454Y-147451867D01*
X143217579Y-147504260D01*
X143227994Y-147524182D01*
X143244586Y-147547019D01*
X143271297Y-147607012D01*
X143299439Y-147660843D01*
X143307582Y-147688510D01*
X143321621Y-147720042D01*
X143333992Y-147778241D01*
X143349328Y-147830349D01*
X143352518Y-147865401D01*
X143360999Y-147905301D01*
X143360999Y-147958592D01*
X143365343Y-148006324D01*
X143360999Y-148047653D01*
X143360999Y-148094699D01*
X143351217Y-148140721D01*
X143346873Y-148182047D01*
X143332702Y-148227827D01*
X143321621Y-148279958D01*
X143305028Y-148317226D01*
X143294622Y-148350843D01*
X143268789Y-148398620D01*
X143244586Y-148452981D01*
X143224298Y-148480905D01*
X143210580Y-148506276D01*
X143171859Y-148553082D01*
X143133261Y-148606207D01*
X143112284Y-148625095D01*
X143097952Y-148642419D01*
X143045845Y-148684917D01*
X142992511Y-148732939D01*
X142973524Y-148743901D01*
X142961025Y-148754095D01*
X142895780Y-148788786D01*
X142828488Y-148827637D01*
X142813636Y-148832463D01*
X142805003Y-148837053D01*
X142727430Y-148860473D01*
X142648360Y-148886165D01*
X142639114Y-148887137D01*
X142635851Y-148888122D01*
X142544710Y-148897059D01*
X142507211Y-148901000D01*
X142412789Y-148901000D01*
X142271640Y-148886165D01*
X142190603Y-148859834D01*
X142103337Y-148832152D01*
X142100345Y-148830507D01*
X142091512Y-148827637D01*
X142019534Y-148786081D01*
X141948501Y-148747030D01*
X141941014Y-148740747D01*
X141927489Y-148732939D01*
X141869741Y-148680943D01*
X141813143Y-148633451D01*
X141803038Y-148620882D01*
X141786739Y-148606207D01*
X141744546Y-148548133D01*
X141702421Y-148495740D01*
X141692006Y-148475818D01*
X141675414Y-148452981D01*
X141648703Y-148392988D01*
X141620561Y-148339157D01*
X141612418Y-148311490D01*
X141598379Y-148279958D01*
X141586008Y-148221759D01*
X141570672Y-148169651D01*
X141567482Y-148134599D01*
X141559001Y-148094699D01*
X141559001Y-148041408D01*
X141554657Y-147993676D01*
X141559001Y-147952347D01*
X141559001Y-147905301D01*
X141568783Y-147859279D01*
X141573127Y-147817953D01*
X141587298Y-147772173D01*
X141598379Y-147720042D01*
X141614972Y-147682774D01*
X141625378Y-147649157D01*
X141651211Y-147601380D01*
X141675414Y-147547019D01*
X141695702Y-147519095D01*
X141709420Y-147493724D01*
X141748141Y-147446918D01*
X141786739Y-147393793D01*
X141807716Y-147374905D01*
X141822048Y-147357581D01*
X141874155Y-147315083D01*
X141927489Y-147267061D01*
X141946476Y-147256099D01*
X141958975Y-147245905D01*
X142024220Y-147211214D01*
X142091512Y-147172363D01*
X142106364Y-147167537D01*
X142114997Y-147162947D01*
X142192570Y-147139527D01*
X142271640Y-147113835D01*
X142280886Y-147112863D01*
X142284149Y-147111878D01*
X142375290Y-147102941D01*
X142412789Y-147099000D01*
X142507211Y-147099000D01*
X142648360Y-147113835D01*
G37*
G36*
X140108360Y-147113835D02*
G01*
X140189397Y-147140166D01*
X140276663Y-147167848D01*
X140279655Y-147169493D01*
X140288488Y-147172363D01*
X140360466Y-147213919D01*
X140431499Y-147252970D01*
X140438986Y-147259253D01*
X140452511Y-147267061D01*
X140510259Y-147319057D01*
X140566857Y-147366549D01*
X140576962Y-147379118D01*
X140593261Y-147393793D01*
X140635454Y-147451867D01*
X140677579Y-147504260D01*
X140687994Y-147524182D01*
X140704586Y-147547019D01*
X140731297Y-147607012D01*
X140759439Y-147660843D01*
X140767582Y-147688510D01*
X140781621Y-147720042D01*
X140793992Y-147778241D01*
X140809328Y-147830349D01*
X140812518Y-147865401D01*
X140820999Y-147905301D01*
X140820999Y-147958592D01*
X140825343Y-148006324D01*
X140820999Y-148047653D01*
X140820999Y-148094699D01*
X140811217Y-148140721D01*
X140806873Y-148182047D01*
X140792702Y-148227827D01*
X140781621Y-148279958D01*
X140765028Y-148317226D01*
X140754622Y-148350843D01*
X140728789Y-148398620D01*
X140704586Y-148452981D01*
X140684298Y-148480905D01*
X140670580Y-148506276D01*
X140631859Y-148553082D01*
X140593261Y-148606207D01*
X140572284Y-148625095D01*
X140557952Y-148642419D01*
X140505845Y-148684917D01*
X140452511Y-148732939D01*
X140433524Y-148743901D01*
X140421025Y-148754095D01*
X140355780Y-148788786D01*
X140288488Y-148827637D01*
X140273636Y-148832463D01*
X140265003Y-148837053D01*
X140187430Y-148860473D01*
X140108360Y-148886165D01*
X140099114Y-148887137D01*
X140095851Y-148888122D01*
X140004710Y-148897059D01*
X139967211Y-148901000D01*
X139872789Y-148901000D01*
X139731640Y-148886165D01*
X139650603Y-148859834D01*
X139563337Y-148832152D01*
X139560345Y-148830507D01*
X139551512Y-148827637D01*
X139479534Y-148786081D01*
X139408501Y-148747030D01*
X139401014Y-148740747D01*
X139387489Y-148732939D01*
X139329741Y-148680943D01*
X139273143Y-148633451D01*
X139263038Y-148620882D01*
X139246739Y-148606207D01*
X139204546Y-148548133D01*
X139162421Y-148495740D01*
X139152006Y-148475818D01*
X139135414Y-148452981D01*
X139108703Y-148392988D01*
X139080561Y-148339157D01*
X139072418Y-148311490D01*
X139058379Y-148279958D01*
X139046008Y-148221759D01*
X139030672Y-148169651D01*
X139027482Y-148134599D01*
X139019001Y-148094699D01*
X139019001Y-148041408D01*
X139014657Y-147993676D01*
X139019001Y-147952347D01*
X139019001Y-147905301D01*
X139028783Y-147859279D01*
X139033127Y-147817953D01*
X139047298Y-147772173D01*
X139058379Y-147720042D01*
X139074972Y-147682774D01*
X139085378Y-147649157D01*
X139111211Y-147601380D01*
X139135414Y-147547019D01*
X139155702Y-147519095D01*
X139169420Y-147493724D01*
X139208141Y-147446918D01*
X139246739Y-147393793D01*
X139267716Y-147374905D01*
X139282048Y-147357581D01*
X139334155Y-147315083D01*
X139387489Y-147267061D01*
X139406476Y-147256099D01*
X139418975Y-147245905D01*
X139484220Y-147211214D01*
X139551512Y-147172363D01*
X139566364Y-147167537D01*
X139574997Y-147162947D01*
X139652570Y-147139527D01*
X139731640Y-147113835D01*
X139740886Y-147112863D01*
X139744149Y-147111878D01*
X139835290Y-147102941D01*
X139872789Y-147099000D01*
X139967211Y-147099000D01*
X140108360Y-147113835D01*
G37*
G36*
X115149213Y-108251662D02*
G01*
X115294691Y-108255598D01*
X115341757Y-108261753D01*
X115386069Y-108264075D01*
X115530475Y-108286430D01*
X115678026Y-108305725D01*
X115721026Y-108315930D01*
X115761634Y-108322216D01*
X115906251Y-108359886D01*
X116054179Y-108394991D01*
X116092798Y-108408477D01*
X116129402Y-108418012D01*
X116272609Y-108471270D01*
X116419162Y-108522449D01*
X116453219Y-108538439D01*
X116485597Y-108550480D01*
X116625660Y-108619399D01*
X116769111Y-108686749D01*
X116798536Y-108704464D01*
X116826589Y-108718268D01*
X116961797Y-108802755D01*
X117100317Y-108886151D01*
X117125145Y-108904827D01*
X117148871Y-108919652D01*
X117277433Y-109019376D01*
X117409272Y-109118543D01*
X117429658Y-109137454D01*
X117449165Y-109152585D01*
X117569386Y-109267070D01*
X117692702Y-109381462D01*
X117708875Y-109399904D01*
X117724379Y-109414668D01*
X117834654Y-109543327D01*
X117947604Y-109672122D01*
X117959888Y-109689440D01*
X117971691Y-109703210D01*
X118070334Y-109845139D01*
X118171279Y-109987445D01*
X118180113Y-110003090D01*
X118188584Y-110015279D01*
X118274013Y-110169396D01*
X118361356Y-110324090D01*
X118367225Y-110337557D01*
X118372833Y-110347673D01*
X118443680Y-110512972D01*
X118515821Y-110678490D01*
X118519279Y-110689357D01*
X118522542Y-110696971D01*
X118577470Y-110872245D01*
X118633038Y-111046890D01*
X118634692Y-111054840D01*
X118636189Y-111059618D01*
X118674049Y-111244056D01*
X118711766Y-111425388D01*
X118712259Y-111430203D01*
X118712606Y-111431892D01*
X118732599Y-111628721D01*
X118751170Y-111809974D01*
X118750484Y-112203119D01*
X118749587Y-112211584D01*
X118749570Y-112216414D01*
X118729284Y-112403145D01*
X118709738Y-112587565D01*
X118708733Y-112592312D01*
X118708548Y-112594018D01*
X118667515Y-112787062D01*
X118629689Y-112965786D01*
X118573901Y-113139027D01*
X118513361Y-113327589D01*
X118512669Y-113329173D01*
X118511187Y-113333775D01*
X118436676Y-113503114D01*
X118361215Y-113675836D01*
X118358754Y-113680203D01*
X118355485Y-113687633D01*
X118264882Y-113846799D01*
X118174650Y-114006935D01*
X118169870Y-114013711D01*
X118164234Y-114023612D01*
X118059323Y-114170422D01*
X117955591Y-114317471D01*
X117948001Y-114326202D01*
X117939461Y-114338153D01*
X117821861Y-114471309D01*
X117706258Y-114604295D01*
X117695438Y-114614455D01*
X117683545Y-114627922D01*
X117555229Y-114746121D01*
X117429225Y-114864447D01*
X117414815Y-114875464D01*
X117399199Y-114889849D01*
X117261968Y-114992325D01*
X117127323Y-115095268D01*
X117109081Y-115106490D01*
X117089435Y-115121161D01*
X116945086Y-115207381D01*
X116803631Y-115294405D01*
X116781396Y-115305154D01*
X116757535Y-115319406D01*
X116607984Y-115388984D01*
X116461483Y-115459805D01*
X116435197Y-115469372D01*
X116407015Y-115482484D01*
X116254143Y-115535271D01*
X116104363Y-115589787D01*
X116074054Y-115597456D01*
X116041588Y-115608667D01*
X115887276Y-115644719D01*
X115735935Y-115683014D01*
X115701760Y-115688060D01*
X115665127Y-115696619D01*
X115511139Y-115716209D01*
X115359977Y-115738530D01*
X115322187Y-115740246D01*
X115281619Y-115745407D01*
X115129687Y-115748988D01*
X114980337Y-115755770D01*
X114939291Y-115753475D01*
X114895127Y-115754516D01*
X114746836Y-115742715D01*
X114600891Y-115734555D01*
X114557053Y-115727612D01*
X114509746Y-115723847D01*
X114366653Y-115697455D01*
X114225537Y-115675105D01*
X114179454Y-115662929D01*
X114129560Y-115653727D01*
X113993045Y-115613677D01*
X113858110Y-115578026D01*
X113810424Y-115560102D01*
X113758595Y-115544897D01*
X113629939Y-115492263D01*
X113502365Y-115444311D01*
X113453793Y-115420200D01*
X113400781Y-115398512D01*
X113281102Y-115334475D01*
X113161965Y-115275335D01*
X113113299Y-115244688D01*
X113059911Y-115216122D01*
X112950158Y-115141953D01*
X112840381Y-115072823D01*
X112792472Y-115035392D01*
X112739595Y-114999659D01*
X112640544Y-114916692D01*
X112540912Y-114838851D01*
X112494667Y-114794504D01*
X112443226Y-114751416D01*
X112355500Y-114661048D01*
X112266619Y-114575814D01*
X112222964Y-114524519D01*
X112173945Y-114474024D01*
X112097987Y-114377672D01*
X112020306Y-114286397D01*
X111980200Y-114228260D01*
X111934604Y-114170422D01*
X111870698Y-114069528D01*
X111804505Y-113973576D01*
X111768900Y-113908811D01*
X111727738Y-113843825D01*
X111675998Y-113739824D01*
X111621422Y-113640550D01*
X111591259Y-113569491D01*
X111555541Y-113497694D01*
X111515914Y-113391987D01*
X111472931Y-113290726D01*
X111449134Y-113213851D01*
X111419835Y-113135695D01*
X111392111Y-113029641D01*
X111360550Y-112927684D01*
X111343994Y-112845576D01*
X111322059Y-112761665D01*
X111305879Y-112656543D01*
X111285433Y-112555140D01*
X111276940Y-112468523D01*
X111263248Y-112379565D01*
X111258123Y-112276615D01*
X111248348Y-112176925D01*
X111248663Y-112086598D01*
X111244026Y-111993445D01*
X111249337Y-111893775D01*
X111249675Y-111796890D01*
X111259459Y-111703801D01*
X111264596Y-111607393D01*
X111279616Y-111512021D01*
X111289400Y-111418934D01*
X111309212Y-111324100D01*
X111324740Y-111225501D01*
X111348644Y-111135346D01*
X111367114Y-111046935D01*
X111397401Y-110951460D01*
X111423821Y-110851815D01*
X111455712Y-110767640D01*
X111482029Y-110684679D01*
X111523110Y-110589746D01*
X111560790Y-110490292D01*
X111599694Y-110412771D01*
X111632957Y-110335905D01*
X111685020Y-110242749D01*
X111734194Y-110144764D01*
X111779104Y-110074404D01*
X111818362Y-110004161D01*
X111881457Y-109914051D01*
X111942198Y-109818891D01*
X111992063Y-109756090D01*
X112036337Y-109692860D01*
X112110365Y-109607098D01*
X112182598Y-109516126D01*
X112236371Y-109461119D01*
X112284669Y-109405165D01*
X112369364Y-109325073D01*
X112452846Y-109239675D01*
X112509475Y-109192577D01*
X112560788Y-109144053D01*
X112655738Y-109070932D01*
X112750079Y-108992469D01*
X112808532Y-108953264D01*
X112861886Y-108912176D01*
X112966521Y-108847300D01*
X113071149Y-108777125D01*
X113130442Y-108745665D01*
X113184883Y-108711910D01*
X113298496Y-108656497D01*
X113412654Y-108595926D01*
X113471815Y-108571963D01*
X113526446Y-108545318D01*
X113648177Y-108500530D01*
X113770976Y-108450791D01*
X113829143Y-108433947D01*
X113883115Y-108414089D01*
X114011931Y-108381015D01*
X114142319Y-108343257D01*
X114198694Y-108333063D01*
X114251206Y-108319580D01*
X114385930Y-108299205D01*
X114522748Y-108274464D01*
X114576613Y-108270367D01*
X114626975Y-108262750D01*
X114766367Y-108255932D01*
X114908233Y-108245141D01*
X114958950Y-108246513D01*
X115006555Y-108244185D01*
X115149213Y-108251662D01*
G37*
G36*
X166149213Y-108251662D02*
G01*
X166294691Y-108255598D01*
X166341757Y-108261753D01*
X166386069Y-108264075D01*
X166530475Y-108286430D01*
X166678026Y-108305725D01*
X166721026Y-108315930D01*
X166761634Y-108322216D01*
X166906251Y-108359886D01*
X167054179Y-108394991D01*
X167092798Y-108408477D01*
X167129402Y-108418012D01*
X167272609Y-108471270D01*
X167419162Y-108522449D01*
X167453219Y-108538439D01*
X167485597Y-108550480D01*
X167625660Y-108619399D01*
X167769111Y-108686749D01*
X167798536Y-108704464D01*
X167826589Y-108718268D01*
X167961797Y-108802755D01*
X168100317Y-108886151D01*
X168125145Y-108904827D01*
X168148871Y-108919652D01*
X168277433Y-109019376D01*
X168409272Y-109118543D01*
X168429658Y-109137454D01*
X168449165Y-109152585D01*
X168569386Y-109267070D01*
X168692702Y-109381462D01*
X168708875Y-109399904D01*
X168724379Y-109414668D01*
X168834654Y-109543327D01*
X168947604Y-109672122D01*
X168959888Y-109689440D01*
X168971691Y-109703210D01*
X169070334Y-109845139D01*
X169171279Y-109987445D01*
X169180113Y-110003090D01*
X169188584Y-110015279D01*
X169274013Y-110169396D01*
X169361356Y-110324090D01*
X169367225Y-110337557D01*
X169372833Y-110347673D01*
X169443680Y-110512972D01*
X169515821Y-110678490D01*
X169519279Y-110689357D01*
X169522542Y-110696971D01*
X169577470Y-110872245D01*
X169633038Y-111046890D01*
X169634692Y-111054840D01*
X169636189Y-111059618D01*
X169674049Y-111244056D01*
X169711766Y-111425388D01*
X169712259Y-111430203D01*
X169712606Y-111431892D01*
X169732599Y-111628721D01*
X169751170Y-111809974D01*
X169750484Y-112203119D01*
X169749587Y-112211584D01*
X169749570Y-112216414D01*
X169729284Y-112403145D01*
X169709738Y-112587565D01*
X169708733Y-112592312D01*
X169708548Y-112594018D01*
X169667515Y-112787062D01*
X169629689Y-112965786D01*
X169573901Y-113139027D01*
X169513361Y-113327589D01*
X169512669Y-113329173D01*
X169511187Y-113333775D01*
X169436676Y-113503114D01*
X169361215Y-113675836D01*
X169358754Y-113680203D01*
X169355485Y-113687633D01*
X169264882Y-113846799D01*
X169174650Y-114006935D01*
X169169870Y-114013711D01*
X169164234Y-114023612D01*
X169059323Y-114170422D01*
X168955591Y-114317471D01*
X168948001Y-114326202D01*
X168939461Y-114338153D01*
X168821861Y-114471309D01*
X168706258Y-114604295D01*
X168695438Y-114614455D01*
X168683545Y-114627922D01*
X168555229Y-114746121D01*
X168429225Y-114864447D01*
X168414815Y-114875464D01*
X168399199Y-114889849D01*
X168261968Y-114992325D01*
X168127323Y-115095268D01*
X168109081Y-115106490D01*
X168089435Y-115121161D01*
X167945086Y-115207381D01*
X167803631Y-115294405D01*
X167781396Y-115305154D01*
X167757535Y-115319406D01*
X167607984Y-115388984D01*
X167461483Y-115459805D01*
X167435197Y-115469372D01*
X167407015Y-115482484D01*
X167254143Y-115535271D01*
X167104363Y-115589787D01*
X167074054Y-115597456D01*
X167041588Y-115608667D01*
X166887276Y-115644719D01*
X166735935Y-115683014D01*
X166701760Y-115688060D01*
X166665127Y-115696619D01*
X166511139Y-115716209D01*
X166359977Y-115738530D01*
X166322187Y-115740246D01*
X166281619Y-115745407D01*
X166129687Y-115748988D01*
X165980337Y-115755770D01*
X165939291Y-115753475D01*
X165895127Y-115754516D01*
X165746836Y-115742715D01*
X165600891Y-115734555D01*
X165557053Y-115727612D01*
X165509746Y-115723847D01*
X165366653Y-115697455D01*
X165225537Y-115675105D01*
X165179454Y-115662929D01*
X165129560Y-115653727D01*
X164993045Y-115613677D01*
X164858110Y-115578026D01*
X164810424Y-115560102D01*
X164758595Y-115544897D01*
X164629939Y-115492263D01*
X164502365Y-115444311D01*
X164453793Y-115420200D01*
X164400781Y-115398512D01*
X164281102Y-115334475D01*
X164161965Y-115275335D01*
X164113299Y-115244688D01*
X164059911Y-115216122D01*
X163950158Y-115141953D01*
X163840381Y-115072823D01*
X163792472Y-115035392D01*
X163739595Y-114999659D01*
X163640544Y-114916692D01*
X163540912Y-114838851D01*
X163494667Y-114794504D01*
X163443226Y-114751416D01*
X163355500Y-114661048D01*
X163266619Y-114575814D01*
X163222964Y-114524519D01*
X163173945Y-114474024D01*
X163097987Y-114377672D01*
X163020306Y-114286397D01*
X162980200Y-114228260D01*
X162934604Y-114170422D01*
X162870698Y-114069528D01*
X162804505Y-113973576D01*
X162768900Y-113908811D01*
X162727738Y-113843825D01*
X162675998Y-113739824D01*
X162621422Y-113640550D01*
X162591259Y-113569491D01*
X162555541Y-113497694D01*
X162515914Y-113391987D01*
X162472931Y-113290726D01*
X162449134Y-113213851D01*
X162419835Y-113135695D01*
X162392111Y-113029641D01*
X162360550Y-112927684D01*
X162343994Y-112845576D01*
X162322059Y-112761665D01*
X162305879Y-112656543D01*
X162285433Y-112555140D01*
X162276940Y-112468523D01*
X162263248Y-112379565D01*
X162258123Y-112276615D01*
X162248348Y-112176925D01*
X162248663Y-112086598D01*
X162244026Y-111993445D01*
X162249337Y-111893775D01*
X162249675Y-111796890D01*
X162259459Y-111703801D01*
X162264596Y-111607393D01*
X162279616Y-111512021D01*
X162289400Y-111418934D01*
X162309212Y-111324100D01*
X162324740Y-111225501D01*
X162348644Y-111135346D01*
X162367114Y-111046935D01*
X162397401Y-110951460D01*
X162423821Y-110851815D01*
X162455712Y-110767640D01*
X162482029Y-110684679D01*
X162523110Y-110589746D01*
X162560790Y-110490292D01*
X162599694Y-110412771D01*
X162632957Y-110335905D01*
X162685020Y-110242749D01*
X162734194Y-110144764D01*
X162779104Y-110074404D01*
X162818362Y-110004161D01*
X162881457Y-109914051D01*
X162942198Y-109818891D01*
X162992063Y-109756090D01*
X163036337Y-109692860D01*
X163110365Y-109607098D01*
X163182598Y-109516126D01*
X163236371Y-109461119D01*
X163284669Y-109405165D01*
X163369364Y-109325073D01*
X163452846Y-109239675D01*
X163509475Y-109192577D01*
X163560788Y-109144053D01*
X163655738Y-109070932D01*
X163750079Y-108992469D01*
X163808532Y-108953264D01*
X163861886Y-108912176D01*
X163966521Y-108847300D01*
X164071149Y-108777125D01*
X164130442Y-108745665D01*
X164184883Y-108711910D01*
X164298496Y-108656497D01*
X164412654Y-108595926D01*
X164471815Y-108571963D01*
X164526446Y-108545318D01*
X164648177Y-108500530D01*
X164770976Y-108450791D01*
X164829143Y-108433947D01*
X164883115Y-108414089D01*
X165011931Y-108381015D01*
X165142319Y-108343257D01*
X165198694Y-108333063D01*
X165251206Y-108319580D01*
X165385930Y-108299205D01*
X165522748Y-108274464D01*
X165576613Y-108270367D01*
X165626975Y-108262750D01*
X165766367Y-108255932D01*
X165908233Y-108245141D01*
X165958950Y-108246513D01*
X166006555Y-108244185D01*
X166149213Y-108251662D01*
G37*
M02*
