G04 #@! TF.GenerationSoftware,KiCad,Pcbnew,(5.99.0-221-ga18d3cc)*
G04 #@! TF.CreationDate,2019-11-20T11:38:58-07:00*
G04 #@! TF.ProjectId,av3-top,6176332d-746f-4702-9e6b-696361645f70,rev?*
G04 #@! TF.SameCoordinates,Original*
G04 #@! TF.FileFunction,Legend,Top*
G04 #@! TF.FilePolarity,Positive*
%FSLAX46Y46*%
G04 Gerber Fmt 4.6, Leading zero omitted, Abs format (unit mm)*
G04 Created by KiCad (PCBNEW (5.99.0-221-ga18d3cc)) date 2019-11-20 11:38:58*
%MOMM*%
%LPD*%
G04 APERTURE LIST*
%ADD10C,0.150000*%
%ADD11C,0.120000*%
%ADD12C,0.100000*%
%ADD13C,1.000000*%
%ADD14O,1.802000X1.802000*%
%ADD15R,1.802000X1.802000*%
%ADD16C,0.902000*%
%ADD17C,7.502000*%
%ADD18C,1.052000*%
%ADD19C,0.977000*%
%ADD20C,1.252000*%
%ADD21C,1.352000*%
%ADD22C,1.077000*%
%ADD23R,1.602000X5.182000*%
%ADD24O,0.852000X0.402000*%
%ADD25O,0.402000X0.852000*%
%ADD26C,1.102000*%
%ADD27R,2.302000X1.942000*%
%ADD28R,1.102000X1.602000*%
%ADD29R,1.102000X1.902000*%
%ADD30C,0.952000*%
%ADD31R,1.942000X2.302000*%
%ADD32R,1.602000X1.102000*%
%ADD33R,1.902000X1.102000*%
G04 APERTURE END LIST*
D10*
X144363095Y-145425000D02*
X144267857Y-145377380D01*
X144125000Y-145377380D01*
X143982142Y-145425000D01*
X143886904Y-145520238D01*
X143839285Y-145615476D01*
X143791666Y-145805952D01*
X143791666Y-145948809D01*
X143839285Y-146139285D01*
X143886904Y-146234523D01*
X143982142Y-146329761D01*
X144125000Y-146377380D01*
X144220238Y-146377380D01*
X144363095Y-146329761D01*
X144410714Y-146282142D01*
X144410714Y-145948809D01*
X144220238Y-145948809D01*
X144839285Y-146377380D02*
X144839285Y-145377380D01*
X145410714Y-146377380D01*
X145410714Y-145377380D01*
X145886904Y-146377380D02*
X145886904Y-145377380D01*
X146125000Y-145377380D01*
X146267857Y-145425000D01*
X146363095Y-145520238D01*
X146410714Y-145615476D01*
X146458333Y-145805952D01*
X146458333Y-145948809D01*
X146410714Y-146139285D01*
X146363095Y-146234523D01*
X146267857Y-146329761D01*
X146125000Y-146377380D01*
X145886904Y-146377380D01*
X141707142Y-153477380D02*
X141230952Y-153477380D01*
X141230952Y-152477380D01*
X142040476Y-152953571D02*
X142373809Y-152953571D01*
X142516666Y-153477380D02*
X142040476Y-153477380D01*
X142040476Y-152477380D01*
X142516666Y-152477380D01*
X142945238Y-153477380D02*
X142945238Y-152477380D01*
X143183333Y-152477380D01*
X143326190Y-152525000D01*
X143421428Y-152620238D01*
X143469047Y-152715476D01*
X143516666Y-152905952D01*
X143516666Y-153048809D01*
X143469047Y-153239285D01*
X143421428Y-153334523D01*
X143326190Y-153429761D01*
X143183333Y-153477380D01*
X142945238Y-153477380D01*
X142086904Y-145300000D02*
X141991666Y-145252380D01*
X141848809Y-145252380D01*
X141705952Y-145300000D01*
X141610714Y-145395238D01*
X141563095Y-145490476D01*
X141515476Y-145680952D01*
X141515476Y-145823809D01*
X141563095Y-146014285D01*
X141610714Y-146109523D01*
X141705952Y-146204761D01*
X141848809Y-146252380D01*
X141944047Y-146252380D01*
X142086904Y-146204761D01*
X142134523Y-146157142D01*
X142134523Y-145823809D01*
X141944047Y-145823809D01*
X142896428Y-145728571D02*
X143039285Y-145776190D01*
X143086904Y-145823809D01*
X143134523Y-145919047D01*
X143134523Y-146061904D01*
X143086904Y-146157142D01*
X143039285Y-146204761D01*
X142944047Y-146252380D01*
X142563095Y-146252380D01*
X142563095Y-145252380D01*
X142896428Y-145252380D01*
X142991666Y-145300000D01*
X143039285Y-145347619D01*
X143086904Y-145442857D01*
X143086904Y-145538095D01*
X143039285Y-145633333D01*
X142991666Y-145680952D01*
X142896428Y-145728571D01*
X142563095Y-145728571D01*
X136485714Y-153502380D02*
X136485714Y-152502380D01*
X136485714Y-152978571D02*
X137057142Y-152978571D01*
X137057142Y-153502380D02*
X137057142Y-152502380D01*
X137390476Y-152502380D02*
X137723809Y-153502380D01*
X138057142Y-152502380D01*
X139509523Y-152502380D02*
X139033333Y-152502380D01*
X138985714Y-152978571D01*
X139033333Y-152930952D01*
X139128571Y-152883333D01*
X139366666Y-152883333D01*
X139461904Y-152930952D01*
X139509523Y-152978571D01*
X139557142Y-153073809D01*
X139557142Y-153311904D01*
X139509523Y-153407142D01*
X139461904Y-153454761D01*
X139366666Y-153502380D01*
X139128571Y-153502380D01*
X139033333Y-153454761D01*
X138985714Y-153407142D01*
X139842857Y-152502380D02*
X140176190Y-153502380D01*
X140509523Y-152502380D01*
X144613095Y-152550000D02*
X144517857Y-152502380D01*
X144375000Y-152502380D01*
X144232142Y-152550000D01*
X144136904Y-152645238D01*
X144089285Y-152740476D01*
X144041666Y-152930952D01*
X144041666Y-153073809D01*
X144089285Y-153264285D01*
X144136904Y-153359523D01*
X144232142Y-153454761D01*
X144375000Y-153502380D01*
X144470238Y-153502380D01*
X144613095Y-153454761D01*
X144660714Y-153407142D01*
X144660714Y-153073809D01*
X144470238Y-153073809D01*
X145089285Y-153502380D02*
X145089285Y-152502380D01*
X145660714Y-153502380D01*
X145660714Y-152502380D01*
X146136904Y-153502380D02*
X146136904Y-152502380D01*
X146375000Y-152502380D01*
X146517857Y-152550000D01*
X146613095Y-152645238D01*
X146660714Y-152740476D01*
X146708333Y-152930952D01*
X146708333Y-153073809D01*
X146660714Y-153264285D01*
X146613095Y-153359523D01*
X146517857Y-153454761D01*
X146375000Y-153502380D01*
X146136904Y-153502380D01*
X139709523Y-144977380D02*
X139233333Y-144977380D01*
X139185714Y-145453571D01*
X139233333Y-145405952D01*
X139328571Y-145358333D01*
X139566666Y-145358333D01*
X139661904Y-145405952D01*
X139709523Y-145453571D01*
X139757142Y-145548809D01*
X139757142Y-145786904D01*
X139709523Y-145882142D01*
X139661904Y-145929761D01*
X139566666Y-145977380D01*
X139328571Y-145977380D01*
X139233333Y-145929761D01*
X139185714Y-145882142D01*
X140042857Y-144977380D02*
X140376190Y-145977380D01*
X140709523Y-144977380D01*
X136610714Y-145977380D02*
X136610714Y-144977380D01*
X136610714Y-145453571D02*
X137182142Y-145453571D01*
X137182142Y-145977380D02*
X137182142Y-144977380D01*
X137515476Y-144977380D02*
X137848809Y-145977380D01*
X138182142Y-144977380D01*
D11*
X136050000Y-146670000D02*
X136050000Y-151870000D01*
X143730000Y-146670000D02*
X136050000Y-146670000D01*
X146330000Y-151870000D02*
X136050000Y-151870000D01*
X143730000Y-146670000D02*
X143730000Y-149270000D01*
X143730000Y-149270000D02*
X146330000Y-149270000D01*
X146330000Y-149270000D02*
X146330000Y-151870000D01*
X145000000Y-146670000D02*
X146330000Y-146670000D01*
X146330000Y-146670000D02*
X146330000Y-148000000D01*
X148528733Y-143415000D02*
X148871267Y-143415000D01*
X148528733Y-144435000D02*
X148871267Y-144435000D01*
X146250000Y-143190000D02*
X143965000Y-143190000D01*
X143965000Y-143190000D02*
X143965000Y-144660000D01*
X143965000Y-144660000D02*
X146250000Y-144660000D01*
X142510000Y-113087221D02*
X142510000Y-113412779D01*
X141490000Y-113087221D02*
X141490000Y-113412779D01*
X130510000Y-113087221D02*
X130510000Y-113412779D01*
X129490000Y-113087221D02*
X129490000Y-113412779D01*
X125990000Y-119912779D02*
X125990000Y-119587221D01*
X127010000Y-119912779D02*
X127010000Y-119587221D01*
X126740000Y-136912779D02*
X126740000Y-136587221D01*
X127760000Y-136912779D02*
X127760000Y-136587221D01*
X127662779Y-114510000D02*
X127337221Y-114510000D01*
X127662779Y-113490000D02*
X127337221Y-113490000D01*
X125010000Y-125299721D02*
X125010000Y-125625279D01*
X123990000Y-125299721D02*
X123990000Y-125625279D01*
X125510000Y-146587221D02*
X125510000Y-146912779D01*
X124490000Y-146587221D02*
X124490000Y-146912779D01*
X149738748Y-124790000D02*
X150261252Y-124790000D01*
X149738748Y-126210000D02*
X150261252Y-126210000D01*
X143710000Y-127488748D02*
X143710000Y-128011252D01*
X142290000Y-127488748D02*
X142290000Y-128011252D01*
X140988748Y-139790000D02*
X141511252Y-139790000D01*
X140988748Y-141210000D02*
X141511252Y-141210000D01*
X146361252Y-141210000D02*
X145838748Y-141210000D01*
X146361252Y-139790000D02*
X145838748Y-139790000D01*
X149102064Y-136660000D02*
X147897936Y-136660000D01*
X149102064Y-134840000D02*
X147897936Y-134840000D01*
X144491422Y-113540000D02*
X145008578Y-113540000D01*
X144491422Y-114960000D02*
X145008578Y-114960000D01*
X147960000Y-114928922D02*
X147960000Y-115446078D01*
X146540000Y-114928922D02*
X146540000Y-115446078D01*
X125210000Y-128991422D02*
X125210000Y-129508578D01*
X123790000Y-128991422D02*
X123790000Y-129508578D01*
X123241422Y-131540000D02*
X123758578Y-131540000D01*
X123241422Y-132960000D02*
X123758578Y-132960000D01*
X124290000Y-143258578D02*
X124290000Y-142741422D01*
X125710000Y-143258578D02*
X125710000Y-142741422D01*
X154290000Y-138286252D02*
X154290000Y-137763748D01*
X155710000Y-138286252D02*
X155710000Y-137763748D01*
X156488748Y-134540000D02*
X157011252Y-134540000D01*
X156488748Y-135960000D02*
X157011252Y-135960000D01*
X152297936Y-134340000D02*
X153502064Y-134340000D01*
X152297936Y-136160000D02*
X153502064Y-136160000D01*
X153313748Y-126290000D02*
X153836252Y-126290000D01*
X153313748Y-127710000D02*
X153836252Y-127710000D01*
X156738748Y-126290000D02*
X157261252Y-126290000D01*
X156738748Y-127710000D02*
X157261252Y-127710000D01*
X138790000Y-116261252D02*
X138790000Y-115738748D01*
X140210000Y-116261252D02*
X140210000Y-115738748D01*
X125761252Y-117960000D02*
X125238748Y-117960000D01*
X125761252Y-116540000D02*
X125238748Y-116540000D01*
X126261252Y-134960000D02*
X125738748Y-134960000D01*
X126261252Y-133540000D02*
X125738748Y-133540000D01*
X135297936Y-116340000D02*
X136502064Y-116340000D01*
X135297936Y-118160000D02*
X136502064Y-118160000D01*
X145497936Y-124590000D02*
X146702064Y-124590000D01*
X145497936Y-126410000D02*
X146702064Y-126410000D01*
X153840000Y-146852064D02*
X153840000Y-145647936D01*
X155660000Y-146852064D02*
X155660000Y-145647936D01*
X142090000Y-137852064D02*
X142090000Y-136647936D01*
X143910000Y-137852064D02*
X143910000Y-136647936D01*
X144340000Y-137852064D02*
X144340000Y-136647936D01*
X146160000Y-137852064D02*
X146160000Y-136647936D01*
X154090000Y-124002064D02*
X154090000Y-122797936D01*
X155910000Y-124002064D02*
X155910000Y-122797936D01*
X154500000Y-148790000D02*
X154750000Y-149290000D01*
X155000000Y-148790000D02*
X154500000Y-148790000D01*
X154750000Y-149290000D02*
X155000000Y-148790000D01*
X124750000Y-148790000D02*
X125000000Y-149290000D01*
X125250000Y-148790000D02*
X124750000Y-148790000D01*
X125000000Y-149290000D02*
X125250000Y-148790000D01*
D10*
X156625000Y-133175000D02*
X156125000Y-133175000D01*
X153375000Y-129925000D02*
X153875000Y-129925000D01*
X153375000Y-133175000D02*
X153875000Y-133175000D01*
X156625000Y-129925000D02*
X156625000Y-130425000D01*
X153375000Y-129925000D02*
X153375000Y-130425000D01*
X153375000Y-133175000D02*
X153375000Y-132675000D01*
X156625000Y-133175000D02*
X156625000Y-132675000D01*
D11*
X134700000Y-111136500D02*
X135900000Y-111136500D01*
X135900000Y-111136500D02*
X135900000Y-113836500D01*
X131100000Y-115136500D02*
X131100000Y-111136500D01*
X131100000Y-111136500D02*
X132300000Y-111136500D01*
X120886500Y-119800000D02*
X120886500Y-118600000D01*
X120886500Y-118600000D02*
X123586500Y-118600000D01*
X124886500Y-123400000D02*
X120886500Y-123400000D01*
X120886500Y-123400000D02*
X120886500Y-122200000D01*
X121386500Y-137050000D02*
X121386500Y-135850000D01*
X121386500Y-135850000D02*
X124086500Y-135850000D01*
X125386500Y-140650000D02*
X121386500Y-140650000D01*
X121386500Y-140650000D02*
X121386500Y-139450000D01*
D10*
X146782380Y-149603333D02*
X147496666Y-149603333D01*
X147639523Y-149650952D01*
X147734761Y-149746190D01*
X147782380Y-149889047D01*
X147782380Y-149984285D01*
X147782380Y-148603333D02*
X147782380Y-149174761D01*
X147782380Y-148889047D02*
X146782380Y-148889047D01*
X146925238Y-148984285D01*
X147020476Y-149079523D01*
X147068095Y-149174761D01*
X114238095Y-145752380D02*
X114238095Y-144752380D01*
X114238095Y-145228571D02*
X114809523Y-145228571D01*
X114809523Y-145752380D02*
X114809523Y-144752380D01*
X115714285Y-145085714D02*
X115714285Y-145752380D01*
X115476190Y-144704761D02*
X115238095Y-145419047D01*
X115857142Y-145419047D01*
X165238095Y-145752380D02*
X165238095Y-144752380D01*
X165238095Y-145228571D02*
X165809523Y-145228571D01*
X165809523Y-145752380D02*
X165809523Y-144752380D01*
X166190476Y-144752380D02*
X166809523Y-144752380D01*
X166476190Y-145133333D01*
X166619047Y-145133333D01*
X166714285Y-145180952D01*
X166761904Y-145228571D01*
X166809523Y-145323809D01*
X166809523Y-145561904D01*
X166761904Y-145657142D01*
X166714285Y-145704761D01*
X166619047Y-145752380D01*
X166333333Y-145752380D01*
X166238095Y-145704761D01*
X166190476Y-145657142D01*
X165238095Y-117152380D02*
X165238095Y-116152380D01*
X165238095Y-116628571D02*
X165809523Y-116628571D01*
X165809523Y-117152380D02*
X165809523Y-116152380D01*
X166238095Y-116247619D02*
X166285714Y-116200000D01*
X166380952Y-116152380D01*
X166619047Y-116152380D01*
X166714285Y-116200000D01*
X166761904Y-116247619D01*
X166809523Y-116342857D01*
X166809523Y-116438095D01*
X166761904Y-116580952D01*
X166190476Y-117152380D01*
X166809523Y-117152380D01*
X114238095Y-117152380D02*
X114238095Y-116152380D01*
X114238095Y-116628571D02*
X114809523Y-116628571D01*
X114809523Y-117152380D02*
X114809523Y-116152380D01*
X115809523Y-117152380D02*
X115238095Y-117152380D01*
X115523809Y-117152380D02*
X115523809Y-116152380D01*
X115428571Y-116295238D01*
X115333333Y-116390476D01*
X115238095Y-116438095D01*
X151602380Y-144667857D02*
X151126190Y-145001190D01*
X151602380Y-145239285D02*
X150602380Y-145239285D01*
X150602380Y-144858333D01*
X150650000Y-144763095D01*
X150697619Y-144715476D01*
X150792857Y-144667857D01*
X150935714Y-144667857D01*
X151030952Y-144715476D01*
X151078571Y-144763095D01*
X151126190Y-144858333D01*
X151126190Y-145239285D01*
X151602380Y-143715476D02*
X151602380Y-144286904D01*
X151602380Y-144001190D02*
X150602380Y-144001190D01*
X150745238Y-144096428D01*
X150840476Y-144191666D01*
X150888095Y-144286904D01*
X151602380Y-142763095D02*
X151602380Y-143334523D01*
X151602380Y-143048809D02*
X150602380Y-143048809D01*
X150745238Y-143144047D01*
X150840476Y-143239285D01*
X150888095Y-143334523D01*
X143627380Y-144688095D02*
X142627380Y-144688095D01*
X142627380Y-144450000D01*
X142675000Y-144307142D01*
X142770238Y-144211904D01*
X142865476Y-144164285D01*
X143055952Y-144116666D01*
X143198809Y-144116666D01*
X143389285Y-144164285D01*
X143484523Y-144211904D01*
X143579761Y-144307142D01*
X143627380Y-144450000D01*
X143627380Y-144688095D01*
X143627380Y-143164285D02*
X143627380Y-143735714D01*
X143627380Y-143450000D02*
X142627380Y-143450000D01*
X142770238Y-143545238D01*
X142865476Y-143640476D01*
X142913095Y-143735714D01*
X140392857Y-111607142D02*
X140345238Y-111559523D01*
X140297619Y-111416666D01*
X140297619Y-111321428D01*
X140345238Y-111178571D01*
X140440476Y-111083333D01*
X140535714Y-111035714D01*
X140726190Y-110988095D01*
X140869047Y-110988095D01*
X141059523Y-111035714D01*
X141154761Y-111083333D01*
X141250000Y-111178571D01*
X141297619Y-111321428D01*
X141297619Y-111416666D01*
X141250000Y-111559523D01*
X141202380Y-111607142D01*
X140297619Y-112559523D02*
X140297619Y-111988095D01*
X140297619Y-112273809D02*
X141297619Y-112273809D01*
X141154761Y-112178571D01*
X141059523Y-112083333D01*
X141011904Y-111988095D01*
X141297619Y-112892857D02*
X141297619Y-113511904D01*
X140916666Y-113178571D01*
X140916666Y-113321428D01*
X140869047Y-113416666D01*
X140821428Y-113464285D01*
X140726190Y-113511904D01*
X140488095Y-113511904D01*
X140392857Y-113464285D01*
X140345238Y-113416666D01*
X140297619Y-113321428D01*
X140297619Y-113035714D01*
X140345238Y-112940476D01*
X140392857Y-112892857D01*
X129517857Y-115682142D02*
X129470238Y-115634523D01*
X129422619Y-115491666D01*
X129422619Y-115396428D01*
X129470238Y-115253571D01*
X129565476Y-115158333D01*
X129660714Y-115110714D01*
X129851190Y-115063095D01*
X129994047Y-115063095D01*
X130184523Y-115110714D01*
X130279761Y-115158333D01*
X130375000Y-115253571D01*
X130422619Y-115396428D01*
X130422619Y-115491666D01*
X130375000Y-115634523D01*
X130327380Y-115682142D01*
X129422619Y-116634523D02*
X129422619Y-116063095D01*
X129422619Y-116348809D02*
X130422619Y-116348809D01*
X130279761Y-116253571D01*
X130184523Y-116158333D01*
X130136904Y-116063095D01*
X130327380Y-117015476D02*
X130375000Y-117063095D01*
X130422619Y-117158333D01*
X130422619Y-117396428D01*
X130375000Y-117491666D01*
X130327380Y-117539285D01*
X130232142Y-117586904D01*
X130136904Y-117586904D01*
X129994047Y-117539285D01*
X129422619Y-116967857D01*
X129422619Y-117586904D01*
X128857142Y-120392857D02*
X128904761Y-120440476D01*
X128952380Y-120583333D01*
X128952380Y-120678571D01*
X128904761Y-120821428D01*
X128809523Y-120916666D01*
X128714285Y-120964285D01*
X128523809Y-121011904D01*
X128380952Y-121011904D01*
X128190476Y-120964285D01*
X128095238Y-120916666D01*
X128000000Y-120821428D01*
X127952380Y-120678571D01*
X127952380Y-120583333D01*
X128000000Y-120440476D01*
X128047619Y-120392857D01*
X128952380Y-119440476D02*
X128952380Y-120011904D01*
X128952380Y-119726190D02*
X127952380Y-119726190D01*
X128095238Y-119821428D01*
X128190476Y-119916666D01*
X128238095Y-120011904D01*
X127952380Y-118821428D02*
X127952380Y-118726190D01*
X128000000Y-118630952D01*
X128047619Y-118583333D01*
X128142857Y-118535714D01*
X128333333Y-118488095D01*
X128571428Y-118488095D01*
X128761904Y-118535714D01*
X128857142Y-118583333D01*
X128904761Y-118630952D01*
X128952380Y-118726190D01*
X128952380Y-118821428D01*
X128904761Y-118916666D01*
X128857142Y-118964285D01*
X128761904Y-119011904D01*
X128571428Y-119059523D01*
X128333333Y-119059523D01*
X128142857Y-119011904D01*
X128047619Y-118964285D01*
X128000000Y-118916666D01*
X127952380Y-118821428D01*
X129182142Y-136866666D02*
X129229761Y-136914285D01*
X129277380Y-137057142D01*
X129277380Y-137152380D01*
X129229761Y-137295238D01*
X129134523Y-137390476D01*
X129039285Y-137438095D01*
X128848809Y-137485714D01*
X128705952Y-137485714D01*
X128515476Y-137438095D01*
X128420238Y-137390476D01*
X128325000Y-137295238D01*
X128277380Y-137152380D01*
X128277380Y-137057142D01*
X128325000Y-136914285D01*
X128372619Y-136866666D01*
X129277380Y-136390476D02*
X129277380Y-136200000D01*
X129229761Y-136104761D01*
X129182142Y-136057142D01*
X129039285Y-135961904D01*
X128848809Y-135914285D01*
X128467857Y-135914285D01*
X128372619Y-135961904D01*
X128325000Y-136009523D01*
X128277380Y-136104761D01*
X128277380Y-136295238D01*
X128325000Y-136390476D01*
X128372619Y-136438095D01*
X128467857Y-136485714D01*
X128705952Y-136485714D01*
X128801190Y-136438095D01*
X128848809Y-136390476D01*
X128896428Y-136295238D01*
X128896428Y-136104761D01*
X128848809Y-136009523D01*
X128801190Y-135961904D01*
X128705952Y-135914285D01*
X127383333Y-112957142D02*
X127335714Y-113004761D01*
X127192857Y-113052380D01*
X127097619Y-113052380D01*
X126954761Y-113004761D01*
X126859523Y-112909523D01*
X126811904Y-112814285D01*
X126764285Y-112623809D01*
X126764285Y-112480952D01*
X126811904Y-112290476D01*
X126859523Y-112195238D01*
X126954761Y-112100000D01*
X127097619Y-112052380D01*
X127192857Y-112052380D01*
X127335714Y-112100000D01*
X127383333Y-112147619D01*
X127716666Y-112052380D02*
X128335714Y-112052380D01*
X128002380Y-112433333D01*
X128145238Y-112433333D01*
X128240476Y-112480952D01*
X128288095Y-112528571D01*
X128335714Y-112623809D01*
X128335714Y-112861904D01*
X128288095Y-112957142D01*
X128240476Y-113004761D01*
X128145238Y-113052380D01*
X127859523Y-113052380D01*
X127764285Y-113004761D01*
X127716666Y-112957142D01*
X125572857Y-125295833D02*
X125525238Y-125248214D01*
X125477619Y-125105357D01*
X125477619Y-125010119D01*
X125525238Y-124867261D01*
X125620476Y-124772023D01*
X125715714Y-124724404D01*
X125906190Y-124676785D01*
X126049047Y-124676785D01*
X126239523Y-124724404D01*
X126334761Y-124772023D01*
X126430000Y-124867261D01*
X126477619Y-125010119D01*
X126477619Y-125105357D01*
X126430000Y-125248214D01*
X126382380Y-125295833D01*
X126382380Y-125676785D02*
X126430000Y-125724404D01*
X126477619Y-125819642D01*
X126477619Y-126057738D01*
X126430000Y-126152976D01*
X126382380Y-126200595D01*
X126287142Y-126248214D01*
X126191904Y-126248214D01*
X126049047Y-126200595D01*
X125477619Y-125629166D01*
X125477619Y-126248214D01*
X126042857Y-146558333D02*
X125995238Y-146510714D01*
X125947619Y-146367857D01*
X125947619Y-146272619D01*
X125995238Y-146129761D01*
X126090476Y-146034523D01*
X126185714Y-145986904D01*
X126376190Y-145939285D01*
X126519047Y-145939285D01*
X126709523Y-145986904D01*
X126804761Y-146034523D01*
X126900000Y-146129761D01*
X126947619Y-146272619D01*
X126947619Y-146367857D01*
X126900000Y-146510714D01*
X126852380Y-146558333D01*
X125947619Y-147510714D02*
X125947619Y-146939285D01*
X125947619Y-147225000D02*
X126947619Y-147225000D01*
X126804761Y-147129761D01*
X126709523Y-147034523D01*
X126661904Y-146939285D01*
X149357142Y-124302380D02*
X149023809Y-123826190D01*
X148785714Y-124302380D02*
X148785714Y-123302380D01*
X149166666Y-123302380D01*
X149261904Y-123350000D01*
X149309523Y-123397619D01*
X149357142Y-123492857D01*
X149357142Y-123635714D01*
X149309523Y-123730952D01*
X149261904Y-123778571D01*
X149166666Y-123826190D01*
X148785714Y-123826190D01*
X150309523Y-124302380D02*
X149738095Y-124302380D01*
X150023809Y-124302380D02*
X150023809Y-123302380D01*
X149928571Y-123445238D01*
X149833333Y-123540476D01*
X149738095Y-123588095D01*
X150928571Y-123302380D02*
X151023809Y-123302380D01*
X151119047Y-123350000D01*
X151166666Y-123397619D01*
X151214285Y-123492857D01*
X151261904Y-123683333D01*
X151261904Y-123921428D01*
X151214285Y-124111904D01*
X151166666Y-124207142D01*
X151119047Y-124254761D01*
X151023809Y-124302380D01*
X150928571Y-124302380D01*
X150833333Y-124254761D01*
X150785714Y-124207142D01*
X150738095Y-124111904D01*
X150690476Y-123921428D01*
X150690476Y-123683333D01*
X150738095Y-123492857D01*
X150785714Y-123397619D01*
X150833333Y-123350000D01*
X150928571Y-123302380D01*
X140847619Y-127308333D02*
X141323809Y-126975000D01*
X140847619Y-126736904D02*
X141847619Y-126736904D01*
X141847619Y-127117857D01*
X141800000Y-127213095D01*
X141752380Y-127260714D01*
X141657142Y-127308333D01*
X141514285Y-127308333D01*
X141419047Y-127260714D01*
X141371428Y-127213095D01*
X141323809Y-127117857D01*
X141323809Y-126736904D01*
X140847619Y-127784523D02*
X140847619Y-127975000D01*
X140895238Y-128070238D01*
X140942857Y-128117857D01*
X141085714Y-128213095D01*
X141276190Y-128260714D01*
X141657142Y-128260714D01*
X141752380Y-128213095D01*
X141800000Y-128165476D01*
X141847619Y-128070238D01*
X141847619Y-127879761D01*
X141800000Y-127784523D01*
X141752380Y-127736904D01*
X141657142Y-127689285D01*
X141419047Y-127689285D01*
X141323809Y-127736904D01*
X141276190Y-127784523D01*
X141228571Y-127879761D01*
X141228571Y-128070238D01*
X141276190Y-128165476D01*
X141323809Y-128213095D01*
X141419047Y-128260714D01*
X139052380Y-140491666D02*
X138576190Y-140825000D01*
X139052380Y-141063095D02*
X138052380Y-141063095D01*
X138052380Y-140682142D01*
X138100000Y-140586904D01*
X138147619Y-140539285D01*
X138242857Y-140491666D01*
X138385714Y-140491666D01*
X138480952Y-140539285D01*
X138528571Y-140586904D01*
X138576190Y-140682142D01*
X138576190Y-141063095D01*
X138480952Y-139920238D02*
X138433333Y-140015476D01*
X138385714Y-140063095D01*
X138290476Y-140110714D01*
X138242857Y-140110714D01*
X138147619Y-140063095D01*
X138100000Y-140015476D01*
X138052380Y-139920238D01*
X138052380Y-139729761D01*
X138100000Y-139634523D01*
X138147619Y-139586904D01*
X138242857Y-139539285D01*
X138290476Y-139539285D01*
X138385714Y-139586904D01*
X138433333Y-139634523D01*
X138480952Y-139729761D01*
X138480952Y-139920238D01*
X138528571Y-140015476D01*
X138576190Y-140063095D01*
X138671428Y-140110714D01*
X138861904Y-140110714D01*
X138957142Y-140063095D01*
X139004761Y-140015476D01*
X139052380Y-139920238D01*
X139052380Y-139729761D01*
X139004761Y-139634523D01*
X138957142Y-139586904D01*
X138861904Y-139539285D01*
X138671428Y-139539285D01*
X138576190Y-139586904D01*
X138528571Y-139634523D01*
X138480952Y-139729761D01*
X149327380Y-140541666D02*
X148851190Y-140875000D01*
X149327380Y-141113095D02*
X148327380Y-141113095D01*
X148327380Y-140732142D01*
X148375000Y-140636904D01*
X148422619Y-140589285D01*
X148517857Y-140541666D01*
X148660714Y-140541666D01*
X148755952Y-140589285D01*
X148803571Y-140636904D01*
X148851190Y-140732142D01*
X148851190Y-141113095D01*
X148327380Y-140208333D02*
X148327380Y-139541666D01*
X149327380Y-139970238D01*
X149108333Y-137902380D02*
X148775000Y-137426190D01*
X148536904Y-137902380D02*
X148536904Y-136902380D01*
X148917857Y-136902380D01*
X149013095Y-136950000D01*
X149060714Y-136997619D01*
X149108333Y-137092857D01*
X149108333Y-137235714D01*
X149060714Y-137330952D01*
X149013095Y-137378571D01*
X148917857Y-137426190D01*
X148536904Y-137426190D01*
X149965476Y-136902380D02*
X149775000Y-136902380D01*
X149679761Y-136950000D01*
X149632142Y-136997619D01*
X149536904Y-137140476D01*
X149489285Y-137330952D01*
X149489285Y-137711904D01*
X149536904Y-137807142D01*
X149584523Y-137854761D01*
X149679761Y-137902380D01*
X149870238Y-137902380D01*
X149965476Y-137854761D01*
X150013095Y-137807142D01*
X150060714Y-137711904D01*
X150060714Y-137473809D01*
X150013095Y-137378571D01*
X149965476Y-137330952D01*
X149870238Y-137283333D01*
X149679761Y-137283333D01*
X149584523Y-137330952D01*
X149536904Y-137378571D01*
X149489285Y-137473809D01*
X144833333Y-113202380D02*
X144500000Y-112726190D01*
X144261904Y-113202380D02*
X144261904Y-112202380D01*
X144642857Y-112202380D01*
X144738095Y-112250000D01*
X144785714Y-112297619D01*
X144833333Y-112392857D01*
X144833333Y-112535714D01*
X144785714Y-112630952D01*
X144738095Y-112678571D01*
X144642857Y-112726190D01*
X144261904Y-112726190D01*
X145738095Y-112202380D02*
X145261904Y-112202380D01*
X145214285Y-112678571D01*
X145261904Y-112630952D01*
X145357142Y-112583333D01*
X145595238Y-112583333D01*
X145690476Y-112630952D01*
X145738095Y-112678571D01*
X145785714Y-112773809D01*
X145785714Y-113011904D01*
X145738095Y-113107142D01*
X145690476Y-113154761D01*
X145595238Y-113202380D01*
X145357142Y-113202380D01*
X145261904Y-113154761D01*
X145214285Y-113107142D01*
X147308333Y-113227380D02*
X146975000Y-112751190D01*
X146736904Y-113227380D02*
X146736904Y-112227380D01*
X147117857Y-112227380D01*
X147213095Y-112275000D01*
X147260714Y-112322619D01*
X147308333Y-112417857D01*
X147308333Y-112560714D01*
X147260714Y-112655952D01*
X147213095Y-112703571D01*
X147117857Y-112751190D01*
X146736904Y-112751190D01*
X148165476Y-112560714D02*
X148165476Y-113227380D01*
X147927380Y-112179761D02*
X147689285Y-112894047D01*
X148308333Y-112894047D01*
X125697619Y-129083333D02*
X126173809Y-128750000D01*
X125697619Y-128511904D02*
X126697619Y-128511904D01*
X126697619Y-128892857D01*
X126650000Y-128988095D01*
X126602380Y-129035714D01*
X126507142Y-129083333D01*
X126364285Y-129083333D01*
X126269047Y-129035714D01*
X126221428Y-128988095D01*
X126173809Y-128892857D01*
X126173809Y-128511904D01*
X126697619Y-129416666D02*
X126697619Y-130035714D01*
X126316666Y-129702380D01*
X126316666Y-129845238D01*
X126269047Y-129940476D01*
X126221428Y-129988095D01*
X126126190Y-130035714D01*
X125888095Y-130035714D01*
X125792857Y-129988095D01*
X125745238Y-129940476D01*
X125697619Y-129845238D01*
X125697619Y-129559523D01*
X125745238Y-129464285D01*
X125792857Y-129416666D01*
X121427380Y-132391666D02*
X120951190Y-132725000D01*
X121427380Y-132963095D02*
X120427380Y-132963095D01*
X120427380Y-132582142D01*
X120475000Y-132486904D01*
X120522619Y-132439285D01*
X120617857Y-132391666D01*
X120760714Y-132391666D01*
X120855952Y-132439285D01*
X120903571Y-132486904D01*
X120951190Y-132582142D01*
X120951190Y-132963095D01*
X120522619Y-132010714D02*
X120475000Y-131963095D01*
X120427380Y-131867857D01*
X120427380Y-131629761D01*
X120475000Y-131534523D01*
X120522619Y-131486904D01*
X120617857Y-131439285D01*
X120713095Y-131439285D01*
X120855952Y-131486904D01*
X121427380Y-132058333D01*
X121427380Y-131439285D01*
X127227380Y-143216666D02*
X126751190Y-143550000D01*
X127227380Y-143788095D02*
X126227380Y-143788095D01*
X126227380Y-143407142D01*
X126275000Y-143311904D01*
X126322619Y-143264285D01*
X126417857Y-143216666D01*
X126560714Y-143216666D01*
X126655952Y-143264285D01*
X126703571Y-143311904D01*
X126751190Y-143407142D01*
X126751190Y-143788095D01*
X127227380Y-142264285D02*
X127227380Y-142835714D01*
X127227380Y-142550000D02*
X126227380Y-142550000D01*
X126370238Y-142645238D01*
X126465476Y-142740476D01*
X126513095Y-142835714D01*
X157452380Y-139741666D02*
X157452380Y-140217857D01*
X156452380Y-140217857D01*
X156880952Y-139265476D02*
X156833333Y-139360714D01*
X156785714Y-139408333D01*
X156690476Y-139455952D01*
X156642857Y-139455952D01*
X156547619Y-139408333D01*
X156500000Y-139360714D01*
X156452380Y-139265476D01*
X156452380Y-139075000D01*
X156500000Y-138979761D01*
X156547619Y-138932142D01*
X156642857Y-138884523D01*
X156690476Y-138884523D01*
X156785714Y-138932142D01*
X156833333Y-138979761D01*
X156880952Y-139075000D01*
X156880952Y-139265476D01*
X156928571Y-139360714D01*
X156976190Y-139408333D01*
X157071428Y-139455952D01*
X157261904Y-139455952D01*
X157357142Y-139408333D01*
X157404761Y-139360714D01*
X157452380Y-139265476D01*
X157452380Y-139075000D01*
X157404761Y-138979761D01*
X157357142Y-138932142D01*
X157261904Y-138884523D01*
X157071428Y-138884523D01*
X156976190Y-138932142D01*
X156928571Y-138979761D01*
X156880952Y-139075000D01*
X157108333Y-137477380D02*
X156632142Y-137477380D01*
X156632142Y-136477380D01*
X157346428Y-136477380D02*
X158013095Y-136477380D01*
X157584523Y-137477380D01*
X152533333Y-137452380D02*
X152057142Y-137452380D01*
X152057142Y-136452380D01*
X153295238Y-136452380D02*
X153104761Y-136452380D01*
X153009523Y-136500000D01*
X152961904Y-136547619D01*
X152866666Y-136690476D01*
X152819047Y-136880952D01*
X152819047Y-137261904D01*
X152866666Y-137357142D01*
X152914285Y-137404761D01*
X153009523Y-137452380D01*
X153200000Y-137452380D01*
X153295238Y-137404761D01*
X153342857Y-137357142D01*
X153390476Y-137261904D01*
X153390476Y-137023809D01*
X153342857Y-136928571D01*
X153295238Y-136880952D01*
X153200000Y-136833333D01*
X153009523Y-136833333D01*
X152914285Y-136880952D01*
X152866666Y-136928571D01*
X152819047Y-137023809D01*
X152758333Y-125727380D02*
X152282142Y-125727380D01*
X152282142Y-124727380D01*
X153567857Y-124727380D02*
X153091666Y-124727380D01*
X153044047Y-125203571D01*
X153091666Y-125155952D01*
X153186904Y-125108333D01*
X153425000Y-125108333D01*
X153520238Y-125155952D01*
X153567857Y-125203571D01*
X153615476Y-125298809D01*
X153615476Y-125536904D01*
X153567857Y-125632142D01*
X153520238Y-125679761D01*
X153425000Y-125727380D01*
X153186904Y-125727380D01*
X153091666Y-125679761D01*
X153044047Y-125632142D01*
X157333333Y-125652380D02*
X156857142Y-125652380D01*
X156857142Y-124652380D01*
X158095238Y-124985714D02*
X158095238Y-125652380D01*
X157857142Y-124604761D02*
X157619047Y-125319047D01*
X158238095Y-125319047D01*
X141952380Y-116166666D02*
X141952380Y-116642857D01*
X140952380Y-116642857D01*
X140952380Y-115928571D02*
X140952380Y-115309523D01*
X141333333Y-115642857D01*
X141333333Y-115500000D01*
X141380952Y-115404761D01*
X141428571Y-115357142D01*
X141523809Y-115309523D01*
X141761904Y-115309523D01*
X141857142Y-115357142D01*
X141904761Y-115404761D01*
X141952380Y-115500000D01*
X141952380Y-115785714D01*
X141904761Y-115880952D01*
X141857142Y-115928571D01*
X126283333Y-116127380D02*
X125807142Y-116127380D01*
X125807142Y-115127380D01*
X126569047Y-115222619D02*
X126616666Y-115175000D01*
X126711904Y-115127380D01*
X126950000Y-115127380D01*
X127045238Y-115175000D01*
X127092857Y-115222619D01*
X127140476Y-115317857D01*
X127140476Y-115413095D01*
X127092857Y-115555952D01*
X126521428Y-116127380D01*
X127140476Y-116127380D01*
X126708333Y-133027380D02*
X126232142Y-133027380D01*
X126232142Y-132027380D01*
X127565476Y-133027380D02*
X126994047Y-133027380D01*
X127279761Y-133027380D02*
X127279761Y-132027380D01*
X127184523Y-132170238D01*
X127089285Y-132265476D01*
X126994047Y-132313095D01*
X135257142Y-119607142D02*
X135209523Y-119654761D01*
X135066666Y-119702380D01*
X134971428Y-119702380D01*
X134828571Y-119654761D01*
X134733333Y-119559523D01*
X134685714Y-119464285D01*
X134638095Y-119273809D01*
X134638095Y-119130952D01*
X134685714Y-118940476D01*
X134733333Y-118845238D01*
X134828571Y-118750000D01*
X134971428Y-118702380D01*
X135066666Y-118702380D01*
X135209523Y-118750000D01*
X135257142Y-118797619D01*
X136209523Y-119702380D02*
X135638095Y-119702380D01*
X135923809Y-119702380D02*
X135923809Y-118702380D01*
X135828571Y-118845238D01*
X135733333Y-118940476D01*
X135638095Y-118988095D01*
X137161904Y-119702380D02*
X136590476Y-119702380D01*
X136876190Y-119702380D02*
X136876190Y-118702380D01*
X136780952Y-118845238D01*
X136685714Y-118940476D01*
X136590476Y-118988095D01*
X145933333Y-124037142D02*
X145885714Y-124084761D01*
X145742857Y-124132380D01*
X145647619Y-124132380D01*
X145504761Y-124084761D01*
X145409523Y-123989523D01*
X145361904Y-123894285D01*
X145314285Y-123703809D01*
X145314285Y-123560952D01*
X145361904Y-123370476D01*
X145409523Y-123275238D01*
X145504761Y-123180000D01*
X145647619Y-123132380D01*
X145742857Y-123132380D01*
X145885714Y-123180000D01*
X145933333Y-123227619D01*
X146504761Y-123560952D02*
X146409523Y-123513333D01*
X146361904Y-123465714D01*
X146314285Y-123370476D01*
X146314285Y-123322857D01*
X146361904Y-123227619D01*
X146409523Y-123180000D01*
X146504761Y-123132380D01*
X146695238Y-123132380D01*
X146790476Y-123180000D01*
X146838095Y-123227619D01*
X146885714Y-123322857D01*
X146885714Y-123370476D01*
X146838095Y-123465714D01*
X146790476Y-123513333D01*
X146695238Y-123560952D01*
X146504761Y-123560952D01*
X146409523Y-123608571D01*
X146361904Y-123656190D01*
X146314285Y-123751428D01*
X146314285Y-123941904D01*
X146361904Y-124037142D01*
X146409523Y-124084761D01*
X146504761Y-124132380D01*
X146695238Y-124132380D01*
X146790476Y-124084761D01*
X146838095Y-124037142D01*
X146885714Y-123941904D01*
X146885714Y-123751428D01*
X146838095Y-123656190D01*
X146790476Y-123608571D01*
X146695238Y-123560952D01*
X153287142Y-146416666D02*
X153334761Y-146464285D01*
X153382380Y-146607142D01*
X153382380Y-146702380D01*
X153334761Y-146845238D01*
X153239523Y-146940476D01*
X153144285Y-146988095D01*
X152953809Y-147035714D01*
X152810952Y-147035714D01*
X152620476Y-146988095D01*
X152525238Y-146940476D01*
X152430000Y-146845238D01*
X152382380Y-146702380D01*
X152382380Y-146607142D01*
X152430000Y-146464285D01*
X152477619Y-146416666D01*
X152382380Y-146083333D02*
X152382380Y-145416666D01*
X153382380Y-145845238D01*
X141582142Y-138416666D02*
X141629761Y-138464285D01*
X141677380Y-138607142D01*
X141677380Y-138702380D01*
X141629761Y-138845238D01*
X141534523Y-138940476D01*
X141439285Y-138988095D01*
X141248809Y-139035714D01*
X141105952Y-139035714D01*
X140915476Y-138988095D01*
X140820238Y-138940476D01*
X140725000Y-138845238D01*
X140677380Y-138702380D01*
X140677380Y-138607142D01*
X140725000Y-138464285D01*
X140772619Y-138416666D01*
X140677380Y-137559523D02*
X140677380Y-137750000D01*
X140725000Y-137845238D01*
X140772619Y-137892857D01*
X140915476Y-137988095D01*
X141105952Y-138035714D01*
X141486904Y-138035714D01*
X141582142Y-137988095D01*
X141629761Y-137940476D01*
X141677380Y-137845238D01*
X141677380Y-137654761D01*
X141629761Y-137559523D01*
X141582142Y-137511904D01*
X141486904Y-137464285D01*
X141248809Y-137464285D01*
X141153571Y-137511904D01*
X141105952Y-137559523D01*
X141058333Y-137654761D01*
X141058333Y-137845238D01*
X141105952Y-137940476D01*
X141153571Y-137988095D01*
X141248809Y-138035714D01*
X147407142Y-138391666D02*
X147454761Y-138439285D01*
X147502380Y-138582142D01*
X147502380Y-138677380D01*
X147454761Y-138820238D01*
X147359523Y-138915476D01*
X147264285Y-138963095D01*
X147073809Y-139010714D01*
X146930952Y-139010714D01*
X146740476Y-138963095D01*
X146645238Y-138915476D01*
X146550000Y-138820238D01*
X146502380Y-138677380D01*
X146502380Y-138582142D01*
X146550000Y-138439285D01*
X146597619Y-138391666D01*
X146502380Y-137486904D02*
X146502380Y-137963095D01*
X146978571Y-138010714D01*
X146930952Y-137963095D01*
X146883333Y-137867857D01*
X146883333Y-137629761D01*
X146930952Y-137534523D01*
X146978571Y-137486904D01*
X147073809Y-137439285D01*
X147311904Y-137439285D01*
X147407142Y-137486904D01*
X147454761Y-137534523D01*
X147502380Y-137629761D01*
X147502380Y-137867857D01*
X147454761Y-137963095D01*
X147407142Y-138010714D01*
X153607142Y-122541666D02*
X153654761Y-122589285D01*
X153702380Y-122732142D01*
X153702380Y-122827380D01*
X153654761Y-122970238D01*
X153559523Y-123065476D01*
X153464285Y-123113095D01*
X153273809Y-123160714D01*
X153130952Y-123160714D01*
X152940476Y-123113095D01*
X152845238Y-123065476D01*
X152750000Y-122970238D01*
X152702380Y-122827380D01*
X152702380Y-122732142D01*
X152750000Y-122589285D01*
X152797619Y-122541666D01*
X153035714Y-121684523D02*
X153702380Y-121684523D01*
X152654761Y-121922619D02*
X153369047Y-122160714D01*
X153369047Y-121541666D01*
X149783333Y-148966666D02*
X150259523Y-148966666D01*
X149688095Y-149252380D02*
X150021428Y-148252380D01*
X150354761Y-149252380D01*
X150688095Y-148728571D02*
X151021428Y-148728571D01*
X151164285Y-149252380D02*
X150688095Y-149252380D01*
X150688095Y-148252380D01*
X151164285Y-148252380D01*
X151545238Y-148347619D02*
X151592857Y-148300000D01*
X151688095Y-148252380D01*
X151926190Y-148252380D01*
X152021428Y-148300000D01*
X152069047Y-148347619D01*
X152116666Y-148442857D01*
X152116666Y-148538095D01*
X152069047Y-148680952D01*
X151497619Y-149252380D01*
X152116666Y-149252380D01*
X128008333Y-148641666D02*
X128484523Y-148641666D01*
X127913095Y-148927380D02*
X128246428Y-147927380D01*
X128579761Y-148927380D01*
X128913095Y-148403571D02*
X129246428Y-148403571D01*
X129389285Y-148927380D02*
X128913095Y-148927380D01*
X128913095Y-147927380D01*
X129389285Y-147927380D01*
X130341666Y-148927380D02*
X129770238Y-148927380D01*
X130055952Y-148927380D02*
X130055952Y-147927380D01*
X129960714Y-148070238D01*
X129865476Y-148165476D01*
X129770238Y-148213095D01*
X151163095Y-128227380D02*
X151163095Y-129036904D01*
X151210714Y-129132142D01*
X151258333Y-129179761D01*
X151353571Y-129227380D01*
X151544047Y-129227380D01*
X151639285Y-129179761D01*
X151686904Y-129132142D01*
X151734523Y-129036904D01*
X151734523Y-128227380D01*
X152639285Y-128560714D02*
X152639285Y-129227380D01*
X152401190Y-128179761D02*
X152163095Y-128894047D01*
X152782142Y-128894047D01*
X136288095Y-109177380D02*
X136288095Y-109986904D01*
X136335714Y-110082142D01*
X136383333Y-110129761D01*
X136478571Y-110177380D01*
X136669047Y-110177380D01*
X136764285Y-110129761D01*
X136811904Y-110082142D01*
X136859523Y-109986904D01*
X136859523Y-109177380D01*
X137240476Y-109177380D02*
X137859523Y-109177380D01*
X137526190Y-109558333D01*
X137669047Y-109558333D01*
X137764285Y-109605952D01*
X137811904Y-109653571D01*
X137859523Y-109748809D01*
X137859523Y-109986904D01*
X137811904Y-110082142D01*
X137764285Y-110129761D01*
X137669047Y-110177380D01*
X137383333Y-110177380D01*
X137288095Y-110129761D01*
X137240476Y-110082142D01*
X119563095Y-123702380D02*
X119563095Y-124511904D01*
X119610714Y-124607142D01*
X119658333Y-124654761D01*
X119753571Y-124702380D01*
X119944047Y-124702380D01*
X120039285Y-124654761D01*
X120086904Y-124607142D01*
X120134523Y-124511904D01*
X120134523Y-123702380D01*
X120563095Y-123797619D02*
X120610714Y-123750000D01*
X120705952Y-123702380D01*
X120944047Y-123702380D01*
X121039285Y-123750000D01*
X121086904Y-123797619D01*
X121134523Y-123892857D01*
X121134523Y-123988095D01*
X121086904Y-124130952D01*
X120515476Y-124702380D01*
X121134523Y-124702380D01*
X121954595Y-140902380D02*
X121954595Y-141711904D01*
X122002214Y-141807142D01*
X122049833Y-141854761D01*
X122145071Y-141902380D01*
X122335547Y-141902380D01*
X122430785Y-141854761D01*
X122478404Y-141807142D01*
X122526023Y-141711904D01*
X122526023Y-140902380D01*
X123526023Y-141902380D02*
X122954595Y-141902380D01*
X123240309Y-141902380D02*
X123240309Y-140902380D01*
X123145071Y-141045238D01*
X123049833Y-141140476D01*
X122954595Y-141188095D01*
%LPC*%
D12*
G36*
X118750000Y-140250000D02*
G01*
X112900000Y-140250000D01*
X112900000Y-121225000D01*
X118750000Y-121225000D01*
X118750000Y-140250000D01*
G37*
X118750000Y-140250000D02*
X112900000Y-140250000D01*
X112900000Y-121225000D01*
X118750000Y-121225000D01*
X118750000Y-140250000D01*
D13*
X154800000Y-147900000D02*
X154800000Y-150100000D01*
X155000000Y-133000000D02*
X155000000Y-136900000D01*
X155000000Y-139800000D02*
X155000000Y-144500000D01*
X155200000Y-124800000D02*
X155200000Y-129200000D01*
X147700000Y-114400000D02*
X155050000Y-121850000D01*
X124550000Y-116150000D02*
X126750000Y-114000000D01*
X124500000Y-116200000D02*
X124500000Y-119500000D01*
X132000000Y-113900000D02*
X126800000Y-113900000D01*
X147450000Y-114350000D02*
X134350000Y-114350000D01*
X124500000Y-136800000D02*
X124500000Y-122700000D01*
X124500000Y-141900000D02*
X124500000Y-139800000D01*
X125000000Y-151000000D02*
X125000000Y-144000000D01*
D14*
X137380000Y-150540000D03*
X137380000Y-148000000D03*
X139920000Y-150540000D03*
X139920000Y-148000000D03*
X142460000Y-150540000D03*
X142460000Y-148000000D03*
X145000000Y-150540000D03*
D15*
X145000000Y-148000000D03*
D16*
X116962221Y-148037779D03*
X115000000Y-147225000D03*
X113037779Y-148037779D03*
X112225000Y-150000000D03*
X113037779Y-151962221D03*
X115000000Y-152775000D03*
X116962221Y-151962221D03*
X117775000Y-150000000D03*
D17*
X115000000Y-150000000D03*
D16*
X167962221Y-148037779D03*
X166000000Y-147225000D03*
X164037779Y-148037779D03*
X163225000Y-150000000D03*
X164037779Y-151962221D03*
X166000000Y-152775000D03*
X167962221Y-151962221D03*
X168775000Y-150000000D03*
D17*
X166000000Y-150000000D03*
D16*
X164037779Y-113962221D03*
X166000000Y-114775000D03*
X167962221Y-113962221D03*
X168775000Y-112000000D03*
X167962221Y-110037779D03*
X166000000Y-109225000D03*
X164037779Y-110037779D03*
X163225000Y-112000000D03*
D17*
X166000000Y-112000000D03*
D16*
X113037779Y-113962221D03*
X115000000Y-114775000D03*
X116962221Y-113962221D03*
X117775000Y-112000000D03*
X116962221Y-110037779D03*
X115000000Y-109225000D03*
X113037779Y-110037779D03*
X112225000Y-112000000D03*
D17*
X115000000Y-112000000D03*
D12*
G36*
X149988646Y-143419020D02*
G01*
X150073969Y-143476031D01*
X150130980Y-143561354D01*
X150151000Y-143662000D01*
X150151000Y-144188000D01*
X150130980Y-144288646D01*
X150073969Y-144373969D01*
X149988646Y-144430980D01*
X149888000Y-144451000D01*
X149262000Y-144451000D01*
X149161354Y-144430980D01*
X149076031Y-144373969D01*
X149019020Y-144288646D01*
X148999000Y-144188000D01*
X148999000Y-143662000D01*
X149019020Y-143561354D01*
X149076031Y-143476031D01*
X149161354Y-143419020D01*
X149262000Y-143399000D01*
X149888000Y-143399000D01*
X149988646Y-143419020D01*
G37*
D18*
X149575000Y-143925000D03*
D12*
G36*
X148238646Y-143419020D02*
G01*
X148323969Y-143476031D01*
X148380980Y-143561354D01*
X148401000Y-143662000D01*
X148401000Y-144188000D01*
X148380980Y-144288646D01*
X148323969Y-144373969D01*
X148238646Y-144430980D01*
X148138000Y-144451000D01*
X147512000Y-144451000D01*
X147411354Y-144430980D01*
X147326031Y-144373969D01*
X147269020Y-144288646D01*
X147249000Y-144188000D01*
X147249000Y-143662000D01*
X147269020Y-143561354D01*
X147326031Y-143476031D01*
X147411354Y-143419020D01*
X147512000Y-143399000D01*
X148138000Y-143399000D01*
X148238646Y-143419020D01*
G37*
D18*
X147825000Y-143925000D03*
D12*
G36*
X146575220Y-143417592D02*
G01*
X146654461Y-143470539D01*
X146707408Y-143549780D01*
X146726000Y-143643250D01*
X146726000Y-144206750D01*
X146707408Y-144300220D01*
X146654461Y-144379461D01*
X146575220Y-144432408D01*
X146481750Y-144451000D01*
X145993250Y-144451000D01*
X145899780Y-144432408D01*
X145820539Y-144379461D01*
X145767592Y-144300220D01*
X145749000Y-144206750D01*
X145749000Y-143643250D01*
X145767592Y-143549780D01*
X145820539Y-143470539D01*
X145899780Y-143417592D01*
X145993250Y-143399000D01*
X146481750Y-143399000D01*
X146575220Y-143417592D01*
G37*
D19*
X146237500Y-143925000D03*
D12*
G36*
X145000220Y-143417592D02*
G01*
X145079461Y-143470539D01*
X145132408Y-143549780D01*
X145151000Y-143643250D01*
X145151000Y-144206750D01*
X145132408Y-144300220D01*
X145079461Y-144379461D01*
X145000220Y-144432408D01*
X144906750Y-144451000D01*
X144418250Y-144451000D01*
X144324780Y-144432408D01*
X144245539Y-144379461D01*
X144192592Y-144300220D01*
X144174000Y-144206750D01*
X144174000Y-143643250D01*
X144192592Y-143549780D01*
X144245539Y-143470539D01*
X144324780Y-143417592D01*
X144418250Y-143399000D01*
X144906750Y-143399000D01*
X145000220Y-143417592D01*
G37*
D19*
X144662500Y-143925000D03*
D12*
G36*
X142375220Y-113567592D02*
G01*
X142454461Y-113620539D01*
X142507408Y-113699780D01*
X142526000Y-113793250D01*
X142526000Y-114281750D01*
X142507408Y-114375220D01*
X142454461Y-114454461D01*
X142375220Y-114507408D01*
X142281750Y-114526000D01*
X141718250Y-114526000D01*
X141624780Y-114507408D01*
X141545539Y-114454461D01*
X141492592Y-114375220D01*
X141474000Y-114281750D01*
X141474000Y-113793250D01*
X141492592Y-113699780D01*
X141545539Y-113620539D01*
X141624780Y-113567592D01*
X141718250Y-113549000D01*
X142281750Y-113549000D01*
X142375220Y-113567592D01*
G37*
D19*
X142000000Y-114037500D03*
D12*
G36*
X142375220Y-111992592D02*
G01*
X142454461Y-112045539D01*
X142507408Y-112124780D01*
X142526000Y-112218250D01*
X142526000Y-112706750D01*
X142507408Y-112800220D01*
X142454461Y-112879461D01*
X142375220Y-112932408D01*
X142281750Y-112951000D01*
X141718250Y-112951000D01*
X141624780Y-112932408D01*
X141545539Y-112879461D01*
X141492592Y-112800220D01*
X141474000Y-112706750D01*
X141474000Y-112218250D01*
X141492592Y-112124780D01*
X141545539Y-112045539D01*
X141624780Y-111992592D01*
X141718250Y-111974000D01*
X142281750Y-111974000D01*
X142375220Y-111992592D01*
G37*
D19*
X142000000Y-112462500D03*
D12*
G36*
X130375220Y-113567592D02*
G01*
X130454461Y-113620539D01*
X130507408Y-113699780D01*
X130526000Y-113793250D01*
X130526000Y-114281750D01*
X130507408Y-114375220D01*
X130454461Y-114454461D01*
X130375220Y-114507408D01*
X130281750Y-114526000D01*
X129718250Y-114526000D01*
X129624780Y-114507408D01*
X129545539Y-114454461D01*
X129492592Y-114375220D01*
X129474000Y-114281750D01*
X129474000Y-113793250D01*
X129492592Y-113699780D01*
X129545539Y-113620539D01*
X129624780Y-113567592D01*
X129718250Y-113549000D01*
X130281750Y-113549000D01*
X130375220Y-113567592D01*
G37*
D19*
X130000000Y-114037500D03*
D12*
G36*
X130375220Y-111992592D02*
G01*
X130454461Y-112045539D01*
X130507408Y-112124780D01*
X130526000Y-112218250D01*
X130526000Y-112706750D01*
X130507408Y-112800220D01*
X130454461Y-112879461D01*
X130375220Y-112932408D01*
X130281750Y-112951000D01*
X129718250Y-112951000D01*
X129624780Y-112932408D01*
X129545539Y-112879461D01*
X129492592Y-112800220D01*
X129474000Y-112706750D01*
X129474000Y-112218250D01*
X129492592Y-112124780D01*
X129545539Y-112045539D01*
X129624780Y-111992592D01*
X129718250Y-111974000D01*
X130281750Y-111974000D01*
X130375220Y-111992592D01*
G37*
D19*
X130000000Y-112462500D03*
D12*
G36*
X126875220Y-118492592D02*
G01*
X126954461Y-118545539D01*
X127007408Y-118624780D01*
X127026000Y-118718250D01*
X127026000Y-119206750D01*
X127007408Y-119300220D01*
X126954461Y-119379461D01*
X126875220Y-119432408D01*
X126781750Y-119451000D01*
X126218250Y-119451000D01*
X126124780Y-119432408D01*
X126045539Y-119379461D01*
X125992592Y-119300220D01*
X125974000Y-119206750D01*
X125974000Y-118718250D01*
X125992592Y-118624780D01*
X126045539Y-118545539D01*
X126124780Y-118492592D01*
X126218250Y-118474000D01*
X126781750Y-118474000D01*
X126875220Y-118492592D01*
G37*
D19*
X126500000Y-118962500D03*
D12*
G36*
X126875220Y-120067592D02*
G01*
X126954461Y-120120539D01*
X127007408Y-120199780D01*
X127026000Y-120293250D01*
X127026000Y-120781750D01*
X127007408Y-120875220D01*
X126954461Y-120954461D01*
X126875220Y-121007408D01*
X126781750Y-121026000D01*
X126218250Y-121026000D01*
X126124780Y-121007408D01*
X126045539Y-120954461D01*
X125992592Y-120875220D01*
X125974000Y-120781750D01*
X125974000Y-120293250D01*
X125992592Y-120199780D01*
X126045539Y-120120539D01*
X126124780Y-120067592D01*
X126218250Y-120049000D01*
X126781750Y-120049000D01*
X126875220Y-120067592D01*
G37*
D19*
X126500000Y-120537500D03*
D12*
G36*
X127625220Y-135492592D02*
G01*
X127704461Y-135545539D01*
X127757408Y-135624780D01*
X127776000Y-135718250D01*
X127776000Y-136206750D01*
X127757408Y-136300220D01*
X127704461Y-136379461D01*
X127625220Y-136432408D01*
X127531750Y-136451000D01*
X126968250Y-136451000D01*
X126874780Y-136432408D01*
X126795539Y-136379461D01*
X126742592Y-136300220D01*
X126724000Y-136206750D01*
X126724000Y-135718250D01*
X126742592Y-135624780D01*
X126795539Y-135545539D01*
X126874780Y-135492592D01*
X126968250Y-135474000D01*
X127531750Y-135474000D01*
X127625220Y-135492592D01*
G37*
D19*
X127250000Y-135962500D03*
D12*
G36*
X127625220Y-137067592D02*
G01*
X127704461Y-137120539D01*
X127757408Y-137199780D01*
X127776000Y-137293250D01*
X127776000Y-137781750D01*
X127757408Y-137875220D01*
X127704461Y-137954461D01*
X127625220Y-138007408D01*
X127531750Y-138026000D01*
X126968250Y-138026000D01*
X126874780Y-138007408D01*
X126795539Y-137954461D01*
X126742592Y-137875220D01*
X126724000Y-137781750D01*
X126724000Y-137293250D01*
X126742592Y-137199780D01*
X126795539Y-137120539D01*
X126874780Y-137067592D01*
X126968250Y-137049000D01*
X127531750Y-137049000D01*
X127625220Y-137067592D01*
G37*
D19*
X127250000Y-137537500D03*
D12*
G36*
X127050220Y-113492592D02*
G01*
X127129461Y-113545539D01*
X127182408Y-113624780D01*
X127201000Y-113718250D01*
X127201000Y-114281750D01*
X127182408Y-114375220D01*
X127129461Y-114454461D01*
X127050220Y-114507408D01*
X126956750Y-114526000D01*
X126468250Y-114526000D01*
X126374780Y-114507408D01*
X126295539Y-114454461D01*
X126242592Y-114375220D01*
X126224000Y-114281750D01*
X126224000Y-113718250D01*
X126242592Y-113624780D01*
X126295539Y-113545539D01*
X126374780Y-113492592D01*
X126468250Y-113474000D01*
X126956750Y-113474000D01*
X127050220Y-113492592D01*
G37*
D19*
X126712500Y-114000000D03*
D12*
G36*
X128625220Y-113492592D02*
G01*
X128704461Y-113545539D01*
X128757408Y-113624780D01*
X128776000Y-113718250D01*
X128776000Y-114281750D01*
X128757408Y-114375220D01*
X128704461Y-114454461D01*
X128625220Y-114507408D01*
X128531750Y-114526000D01*
X128043250Y-114526000D01*
X127949780Y-114507408D01*
X127870539Y-114454461D01*
X127817592Y-114375220D01*
X127799000Y-114281750D01*
X127799000Y-113718250D01*
X127817592Y-113624780D01*
X127870539Y-113545539D01*
X127949780Y-113492592D01*
X128043250Y-113474000D01*
X128531750Y-113474000D01*
X128625220Y-113492592D01*
G37*
D19*
X128287500Y-114000000D03*
D12*
G36*
X124875220Y-125780092D02*
G01*
X124954461Y-125833039D01*
X125007408Y-125912280D01*
X125026000Y-126005750D01*
X125026000Y-126494250D01*
X125007408Y-126587720D01*
X124954461Y-126666961D01*
X124875220Y-126719908D01*
X124781750Y-126738500D01*
X124218250Y-126738500D01*
X124124780Y-126719908D01*
X124045539Y-126666961D01*
X123992592Y-126587720D01*
X123974000Y-126494250D01*
X123974000Y-126005750D01*
X123992592Y-125912280D01*
X124045539Y-125833039D01*
X124124780Y-125780092D01*
X124218250Y-125761500D01*
X124781750Y-125761500D01*
X124875220Y-125780092D01*
G37*
D19*
X124500000Y-126250000D03*
D12*
G36*
X124875220Y-124205092D02*
G01*
X124954461Y-124258039D01*
X125007408Y-124337280D01*
X125026000Y-124430750D01*
X125026000Y-124919250D01*
X125007408Y-125012720D01*
X124954461Y-125091961D01*
X124875220Y-125144908D01*
X124781750Y-125163500D01*
X124218250Y-125163500D01*
X124124780Y-125144908D01*
X124045539Y-125091961D01*
X123992592Y-125012720D01*
X123974000Y-124919250D01*
X123974000Y-124430750D01*
X123992592Y-124337280D01*
X124045539Y-124258039D01*
X124124780Y-124205092D01*
X124218250Y-124186500D01*
X124781750Y-124186500D01*
X124875220Y-124205092D01*
G37*
D19*
X124500000Y-124675000D03*
D12*
G36*
X125375220Y-147067592D02*
G01*
X125454461Y-147120539D01*
X125507408Y-147199780D01*
X125526000Y-147293250D01*
X125526000Y-147781750D01*
X125507408Y-147875220D01*
X125454461Y-147954461D01*
X125375220Y-148007408D01*
X125281750Y-148026000D01*
X124718250Y-148026000D01*
X124624780Y-148007408D01*
X124545539Y-147954461D01*
X124492592Y-147875220D01*
X124474000Y-147781750D01*
X124474000Y-147293250D01*
X124492592Y-147199780D01*
X124545539Y-147120539D01*
X124624780Y-147067592D01*
X124718250Y-147049000D01*
X125281750Y-147049000D01*
X125375220Y-147067592D01*
G37*
D19*
X125000000Y-147537500D03*
D12*
G36*
X125375220Y-145492592D02*
G01*
X125454461Y-145545539D01*
X125507408Y-145624780D01*
X125526000Y-145718250D01*
X125526000Y-146206750D01*
X125507408Y-146300220D01*
X125454461Y-146379461D01*
X125375220Y-146432408D01*
X125281750Y-146451000D01*
X124718250Y-146451000D01*
X124624780Y-146432408D01*
X124545539Y-146379461D01*
X124492592Y-146300220D01*
X124474000Y-146206750D01*
X124474000Y-145718250D01*
X124492592Y-145624780D01*
X124545539Y-145545539D01*
X124624780Y-145492592D01*
X124718250Y-145474000D01*
X125281750Y-145474000D01*
X125375220Y-145492592D01*
G37*
D19*
X125000000Y-145962500D03*
D12*
G36*
X151482983Y-124769718D02*
G01*
X151571282Y-124828718D01*
X151630282Y-124917017D01*
X151651000Y-125021173D01*
X151651000Y-125978827D01*
X151630282Y-126082983D01*
X151571282Y-126171282D01*
X151482983Y-126230282D01*
X151378827Y-126251000D01*
X150671173Y-126251000D01*
X150567017Y-126230282D01*
X150478718Y-126171282D01*
X150419718Y-126082983D01*
X150399000Y-125978827D01*
X150399000Y-125021173D01*
X150419718Y-124917017D01*
X150478718Y-124828718D01*
X150567017Y-124769718D01*
X150671173Y-124749000D01*
X151378827Y-124749000D01*
X151482983Y-124769718D01*
G37*
D20*
X151025000Y-125500000D03*
D12*
G36*
X149432983Y-124769718D02*
G01*
X149521282Y-124828718D01*
X149580282Y-124917017D01*
X149601000Y-125021173D01*
X149601000Y-125978827D01*
X149580282Y-126082983D01*
X149521282Y-126171282D01*
X149432983Y-126230282D01*
X149328827Y-126251000D01*
X148621173Y-126251000D01*
X148517017Y-126230282D01*
X148428718Y-126171282D01*
X148369718Y-126082983D01*
X148349000Y-125978827D01*
X148349000Y-125021173D01*
X148369718Y-124917017D01*
X148428718Y-124828718D01*
X148517017Y-124769718D01*
X148621173Y-124749000D01*
X149328827Y-124749000D01*
X149432983Y-124769718D01*
G37*
D20*
X148975000Y-125500000D03*
D12*
G36*
X143582983Y-128169718D02*
G01*
X143671282Y-128228718D01*
X143730282Y-128317017D01*
X143751000Y-128421173D01*
X143751000Y-129128827D01*
X143730282Y-129232983D01*
X143671282Y-129321282D01*
X143582983Y-129380282D01*
X143478827Y-129401000D01*
X142521173Y-129401000D01*
X142417017Y-129380282D01*
X142328718Y-129321282D01*
X142269718Y-129232983D01*
X142249000Y-129128827D01*
X142249000Y-128421173D01*
X142269718Y-128317017D01*
X142328718Y-128228718D01*
X142417017Y-128169718D01*
X142521173Y-128149000D01*
X143478827Y-128149000D01*
X143582983Y-128169718D01*
G37*
D20*
X143000000Y-128775000D03*
D12*
G36*
X143582983Y-126119718D02*
G01*
X143671282Y-126178718D01*
X143730282Y-126267017D01*
X143751000Y-126371173D01*
X143751000Y-127078827D01*
X143730282Y-127182983D01*
X143671282Y-127271282D01*
X143582983Y-127330282D01*
X143478827Y-127351000D01*
X142521173Y-127351000D01*
X142417017Y-127330282D01*
X142328718Y-127271282D01*
X142269718Y-127182983D01*
X142249000Y-127078827D01*
X142249000Y-126371173D01*
X142269718Y-126267017D01*
X142328718Y-126178718D01*
X142417017Y-126119718D01*
X142521173Y-126099000D01*
X143478827Y-126099000D01*
X143582983Y-126119718D01*
G37*
D20*
X143000000Y-126725000D03*
D12*
G36*
X142732983Y-139769718D02*
G01*
X142821282Y-139828718D01*
X142880282Y-139917017D01*
X142901000Y-140021173D01*
X142901000Y-140978827D01*
X142880282Y-141082983D01*
X142821282Y-141171282D01*
X142732983Y-141230282D01*
X142628827Y-141251000D01*
X141921173Y-141251000D01*
X141817017Y-141230282D01*
X141728718Y-141171282D01*
X141669718Y-141082983D01*
X141649000Y-140978827D01*
X141649000Y-140021173D01*
X141669718Y-139917017D01*
X141728718Y-139828718D01*
X141817017Y-139769718D01*
X141921173Y-139749000D01*
X142628827Y-139749000D01*
X142732983Y-139769718D01*
G37*
D20*
X142275000Y-140500000D03*
D12*
G36*
X140682983Y-139769718D02*
G01*
X140771282Y-139828718D01*
X140830282Y-139917017D01*
X140851000Y-140021173D01*
X140851000Y-140978827D01*
X140830282Y-141082983D01*
X140771282Y-141171282D01*
X140682983Y-141230282D01*
X140578827Y-141251000D01*
X139871173Y-141251000D01*
X139767017Y-141230282D01*
X139678718Y-141171282D01*
X139619718Y-141082983D01*
X139599000Y-140978827D01*
X139599000Y-140021173D01*
X139619718Y-139917017D01*
X139678718Y-139828718D01*
X139767017Y-139769718D01*
X139871173Y-139749000D01*
X140578827Y-139749000D01*
X140682983Y-139769718D01*
G37*
D20*
X140225000Y-140500000D03*
D12*
G36*
X145532983Y-139769718D02*
G01*
X145621282Y-139828718D01*
X145680282Y-139917017D01*
X145701000Y-140021173D01*
X145701000Y-140978827D01*
X145680282Y-141082983D01*
X145621282Y-141171282D01*
X145532983Y-141230282D01*
X145428827Y-141251000D01*
X144721173Y-141251000D01*
X144617017Y-141230282D01*
X144528718Y-141171282D01*
X144469718Y-141082983D01*
X144449000Y-140978827D01*
X144449000Y-140021173D01*
X144469718Y-139917017D01*
X144528718Y-139828718D01*
X144617017Y-139769718D01*
X144721173Y-139749000D01*
X145428827Y-139749000D01*
X145532983Y-139769718D01*
G37*
D20*
X145075000Y-140500000D03*
D12*
G36*
X147582983Y-139769718D02*
G01*
X147671282Y-139828718D01*
X147730282Y-139917017D01*
X147751000Y-140021173D01*
X147751000Y-140978827D01*
X147730282Y-141082983D01*
X147671282Y-141171282D01*
X147582983Y-141230282D01*
X147478827Y-141251000D01*
X146771173Y-141251000D01*
X146667017Y-141230282D01*
X146578718Y-141171282D01*
X146519718Y-141082983D01*
X146499000Y-140978827D01*
X146499000Y-140021173D01*
X146519718Y-139917017D01*
X146578718Y-139828718D01*
X146667017Y-139769718D01*
X146771173Y-139749000D01*
X147478827Y-139749000D01*
X147582983Y-139769718D01*
G37*
D20*
X147125000Y-140500000D03*
D12*
G36*
X147609078Y-134844583D02*
G01*
X147696802Y-134903198D01*
X147755417Y-134990922D01*
X147776000Y-135094400D01*
X147776000Y-136405600D01*
X147755417Y-136509078D01*
X147696802Y-136596802D01*
X147609078Y-136655417D01*
X147505600Y-136676000D01*
X146694400Y-136676000D01*
X146590922Y-136655417D01*
X146503198Y-136596802D01*
X146444583Y-136509078D01*
X146424000Y-136405600D01*
X146424000Y-135094400D01*
X146444583Y-134990922D01*
X146503198Y-134903198D01*
X146590922Y-134844583D01*
X146694400Y-134824000D01*
X147505600Y-134824000D01*
X147609078Y-134844583D01*
G37*
D21*
X147100000Y-135750000D03*
D12*
G36*
X150409078Y-134844583D02*
G01*
X150496802Y-134903198D01*
X150555417Y-134990922D01*
X150576000Y-135094400D01*
X150576000Y-136405600D01*
X150555417Y-136509078D01*
X150496802Y-136596802D01*
X150409078Y-136655417D01*
X150305600Y-136676000D01*
X149494400Y-136676000D01*
X149390922Y-136655417D01*
X149303198Y-136596802D01*
X149244583Y-136509078D01*
X149224000Y-136405600D01*
X149224000Y-135094400D01*
X149244583Y-134990922D01*
X149303198Y-134903198D01*
X149390922Y-134844583D01*
X149494400Y-134824000D01*
X150305600Y-134824000D01*
X150409078Y-134844583D01*
G37*
D21*
X149900000Y-135750000D03*
D12*
G36*
X146059788Y-113519495D02*
G01*
X146147139Y-113577861D01*
X146205505Y-113665212D01*
X146226000Y-113768250D01*
X146226000Y-114731750D01*
X146205505Y-114834788D01*
X146147139Y-114922139D01*
X146059788Y-114980505D01*
X145956750Y-115001000D01*
X145418250Y-115001000D01*
X145315212Y-114980505D01*
X145227861Y-114922139D01*
X145169495Y-114834788D01*
X145149000Y-114731750D01*
X145149000Y-113768250D01*
X145169495Y-113665212D01*
X145227861Y-113577861D01*
X145315212Y-113519495D01*
X145418250Y-113499000D01*
X145956750Y-113499000D01*
X146059788Y-113519495D01*
G37*
D22*
X145687500Y-114250000D03*
D12*
G36*
X144184788Y-113519495D02*
G01*
X144272139Y-113577861D01*
X144330505Y-113665212D01*
X144351000Y-113768250D01*
X144351000Y-114731750D01*
X144330505Y-114834788D01*
X144272139Y-114922139D01*
X144184788Y-114980505D01*
X144081750Y-115001000D01*
X143543250Y-115001000D01*
X143440212Y-114980505D01*
X143352861Y-114922139D01*
X143294495Y-114834788D01*
X143274000Y-114731750D01*
X143274000Y-113768250D01*
X143294495Y-113665212D01*
X143352861Y-113577861D01*
X143440212Y-113519495D01*
X143543250Y-113499000D01*
X144081750Y-113499000D01*
X144184788Y-113519495D01*
G37*
D22*
X143812500Y-114250000D03*
D12*
G36*
X147834788Y-115606995D02*
G01*
X147922139Y-115665361D01*
X147980505Y-115752712D01*
X148001000Y-115855750D01*
X148001000Y-116394250D01*
X147980505Y-116497288D01*
X147922139Y-116584639D01*
X147834788Y-116643005D01*
X147731750Y-116663500D01*
X146768250Y-116663500D01*
X146665212Y-116643005D01*
X146577861Y-116584639D01*
X146519495Y-116497288D01*
X146499000Y-116394250D01*
X146499000Y-115855750D01*
X146519495Y-115752712D01*
X146577861Y-115665361D01*
X146665212Y-115606995D01*
X146768250Y-115586500D01*
X147731750Y-115586500D01*
X147834788Y-115606995D01*
G37*
D22*
X147250000Y-116125000D03*
D12*
G36*
X147834788Y-113731995D02*
G01*
X147922139Y-113790361D01*
X147980505Y-113877712D01*
X148001000Y-113980750D01*
X148001000Y-114519250D01*
X147980505Y-114622288D01*
X147922139Y-114709639D01*
X147834788Y-114768005D01*
X147731750Y-114788500D01*
X146768250Y-114788500D01*
X146665212Y-114768005D01*
X146577861Y-114709639D01*
X146519495Y-114622288D01*
X146499000Y-114519250D01*
X146499000Y-113980750D01*
X146519495Y-113877712D01*
X146577861Y-113790361D01*
X146665212Y-113731995D01*
X146768250Y-113711500D01*
X147731750Y-113711500D01*
X147834788Y-113731995D01*
G37*
D22*
X147250000Y-114250000D03*
D12*
G36*
X125084788Y-129669495D02*
G01*
X125172139Y-129727861D01*
X125230505Y-129815212D01*
X125251000Y-129918250D01*
X125251000Y-130456750D01*
X125230505Y-130559788D01*
X125172139Y-130647139D01*
X125084788Y-130705505D01*
X124981750Y-130726000D01*
X124018250Y-130726000D01*
X123915212Y-130705505D01*
X123827861Y-130647139D01*
X123769495Y-130559788D01*
X123749000Y-130456750D01*
X123749000Y-129918250D01*
X123769495Y-129815212D01*
X123827861Y-129727861D01*
X123915212Y-129669495D01*
X124018250Y-129649000D01*
X124981750Y-129649000D01*
X125084788Y-129669495D01*
G37*
D22*
X124500000Y-130187500D03*
D12*
G36*
X125084788Y-127794495D02*
G01*
X125172139Y-127852861D01*
X125230505Y-127940212D01*
X125251000Y-128043250D01*
X125251000Y-128581750D01*
X125230505Y-128684788D01*
X125172139Y-128772139D01*
X125084788Y-128830505D01*
X124981750Y-128851000D01*
X124018250Y-128851000D01*
X123915212Y-128830505D01*
X123827861Y-128772139D01*
X123769495Y-128684788D01*
X123749000Y-128581750D01*
X123749000Y-128043250D01*
X123769495Y-127940212D01*
X123827861Y-127852861D01*
X123915212Y-127794495D01*
X124018250Y-127774000D01*
X124981750Y-127774000D01*
X125084788Y-127794495D01*
G37*
D22*
X124500000Y-128312500D03*
D12*
G36*
X124809788Y-131519495D02*
G01*
X124897139Y-131577861D01*
X124955505Y-131665212D01*
X124976000Y-131768250D01*
X124976000Y-132731750D01*
X124955505Y-132834788D01*
X124897139Y-132922139D01*
X124809788Y-132980505D01*
X124706750Y-133001000D01*
X124168250Y-133001000D01*
X124065212Y-132980505D01*
X123977861Y-132922139D01*
X123919495Y-132834788D01*
X123899000Y-132731750D01*
X123899000Y-131768250D01*
X123919495Y-131665212D01*
X123977861Y-131577861D01*
X124065212Y-131519495D01*
X124168250Y-131499000D01*
X124706750Y-131499000D01*
X124809788Y-131519495D01*
G37*
D22*
X124437500Y-132250000D03*
D12*
G36*
X122934788Y-131519495D02*
G01*
X123022139Y-131577861D01*
X123080505Y-131665212D01*
X123101000Y-131768250D01*
X123101000Y-132731750D01*
X123080505Y-132834788D01*
X123022139Y-132922139D01*
X122934788Y-132980505D01*
X122831750Y-133001000D01*
X122293250Y-133001000D01*
X122190212Y-132980505D01*
X122102861Y-132922139D01*
X122044495Y-132834788D01*
X122024000Y-132731750D01*
X122024000Y-131768250D01*
X122044495Y-131665212D01*
X122102861Y-131577861D01*
X122190212Y-131519495D01*
X122293250Y-131499000D01*
X122831750Y-131499000D01*
X122934788Y-131519495D01*
G37*
D22*
X122562500Y-132250000D03*
D12*
G36*
X125584788Y-141544495D02*
G01*
X125672139Y-141602861D01*
X125730505Y-141690212D01*
X125751000Y-141793250D01*
X125751000Y-142331750D01*
X125730505Y-142434788D01*
X125672139Y-142522139D01*
X125584788Y-142580505D01*
X125481750Y-142601000D01*
X124518250Y-142601000D01*
X124415212Y-142580505D01*
X124327861Y-142522139D01*
X124269495Y-142434788D01*
X124249000Y-142331750D01*
X124249000Y-141793250D01*
X124269495Y-141690212D01*
X124327861Y-141602861D01*
X124415212Y-141544495D01*
X124518250Y-141524000D01*
X125481750Y-141524000D01*
X125584788Y-141544495D01*
G37*
D22*
X125000000Y-142062500D03*
D12*
G36*
X125584788Y-143419495D02*
G01*
X125672139Y-143477861D01*
X125730505Y-143565212D01*
X125751000Y-143668250D01*
X125751000Y-144206750D01*
X125730505Y-144309788D01*
X125672139Y-144397139D01*
X125584788Y-144455505D01*
X125481750Y-144476000D01*
X124518250Y-144476000D01*
X124415212Y-144455505D01*
X124327861Y-144397139D01*
X124269495Y-144309788D01*
X124249000Y-144206750D01*
X124249000Y-143668250D01*
X124269495Y-143565212D01*
X124327861Y-143477861D01*
X124415212Y-143419495D01*
X124518250Y-143399000D01*
X125481750Y-143399000D01*
X125584788Y-143419495D01*
G37*
D22*
X125000000Y-143937500D03*
D12*
G36*
X155582983Y-136394718D02*
G01*
X155671282Y-136453718D01*
X155730282Y-136542017D01*
X155751000Y-136646173D01*
X155751000Y-137353827D01*
X155730282Y-137457983D01*
X155671282Y-137546282D01*
X155582983Y-137605282D01*
X155478827Y-137626000D01*
X154521173Y-137626000D01*
X154417017Y-137605282D01*
X154328718Y-137546282D01*
X154269718Y-137457983D01*
X154249000Y-137353827D01*
X154249000Y-136646173D01*
X154269718Y-136542017D01*
X154328718Y-136453718D01*
X154417017Y-136394718D01*
X154521173Y-136374000D01*
X155478827Y-136374000D01*
X155582983Y-136394718D01*
G37*
D20*
X155000000Y-137000000D03*
D12*
G36*
X155582983Y-138444718D02*
G01*
X155671282Y-138503718D01*
X155730282Y-138592017D01*
X155751000Y-138696173D01*
X155751000Y-139403827D01*
X155730282Y-139507983D01*
X155671282Y-139596282D01*
X155582983Y-139655282D01*
X155478827Y-139676000D01*
X154521173Y-139676000D01*
X154417017Y-139655282D01*
X154328718Y-139596282D01*
X154269718Y-139507983D01*
X154249000Y-139403827D01*
X154249000Y-138696173D01*
X154269718Y-138592017D01*
X154328718Y-138503718D01*
X154417017Y-138444718D01*
X154521173Y-138424000D01*
X155478827Y-138424000D01*
X155582983Y-138444718D01*
G37*
D20*
X155000000Y-139050000D03*
D12*
G36*
X158232983Y-134519718D02*
G01*
X158321282Y-134578718D01*
X158380282Y-134667017D01*
X158401000Y-134771173D01*
X158401000Y-135728827D01*
X158380282Y-135832983D01*
X158321282Y-135921282D01*
X158232983Y-135980282D01*
X158128827Y-136001000D01*
X157421173Y-136001000D01*
X157317017Y-135980282D01*
X157228718Y-135921282D01*
X157169718Y-135832983D01*
X157149000Y-135728827D01*
X157149000Y-134771173D01*
X157169718Y-134667017D01*
X157228718Y-134578718D01*
X157317017Y-134519718D01*
X157421173Y-134499000D01*
X158128827Y-134499000D01*
X158232983Y-134519718D01*
G37*
D20*
X157775000Y-135250000D03*
D12*
G36*
X156182983Y-134519718D02*
G01*
X156271282Y-134578718D01*
X156330282Y-134667017D01*
X156351000Y-134771173D01*
X156351000Y-135728827D01*
X156330282Y-135832983D01*
X156271282Y-135921282D01*
X156182983Y-135980282D01*
X156078827Y-136001000D01*
X155371173Y-136001000D01*
X155267017Y-135980282D01*
X155178718Y-135921282D01*
X155119718Y-135832983D01*
X155099000Y-135728827D01*
X155099000Y-134771173D01*
X155119718Y-134667017D01*
X155178718Y-134578718D01*
X155267017Y-134519718D01*
X155371173Y-134499000D01*
X156078827Y-134499000D01*
X156182983Y-134519718D01*
G37*
D20*
X155725000Y-135250000D03*
D12*
G36*
X154809078Y-134344583D02*
G01*
X154896802Y-134403198D01*
X154955417Y-134490922D01*
X154976000Y-134594400D01*
X154976000Y-135905600D01*
X154955417Y-136009078D01*
X154896802Y-136096802D01*
X154809078Y-136155417D01*
X154705600Y-136176000D01*
X153894400Y-136176000D01*
X153790922Y-136155417D01*
X153703198Y-136096802D01*
X153644583Y-136009078D01*
X153624000Y-135905600D01*
X153624000Y-134594400D01*
X153644583Y-134490922D01*
X153703198Y-134403198D01*
X153790922Y-134344583D01*
X153894400Y-134324000D01*
X154705600Y-134324000D01*
X154809078Y-134344583D01*
G37*
D21*
X154300000Y-135250000D03*
D12*
G36*
X152009078Y-134344583D02*
G01*
X152096802Y-134403198D01*
X152155417Y-134490922D01*
X152176000Y-134594400D01*
X152176000Y-135905600D01*
X152155417Y-136009078D01*
X152096802Y-136096802D01*
X152009078Y-136155417D01*
X151905600Y-136176000D01*
X151094400Y-136176000D01*
X150990922Y-136155417D01*
X150903198Y-136096802D01*
X150844583Y-136009078D01*
X150824000Y-135905600D01*
X150824000Y-134594400D01*
X150844583Y-134490922D01*
X150903198Y-134403198D01*
X150990922Y-134344583D01*
X151094400Y-134324000D01*
X151905600Y-134324000D01*
X152009078Y-134344583D01*
G37*
D21*
X151500000Y-135250000D03*
D12*
G36*
X155057983Y-126269718D02*
G01*
X155146282Y-126328718D01*
X155205282Y-126417017D01*
X155226000Y-126521173D01*
X155226000Y-127478827D01*
X155205282Y-127582983D01*
X155146282Y-127671282D01*
X155057983Y-127730282D01*
X154953827Y-127751000D01*
X154246173Y-127751000D01*
X154142017Y-127730282D01*
X154053718Y-127671282D01*
X153994718Y-127582983D01*
X153974000Y-127478827D01*
X153974000Y-126521173D01*
X153994718Y-126417017D01*
X154053718Y-126328718D01*
X154142017Y-126269718D01*
X154246173Y-126249000D01*
X154953827Y-126249000D01*
X155057983Y-126269718D01*
G37*
D20*
X154600000Y-127000000D03*
D12*
G36*
X153007983Y-126269718D02*
G01*
X153096282Y-126328718D01*
X153155282Y-126417017D01*
X153176000Y-126521173D01*
X153176000Y-127478827D01*
X153155282Y-127582983D01*
X153096282Y-127671282D01*
X153007983Y-127730282D01*
X152903827Y-127751000D01*
X152196173Y-127751000D01*
X152092017Y-127730282D01*
X152003718Y-127671282D01*
X151944718Y-127582983D01*
X151924000Y-127478827D01*
X151924000Y-126521173D01*
X151944718Y-126417017D01*
X152003718Y-126328718D01*
X152092017Y-126269718D01*
X152196173Y-126249000D01*
X152903827Y-126249000D01*
X153007983Y-126269718D01*
G37*
D20*
X152550000Y-127000000D03*
D12*
G36*
X158482983Y-126269718D02*
G01*
X158571282Y-126328718D01*
X158630282Y-126417017D01*
X158651000Y-126521173D01*
X158651000Y-127478827D01*
X158630282Y-127582983D01*
X158571282Y-127671282D01*
X158482983Y-127730282D01*
X158378827Y-127751000D01*
X157671173Y-127751000D01*
X157567017Y-127730282D01*
X157478718Y-127671282D01*
X157419718Y-127582983D01*
X157399000Y-127478827D01*
X157399000Y-126521173D01*
X157419718Y-126417017D01*
X157478718Y-126328718D01*
X157567017Y-126269718D01*
X157671173Y-126249000D01*
X158378827Y-126249000D01*
X158482983Y-126269718D01*
G37*
D20*
X158025000Y-127000000D03*
D12*
G36*
X156432983Y-126269718D02*
G01*
X156521282Y-126328718D01*
X156580282Y-126417017D01*
X156601000Y-126521173D01*
X156601000Y-127478827D01*
X156580282Y-127582983D01*
X156521282Y-127671282D01*
X156432983Y-127730282D01*
X156328827Y-127751000D01*
X155621173Y-127751000D01*
X155517017Y-127730282D01*
X155428718Y-127671282D01*
X155369718Y-127582983D01*
X155349000Y-127478827D01*
X155349000Y-126521173D01*
X155369718Y-126417017D01*
X155428718Y-126328718D01*
X155517017Y-126269718D01*
X155621173Y-126249000D01*
X156328827Y-126249000D01*
X156432983Y-126269718D01*
G37*
D20*
X155975000Y-127000000D03*
D12*
G36*
X140082983Y-114369718D02*
G01*
X140171282Y-114428718D01*
X140230282Y-114517017D01*
X140251000Y-114621173D01*
X140251000Y-115328827D01*
X140230282Y-115432983D01*
X140171282Y-115521282D01*
X140082983Y-115580282D01*
X139978827Y-115601000D01*
X139021173Y-115601000D01*
X138917017Y-115580282D01*
X138828718Y-115521282D01*
X138769718Y-115432983D01*
X138749000Y-115328827D01*
X138749000Y-114621173D01*
X138769718Y-114517017D01*
X138828718Y-114428718D01*
X138917017Y-114369718D01*
X139021173Y-114349000D01*
X139978827Y-114349000D01*
X140082983Y-114369718D01*
G37*
D20*
X139500000Y-114975000D03*
D12*
G36*
X140082983Y-116419718D02*
G01*
X140171282Y-116478718D01*
X140230282Y-116567017D01*
X140251000Y-116671173D01*
X140251000Y-117378827D01*
X140230282Y-117482983D01*
X140171282Y-117571282D01*
X140082983Y-117630282D01*
X139978827Y-117651000D01*
X139021173Y-117651000D01*
X138917017Y-117630282D01*
X138828718Y-117571282D01*
X138769718Y-117482983D01*
X138749000Y-117378827D01*
X138749000Y-116671173D01*
X138769718Y-116567017D01*
X138828718Y-116478718D01*
X138917017Y-116419718D01*
X139021173Y-116399000D01*
X139978827Y-116399000D01*
X140082983Y-116419718D01*
G37*
D20*
X139500000Y-117025000D03*
D12*
G36*
X124932983Y-116519718D02*
G01*
X125021282Y-116578718D01*
X125080282Y-116667017D01*
X125101000Y-116771173D01*
X125101000Y-117728827D01*
X125080282Y-117832983D01*
X125021282Y-117921282D01*
X124932983Y-117980282D01*
X124828827Y-118001000D01*
X124121173Y-118001000D01*
X124017017Y-117980282D01*
X123928718Y-117921282D01*
X123869718Y-117832983D01*
X123849000Y-117728827D01*
X123849000Y-116771173D01*
X123869718Y-116667017D01*
X123928718Y-116578718D01*
X124017017Y-116519718D01*
X124121173Y-116499000D01*
X124828827Y-116499000D01*
X124932983Y-116519718D01*
G37*
D20*
X124475000Y-117250000D03*
D12*
G36*
X126982983Y-116519718D02*
G01*
X127071282Y-116578718D01*
X127130282Y-116667017D01*
X127151000Y-116771173D01*
X127151000Y-117728827D01*
X127130282Y-117832983D01*
X127071282Y-117921282D01*
X126982983Y-117980282D01*
X126878827Y-118001000D01*
X126171173Y-118001000D01*
X126067017Y-117980282D01*
X125978718Y-117921282D01*
X125919718Y-117832983D01*
X125899000Y-117728827D01*
X125899000Y-116771173D01*
X125919718Y-116667017D01*
X125978718Y-116578718D01*
X126067017Y-116519718D01*
X126171173Y-116499000D01*
X126878827Y-116499000D01*
X126982983Y-116519718D01*
G37*
D20*
X126525000Y-117250000D03*
D12*
G36*
X125432983Y-133519718D02*
G01*
X125521282Y-133578718D01*
X125580282Y-133667017D01*
X125601000Y-133771173D01*
X125601000Y-134728827D01*
X125580282Y-134832983D01*
X125521282Y-134921282D01*
X125432983Y-134980282D01*
X125328827Y-135001000D01*
X124621173Y-135001000D01*
X124517017Y-134980282D01*
X124428718Y-134921282D01*
X124369718Y-134832983D01*
X124349000Y-134728827D01*
X124349000Y-133771173D01*
X124369718Y-133667017D01*
X124428718Y-133578718D01*
X124517017Y-133519718D01*
X124621173Y-133499000D01*
X125328827Y-133499000D01*
X125432983Y-133519718D01*
G37*
D20*
X124975000Y-134250000D03*
D12*
G36*
X127482983Y-133519718D02*
G01*
X127571282Y-133578718D01*
X127630282Y-133667017D01*
X127651000Y-133771173D01*
X127651000Y-134728827D01*
X127630282Y-134832983D01*
X127571282Y-134921282D01*
X127482983Y-134980282D01*
X127378827Y-135001000D01*
X126671173Y-135001000D01*
X126567017Y-134980282D01*
X126478718Y-134921282D01*
X126419718Y-134832983D01*
X126399000Y-134728827D01*
X126399000Y-133771173D01*
X126419718Y-133667017D01*
X126478718Y-133578718D01*
X126567017Y-133519718D01*
X126671173Y-133499000D01*
X127378827Y-133499000D01*
X127482983Y-133519718D01*
G37*
D20*
X127025000Y-134250000D03*
D12*
G36*
X137809078Y-116344583D02*
G01*
X137896802Y-116403198D01*
X137955417Y-116490922D01*
X137976000Y-116594400D01*
X137976000Y-117905600D01*
X137955417Y-118009078D01*
X137896802Y-118096802D01*
X137809078Y-118155417D01*
X137705600Y-118176000D01*
X136894400Y-118176000D01*
X136790922Y-118155417D01*
X136703198Y-118096802D01*
X136644583Y-118009078D01*
X136624000Y-117905600D01*
X136624000Y-116594400D01*
X136644583Y-116490922D01*
X136703198Y-116403198D01*
X136790922Y-116344583D01*
X136894400Y-116324000D01*
X137705600Y-116324000D01*
X137809078Y-116344583D01*
G37*
D21*
X137300000Y-117250000D03*
D12*
G36*
X135009078Y-116344583D02*
G01*
X135096802Y-116403198D01*
X135155417Y-116490922D01*
X135176000Y-116594400D01*
X135176000Y-117905600D01*
X135155417Y-118009078D01*
X135096802Y-118096802D01*
X135009078Y-118155417D01*
X134905600Y-118176000D01*
X134094400Y-118176000D01*
X133990922Y-118155417D01*
X133903198Y-118096802D01*
X133844583Y-118009078D01*
X133824000Y-117905600D01*
X133824000Y-116594400D01*
X133844583Y-116490922D01*
X133903198Y-116403198D01*
X133990922Y-116344583D01*
X134094400Y-116324000D01*
X134905600Y-116324000D01*
X135009078Y-116344583D01*
G37*
D21*
X134500000Y-117250000D03*
D12*
G36*
X148009078Y-124594583D02*
G01*
X148096802Y-124653198D01*
X148155417Y-124740922D01*
X148176000Y-124844400D01*
X148176000Y-126155600D01*
X148155417Y-126259078D01*
X148096802Y-126346802D01*
X148009078Y-126405417D01*
X147905600Y-126426000D01*
X147094400Y-126426000D01*
X146990922Y-126405417D01*
X146903198Y-126346802D01*
X146844583Y-126259078D01*
X146824000Y-126155600D01*
X146824000Y-124844400D01*
X146844583Y-124740922D01*
X146903198Y-124653198D01*
X146990922Y-124594583D01*
X147094400Y-124574000D01*
X147905600Y-124574000D01*
X148009078Y-124594583D01*
G37*
D21*
X147500000Y-125500000D03*
D12*
G36*
X145209078Y-124594583D02*
G01*
X145296802Y-124653198D01*
X145355417Y-124740922D01*
X145376000Y-124844400D01*
X145376000Y-126155600D01*
X145355417Y-126259078D01*
X145296802Y-126346802D01*
X145209078Y-126405417D01*
X145105600Y-126426000D01*
X144294400Y-126426000D01*
X144190922Y-126405417D01*
X144103198Y-126346802D01*
X144044583Y-126259078D01*
X144024000Y-126155600D01*
X144024000Y-124844400D01*
X144044583Y-124740922D01*
X144103198Y-124653198D01*
X144190922Y-124594583D01*
X144294400Y-124574000D01*
X145105600Y-124574000D01*
X145209078Y-124594583D01*
G37*
D21*
X144700000Y-125500000D03*
D12*
G36*
X155509078Y-144194583D02*
G01*
X155596802Y-144253198D01*
X155655417Y-144340922D01*
X155676000Y-144444400D01*
X155676000Y-145255600D01*
X155655417Y-145359078D01*
X155596802Y-145446802D01*
X155509078Y-145505417D01*
X155405600Y-145526000D01*
X154094400Y-145526000D01*
X153990922Y-145505417D01*
X153903198Y-145446802D01*
X153844583Y-145359078D01*
X153824000Y-145255600D01*
X153824000Y-144444400D01*
X153844583Y-144340922D01*
X153903198Y-144253198D01*
X153990922Y-144194583D01*
X154094400Y-144174000D01*
X155405600Y-144174000D01*
X155509078Y-144194583D01*
G37*
D21*
X154750000Y-144850000D03*
D12*
G36*
X155509078Y-146994583D02*
G01*
X155596802Y-147053198D01*
X155655417Y-147140922D01*
X155676000Y-147244400D01*
X155676000Y-148055600D01*
X155655417Y-148159078D01*
X155596802Y-148246802D01*
X155509078Y-148305417D01*
X155405600Y-148326000D01*
X154094400Y-148326000D01*
X153990922Y-148305417D01*
X153903198Y-148246802D01*
X153844583Y-148159078D01*
X153824000Y-148055600D01*
X153824000Y-147244400D01*
X153844583Y-147140922D01*
X153903198Y-147053198D01*
X153990922Y-146994583D01*
X154094400Y-146974000D01*
X155405600Y-146974000D01*
X155509078Y-146994583D01*
G37*
D21*
X154750000Y-147650000D03*
D12*
G36*
X143759078Y-135194583D02*
G01*
X143846802Y-135253198D01*
X143905417Y-135340922D01*
X143926000Y-135444400D01*
X143926000Y-136255600D01*
X143905417Y-136359078D01*
X143846802Y-136446802D01*
X143759078Y-136505417D01*
X143655600Y-136526000D01*
X142344400Y-136526000D01*
X142240922Y-136505417D01*
X142153198Y-136446802D01*
X142094583Y-136359078D01*
X142074000Y-136255600D01*
X142074000Y-135444400D01*
X142094583Y-135340922D01*
X142153198Y-135253198D01*
X142240922Y-135194583D01*
X142344400Y-135174000D01*
X143655600Y-135174000D01*
X143759078Y-135194583D01*
G37*
D21*
X143000000Y-135850000D03*
D12*
G36*
X143759078Y-137994583D02*
G01*
X143846802Y-138053198D01*
X143905417Y-138140922D01*
X143926000Y-138244400D01*
X143926000Y-139055600D01*
X143905417Y-139159078D01*
X143846802Y-139246802D01*
X143759078Y-139305417D01*
X143655600Y-139326000D01*
X142344400Y-139326000D01*
X142240922Y-139305417D01*
X142153198Y-139246802D01*
X142094583Y-139159078D01*
X142074000Y-139055600D01*
X142074000Y-138244400D01*
X142094583Y-138140922D01*
X142153198Y-138053198D01*
X142240922Y-137994583D01*
X142344400Y-137974000D01*
X143655600Y-137974000D01*
X143759078Y-137994583D01*
G37*
D21*
X143000000Y-138650000D03*
D12*
G36*
X146009078Y-135194583D02*
G01*
X146096802Y-135253198D01*
X146155417Y-135340922D01*
X146176000Y-135444400D01*
X146176000Y-136255600D01*
X146155417Y-136359078D01*
X146096802Y-136446802D01*
X146009078Y-136505417D01*
X145905600Y-136526000D01*
X144594400Y-136526000D01*
X144490922Y-136505417D01*
X144403198Y-136446802D01*
X144344583Y-136359078D01*
X144324000Y-136255600D01*
X144324000Y-135444400D01*
X144344583Y-135340922D01*
X144403198Y-135253198D01*
X144490922Y-135194583D01*
X144594400Y-135174000D01*
X145905600Y-135174000D01*
X146009078Y-135194583D01*
G37*
D21*
X145250000Y-135850000D03*
D12*
G36*
X146009078Y-137994583D02*
G01*
X146096802Y-138053198D01*
X146155417Y-138140922D01*
X146176000Y-138244400D01*
X146176000Y-139055600D01*
X146155417Y-139159078D01*
X146096802Y-139246802D01*
X146009078Y-139305417D01*
X145905600Y-139326000D01*
X144594400Y-139326000D01*
X144490922Y-139305417D01*
X144403198Y-139246802D01*
X144344583Y-139159078D01*
X144324000Y-139055600D01*
X144324000Y-138244400D01*
X144344583Y-138140922D01*
X144403198Y-138053198D01*
X144490922Y-137994583D01*
X144594400Y-137974000D01*
X145905600Y-137974000D01*
X146009078Y-137994583D01*
G37*
D21*
X145250000Y-138650000D03*
D12*
G36*
X155759078Y-121344583D02*
G01*
X155846802Y-121403198D01*
X155905417Y-121490922D01*
X155926000Y-121594400D01*
X155926000Y-122405600D01*
X155905417Y-122509078D01*
X155846802Y-122596802D01*
X155759078Y-122655417D01*
X155655600Y-122676000D01*
X154344400Y-122676000D01*
X154240922Y-122655417D01*
X154153198Y-122596802D01*
X154094583Y-122509078D01*
X154074000Y-122405600D01*
X154074000Y-121594400D01*
X154094583Y-121490922D01*
X154153198Y-121403198D01*
X154240922Y-121344583D01*
X154344400Y-121324000D01*
X155655600Y-121324000D01*
X155759078Y-121344583D01*
G37*
D21*
X155000000Y-122000000D03*
D12*
G36*
X155759078Y-124144583D02*
G01*
X155846802Y-124203198D01*
X155905417Y-124290922D01*
X155926000Y-124394400D01*
X155926000Y-125205600D01*
X155905417Y-125309078D01*
X155846802Y-125396802D01*
X155759078Y-125455417D01*
X155655600Y-125476000D01*
X154344400Y-125476000D01*
X154240922Y-125455417D01*
X154153198Y-125396802D01*
X154094583Y-125309078D01*
X154074000Y-125205600D01*
X154074000Y-124394400D01*
X154094583Y-124290922D01*
X154153198Y-124203198D01*
X154240922Y-124144583D01*
X154344400Y-124124000D01*
X155655600Y-124124000D01*
X155759078Y-124144583D01*
G37*
D21*
X155000000Y-124800000D03*
D23*
X154750000Y-152500000D03*
X159000000Y-152500000D03*
X150500000Y-152500000D03*
X125000000Y-152500000D03*
X129250000Y-152500000D03*
X120750000Y-152500000D03*
D15*
X155000000Y-131550000D03*
D24*
X156475000Y-130800000D03*
X156475000Y-131300000D03*
X156475000Y-131800000D03*
X156475000Y-132300000D03*
D25*
X155750000Y-133025000D03*
X155250000Y-133025000D03*
X154750000Y-133025000D03*
X154250000Y-133025000D03*
D24*
X153525000Y-132300000D03*
X153525000Y-131800000D03*
X153525000Y-131300000D03*
X153525000Y-130800000D03*
D25*
X154250000Y-130075000D03*
X154750000Y-130075000D03*
X155250000Y-130075000D03*
X155750000Y-130075000D03*
D26*
X133500000Y-112992700D03*
D12*
G36*
X134697953Y-112441700D02*
G01*
X133926553Y-113543700D01*
X133073447Y-113543700D01*
X132302047Y-112441700D01*
X134697953Y-112441700D01*
G37*
D27*
X133500000Y-111583000D03*
D28*
X135000000Y-114396500D03*
D29*
X133500000Y-114250000D03*
D28*
X132000000Y-114396500D03*
D30*
X133500000Y-110249500D03*
D12*
G36*
X132301574Y-110725500D02*
G01*
X132973574Y-109773500D01*
X134026426Y-109773500D01*
X134698426Y-110725500D01*
X132301574Y-110725500D01*
G37*
D26*
X122742700Y-121000000D03*
D12*
G36*
X122191700Y-119802047D02*
G01*
X123293700Y-120573447D01*
X123293700Y-121426553D01*
X122191700Y-122197953D01*
X122191700Y-119802047D01*
G37*
D31*
X121333000Y-121000000D03*
D32*
X124146500Y-119500000D03*
D33*
X124000000Y-121000000D03*
D32*
X124146500Y-122500000D03*
D30*
X119999500Y-121000000D03*
D12*
G36*
X120475500Y-122198426D02*
G01*
X119523500Y-121526426D01*
X119523500Y-120473574D01*
X120475500Y-119801574D01*
X120475500Y-122198426D01*
G37*
D26*
X123242700Y-138250000D03*
D12*
G36*
X122691700Y-137052047D02*
G01*
X123793700Y-137823447D01*
X123793700Y-138676553D01*
X122691700Y-139447953D01*
X122691700Y-137052047D01*
G37*
D31*
X121833000Y-138250000D03*
D32*
X124646500Y-136750000D03*
D33*
X124500000Y-138250000D03*
D32*
X124646500Y-139750000D03*
D30*
X120499500Y-138250000D03*
D12*
G36*
X120975500Y-139448426D02*
G01*
X120023500Y-138776426D01*
X120023500Y-137723574D01*
X120975500Y-137051574D01*
X120975500Y-139448426D01*
G37*
M02*
